<svg xmlns="http://www.w3.org/2000/svg" width="76.246" height="76.246" viewBox="0 0 76.246 76.246">
  <g id="Group_1099664" data-name="Group 1099664" transform="translate(-1088.051 -886)">
    <g id="Group_1099487" data-name="Group 1099487" transform="translate(69.051 -5878)">
      <g id="Group_1098742" data-name="Group 1098742" transform="translate(1019 6764)">
        <rect id="Rectangle_400898" data-name="Rectangle 400898" width="76.246" height="76.246" rx="38.123" transform="translate(0 0)" fill="#d0c110"/>
        <rect id="Rectangle_400907" data-name="Rectangle 400907" width="76.246" height="76.246" rx="38.123" transform="translate(0 0)" fill="none"/>
      </g>
    </g>
    <g id="ficha2" transform="translate(1084.436 899)">
      <g id="Group_1099645" data-name="Group 1099645" transform="translate(24.84 3.944)">
        <path id="Path_1241730" data-name="Path 1241730" d="M114.084,82H84.058a2.063,2.063,0,0,1-2.063-2.063V42.218a2.063,2.063,0,0,1,2.063-2.063h30.026a2.063,2.063,0,0,1,2.063,2.063V79.933A2.063,2.063,0,0,1,114.084,82Z" transform="translate(-81.995 -40.155)" fill="#c6865c"/>
      </g>
      <g id="Group_1099646" data-name="Group 1099646" transform="translate(24.84 3.944)">
        <path id="Path_1241731" data-name="Path 1241731" d="M114.1,40.155h-.949V76.964a2.041,2.041,0,0,1-2.041,2.041H82v.949A2.041,2.041,0,0,0,84.036,82H114.1a2.041,2.041,0,0,0,2.041-2.041V42.2a2.041,2.041,0,0,0-2.041-2.041Z" transform="translate(-81.995 -40.155)" fill="#b16e3d"/>
      </g>
      <g id="Group_1099647" data-name="Group 1099647" transform="translate(29.048 3.936)">
        <path id="Path_1241732" data-name="Path 1241732" d="M150.082,75.244H125.328a.491.491,0,0,1-.491-.491V40.564a.491.491,0,0,1,.491-.491h24.754a.491.491,0,0,1,.491.491V74.752A.491.491,0,0,1,150.082,75.244Z" transform="translate(-124.837 -40.073)" fill="#f9f6f9"/>
      </g>
      <g id="Group_1099648" data-name="Group 1099648" transform="translate(29.048 3.936)">
        <path id="Path_1241733" data-name="Path 1241733" d="M150.087,40.073h-2.034V72.238a.486.486,0,0,1-.486.486h-22.73v2.034a.486.486,0,0,0,.486.486h24.764a.486.486,0,0,0,.486-.486v-34.2A.486.486,0,0,0,150.087,40.073Z" transform="translate(-124.837 -40.073)" fill="#dddaec"/>
      </g>
      <g id="Group_1099649" data-name="Group 1099649" transform="translate(27.28 24.325)">
        <circle id="Ellipse_11557" data-name="Ellipse 11557" cx="5.966" cy="5.966" r="5.966" transform="translate(0)" fill="#b3e59f"/>
      </g>
      <g id="Group_1099650" data-name="Group 1099650" transform="translate(19.344 11.056)">
        <circle id="Ellipse_11558" data-name="Ellipse 11558" cx="5.966" cy="5.966" r="5.966" transform="translate(0)" fill="#b3e59f"/>
      </g>
      <g id="Group_1099651" data-name="Group 1099651" transform="translate(41.745 25.642)">
        <path id="Path_1241734" data-name="Path 1241734" d="M267.154,270.174H255.778a1.661,1.661,0,0,1-1.661-1.661v-5.768a1.661,1.661,0,0,1,1.661-1.661h11.376a1.661,1.661,0,0,1,1.661,1.661v5.768a1.661,1.661,0,0,1-1.661,1.661Z" transform="translate(-254.117 -261.083)" fill="#dddaec"/>
      </g>
      <g id="Group_1099652" data-name="Group 1099652" transform="translate(35.353 37.626)">
        <circle id="Ellipse_11559" data-name="Ellipse 11559" cx="5.966" cy="5.966" r="5.966" fill="#b3e59f"/>
      </g>
      <g id="Group_1099653" data-name="Group 1099653" transform="translate(27.938 24.982)">
        <path id="Path_1241735" data-name="Path 1241735" d="M121.564,254.359a5.965,5.965,0,0,1-8.029,8.029,5.965,5.965,0,1,0,8.029-8.029Z" transform="translate(-113.535 -254.359)" fill="#95d6a4"/>
      </g>
      <g id="Group_1099654" data-name="Group 1099654" transform="translate(20.001 11.713)">
        <path id="Path_1241736" data-name="Path 1241736" d="M40.757,119.262a5.965,5.965,0,0,1-8.029,8.029,5.965,5.965,0,1,0,8.029-8.029Z" transform="translate(-32.728 -119.262)" fill="#95d6a4"/>
      </g>
      <g id="Group_1099655" data-name="Group 1099655" transform="translate(36.01 38.283)">
        <path id="Path_1241737" data-name="Path 1241737" d="M203.755,389.789a5.965,5.965,0,0,1-8.029,8.029,5.965,5.965,0,1,0,8.029-8.029Z" transform="translate(-195.726 -389.789)" fill="#95d6a4"/>
      </g>
      <g id="Group_1099656" data-name="Group 1099656" transform="translate(49.817 38.749)">
        <path id="Path_1241738" data-name="Path 1241738" d="M349.344,403.626H337.968a1.661,1.661,0,0,1-1.661-1.661V396.2a1.661,1.661,0,0,1,1.661-1.661h11.376a1.661,1.661,0,0,1,1.661,1.661v5.768a1.661,1.661,0,0,1-1.661,1.661Z" transform="translate(-336.307 -394.535)" fill="#dddaec"/>
      </g>
      <g id="Group_1099657" data-name="Group 1099657" transform="translate(33.808 12.476)">
        <path id="Path_1241739" data-name="Path 1241739" d="M186.347,136.121H174.971a1.661,1.661,0,0,1-1.661-1.661v-5.768a1.661,1.661,0,0,1,1.661-1.661h11.376a1.661,1.661,0,0,1,1.661,1.661v5.768A1.661,1.661,0,0,1,186.347,136.121Z" transform="translate(-173.31 -127.03)" fill="#dddaec"/>
      </g>
      <g id="Group_1099658" data-name="Group 1099658" transform="translate(41.745 25.642)">
        <path id="Path_1241740" data-name="Path 1241740" d="M267.171,261.083h0v6.642a.8.8,0,0,1-.8.8H254.117v0a1.644,1.644,0,0,0,1.644,1.644h11.41a1.644,1.644,0,0,0,1.644-1.644v-5.8A1.644,1.644,0,0,0,267.171,261.083Z" transform="translate(-254.117 -261.083)" fill="#d0cee7"/>
      </g>
      <g id="Group_1099659" data-name="Group 1099659" transform="translate(49.817 38.749)">
        <path id="Path_1241741" data-name="Path 1241741" d="M349.361,394.534h0v6.642a.8.8,0,0,1-.8.8H336.307v0a1.644,1.644,0,0,0,1.644,1.644h11.41a1.644,1.644,0,0,0,1.644-1.644v-5.8A1.644,1.644,0,0,0,349.361,394.534Z" transform="translate(-336.307 -394.534)" fill="#d0cee7"/>
      </g>
      <g id="Group_1099660" data-name="Group 1099660" transform="translate(33.808 12.476)">
        <path id="Path_1241742" data-name="Path 1241742" d="M186.363,127.029h0v6.642a.8.8,0,0,1-.8.8H173.309v0a1.644,1.644,0,0,0,1.644,1.644h11.41a1.644,1.644,0,0,0,1.644-1.644v-5.8A1.644,1.644,0,0,0,186.363,127.029Z" transform="translate(-173.309 -127.029)" fill="#d0cee7"/>
      </g>
      <g id="Group_1099661" data-name="Group 1099661" transform="translate(33.933 3.045)">
        <path id="Path_1241743" data-name="Path 1241743" d="M189.758,31H175.365a.786.786,0,0,0-.786.786V33.7a.786.786,0,0,0,.786.786h14.393a.786.786,0,0,0,.786-.786V31.791A.786.786,0,0,0,189.758,31Z" transform="translate(-174.579 -31.005)" fill="#e28086"/>
      </g>
      <g id="Group_1099662" data-name="Group 1099662" transform="translate(33.933 3.045)">
        <path id="Path_1241744" data-name="Path 1241744" d="M189.766,31h-.652v1.273a.778.778,0,0,1-.778.778H174.579v.652a.778.778,0,0,0,.778.778h14.41a.778.778,0,0,0,.778-.778V31.783A.777.777,0,0,0,189.766,31Z" transform="translate(-174.579 -31.005)" fill="#dd636e"/>
      </g>
      <g id="Group_1099663" data-name="Group 1099663" transform="translate(18.615 0)">
        <path id="Path_1241745" data-name="Path 1241745" d="M293,283.7h-7.151a.729.729,0,1,0,0,1.458H293a.729.729,0,1,0,0-1.458Z" transform="translate(-258.942 -255.837)"/>
        <path id="Path_1241746" data-name="Path 1241746" d="M288.25,316.29h-2.405a.729.729,0,1,0,0,1.458h2.405a.729.729,0,1,0,0-1.458Z" transform="translate(-258.942 -285.226)"/>
        <path id="Path_1241747" data-name="Path 1241747" d="M62.871,38.02H59.72V18.205a.729.729,0,1,0-1.458,0V38.02h-2.75V35.352a2.377,2.377,0,0,0,1.66-2.264v-5.8a2.377,2.377,0,0,0-1.66-2.264V4.673H56.95a1.314,1.314,0,0,1,1.312,1.312v8.8a.729.729,0,0,0,1.458,0v-8.8a2.773,2.773,0,0,0-2.77-2.77H50.5a1.508,1.508,0,0,0-1.377-.9H44.977a3.181,3.181,0,0,0-6.122,0H34.711a1.508,1.508,0,0,0-1.377.9H26.881a2.773,2.773,0,0,0-2.77,2.77v4.452a6.693,6.693,0,0,0,0,13.17V43.743a2.773,2.773,0,0,0,2.77,2.77H35.3a6.693,6.693,0,0,0,1.426,1.948.729.729,0,1,0,1-1.061,5.189,5.189,0,0,1-1.644-3.81,5.23,5.23,0,1,1,4.286,5.151.729.729,0,0,0-.263,1.434,6.7,6.7,0,0,0,7.235-3.663h1.77a2.376,2.376,0,0,0,2.351,2.056h11.41A2.376,2.376,0,0,0,65.244,46.2v-5.8A2.376,2.376,0,0,0,62.871,38.02Zm-7.157-4.931A.916.916,0,0,1,54.8,34H43.389a.916.916,0,0,1-.915-.915v-5.8a.916.916,0,0,1,.915-.915H54.8a.916.916,0,0,1,.915.915v5.8ZM41.915,1.458a1.728,1.728,0,0,1,1.488.858H40.425A1.722,1.722,0,0,1,41.915,1.458ZM34.662,3.823a.049.049,0,0,1,.049-.049H49.12a.049.049,0,0,1,.049.049V5.748a.049.049,0,0,1-.049.049H34.711a.049.049,0,0,1-.049-.049Zm2.2,3.432h10.1V7.42A1.462,1.462,0,0,1,45.543,8.9a1.39,1.39,0,0,1-.661-.157,2.479,2.479,0,0,0-2.3-.01,1.434,1.434,0,0,1-1.342,0,2.479,2.479,0,0,0-2.3.01,1.422,1.422,0,0,1-.661.157A1.462,1.462,0,0,1,36.865,7.42ZM20.073,17.022a5.237,5.237,0,1,1,5.237,5.237A5.242,5.242,0,0,1,20.073,17.022ZM28.009,30.29a5.237,5.237,0,1,1,5.237,5.237,5.242,5.242,0,0,1-5.237-5.237ZM26.881,45.056a1.314,1.314,0,0,1-1.312-1.312V23.71A6.646,6.646,0,0,0,28.319,23v2.765a6.68,6.68,0,0,0,0,9.052v3.8a1.216,1.216,0,0,0,1.215,1.215H35.78a6.648,6.648,0,0,0-.991,5.22H26.881Zm10.245-6.678h-7.35V36.014a6.695,6.695,0,1,0,0-11.447V22a6.69,6.69,0,0,0-4.208-11.669V5.985a1.314,1.314,0,0,1,1.312-1.312h1.437V8.446a.729.729,0,1,0,1.458,0V4.673H33.2V5.748a1.508,1.508,0,0,0,1.507,1.507h.7V7.42a2.923,2.923,0,0,0,2.872,2.941,2.888,2.888,0,0,0,1.336-.317,1.022,1.022,0,0,1,.944-.021,2.892,2.892,0,0,0,2.714,0,1.022,1.022,0,0,1,.944.021,2.891,2.891,0,0,0,1.336.317A2.923,2.923,0,0,0,48.424,7.42V7.255h.7a1.508,1.508,0,0,0,1.507-1.507V4.673h3.427v20.24H43.389a2.376,2.376,0,0,0-2.373,2.373v5.8a2.376,2.376,0,0,0,2.373,2.373H54.054V38.02H51.461a2.359,2.359,0,0,0-1.25.357h-4.7a6.675,6.675,0,0,0-8.384,0Zm9.73,1.458h2.3a2.371,2.371,0,0,0-.067.558v4.662H47.85a6.672,6.672,0,0,0-.993-5.22ZM63.786,46.2a.916.916,0,0,1-.915.915H51.461a.916.916,0,0,1-.915-.915v-5.8a.916.916,0,0,1,.915-.915h11.41a.916.916,0,0,1,.915.915v5.8Z" transform="translate(-18.615 0)"/>
        <path id="Path_1241748" data-name="Path 1241748" d="M375.187,417.153h-7.151a.729.729,0,1,0,0,1.458h7.151a.729.729,0,1,0,0-1.458Z" transform="translate(-333.06 -376.182)"/>
        <path id="Path_1241749" data-name="Path 1241749" d="M373.54,449.741h-5.5a.729.729,0,1,0,0,1.458h5.5a.729.729,0,1,0,0-1.458Z" transform="translate(-333.06 -405.57)"/>
        <path id="Path_1241750" data-name="Path 1241750" d="M182.043,127.783v-5.8a2.376,2.376,0,0,0-2.373-2.373H168.26a2.376,2.376,0,0,0-2.373,2.373v5.8a2.376,2.376,0,0,0,2.373,2.373h11.41A2.376,2.376,0,0,0,182.043,127.783Zm-14.7,0v-5.8a.916.916,0,0,1,.915-.915h11.41a.916.916,0,0,1,.915.915v5.8a.916.916,0,0,1-.915.915H168.26A.916.916,0,0,1,167.345,127.783Z" transform="translate(-151.423 -107.86)"/>
        <path id="Path_1241751" data-name="Path 1241751" d="M212.189,149.648h-7.151a.729.729,0,0,0,0,1.458h7.151a.729.729,0,0,0,0-1.458Z" transform="translate(-186.071 -134.95)"/>
        <path id="Path_1241752" data-name="Path 1241752" d="M212.189,182.236h-7.151a.729.729,0,0,0,0,1.458h7.151a.729.729,0,0,0,0-1.458Z" transform="translate(-186.071 -164.338)"/>
        <path id="Path_1241753" data-name="Path 1241753" d="M148.114,277.422a.729.729,0,0,0-.738-.72c-.533.007-1.1.011-1.582.013.315-.424.739-1.006,1.3-1.8a4.479,4.479,0,0,0,.73-1.514.691.691,0,0,0,.013-.072l.029-.225a.729.729,0,0,0,.006-.092,2.215,2.215,0,0,0-4.388-.428.729.729,0,0,0,1.431.281.757.757,0,0,1,1.5.109l-.017.131a3.21,3.21,0,0,1-.5.975c-.919,1.313-1.467,2.031-1.761,2.416-.367.481-.552.723-.429,1.122a.755.755,0,0,0,.49.5,4.772,4.772,0,0,0,1.322.061c.444,0,1.049,0,1.876-.015a.729.729,0,0,0,.72-.738Z" transform="translate(-131.204 -244.2)"/>
        <path id="Path_1241754" data-name="Path 1241754" d="M69.179,145.836V140.03a.729.729,0,0,0-.729-.729H67.209a.729.729,0,1,0,0,1.458h.512v5.077a.729.729,0,0,0,1.458,0Z" transform="translate(-61.779 -125.62)"/>
        <path id="Path_1241755" data-name="Path 1241755" d="M228.984,414.5a3.9,3.9,0,1,0-2.173-5.614.729.729,0,1,0,1.431.281.757.757,0,1,1,.742.9.729.729,0,1,0,0,1.458.757.757,0,1,1-.749.863.77.77,0,0,1-.007-.107.729.729,0,0,0-1.458,0,2.213,2.213,0,0,0,2.214,2.215Z" transform="translate(-206.326 -367.118)"/>
      </g>
    </g>
  </g>
</svg>
