<svg xmlns="http://www.w3.org/2000/svg" width="76.246" height="76.246" viewBox="0 0 76.246 76.246">
  <g id="Group_1099676" data-name="Group 1099676" transform="translate(6859 10722)">
    <g id="Group_1099490" data-name="Group 1099490" transform="translate(-7878 -17486)">
      <g id="Group_1098742" data-name="Group 1098742" transform="translate(1019 6764)">
        <rect id="Rectangle_400898" data-name="Rectangle 400898" width="76.246" height="76.246" rx="38.123" transform="translate(0 0)" fill="#d0c110"/>
        <rect id="Rectangle_400907" data-name="Rectangle 400907" width="76.246" height="76.246" rx="38.123" transform="translate(0 0)" fill="none"/>
      </g>
    </g>
    <g id="control1" transform="translate(-6877.02 -10710)">
      <g id="Group_1099672" data-name="Group 1099672" transform="translate(34.773 0.753)">
        <g id="Group_1099671" data-name="Group 1099671" transform="translate(0)">
          <g id="Group_1099668" data-name="Group 1099668">
            <g id="Group_1099665" data-name="Group 1099665">
              <path id="Path_1241756" data-name="Path 1241756" d="M75.164,94.211h-31.8a1.844,1.844,0,0,1-1.844-1.844V50.235a1.844,1.844,0,0,1,1.844-1.844h31.8a1.844,1.844,0,0,1,1.844,1.844V92.367A1.844,1.844,0,0,1,75.164,94.211Z" transform="translate(-41.515 -44.283)" fill="#ffc250"/>
              <path id="Path_1241757" data-name="Path 1241757" d="M321.2,48.39h-6.173a1.844,1.844,0,0,1,1.844,1.844V92.366a1.844,1.844,0,0,1-1.844,1.844H321.2a1.844,1.844,0,0,0,1.844-1.844V50.234A1.844,1.844,0,0,0,321.2,48.39Z" transform="translate(-287.549 -44.282)" fill="#eab14d"/>
              <path id="Path_1241758" data-name="Path 1241758" d="M71.522,117.53V79.057a.659.659,0,0,1,.659-.659h28.146a.659.659,0,0,1,.659.659V117.53a.659.659,0,0,1-.659.659H72.181A.659.659,0,0,1,71.522,117.53Z" transform="translate(-68.508 -71.276)" fill="#f5f5f5"/>
              <path id="Path_1241759" data-name="Path 1241759" d="M302.989,78.4h-6.173a.659.659,0,0,1,.659.659V117.53a.659.659,0,0,1-.659.659h6.173a.659.659,0,0,0,.659-.659V79.057A.659.659,0,0,0,302.989,78.4Z" transform="translate(-271.169 -71.276)" fill="#eaeaea"/>
              <path id="Path_1241760" data-name="Path 1241760" d="M151.181,9.8V8.824A1.324,1.324,0,0,0,149.857,7.5h-5.187a1.324,1.324,0,0,0-1.324,1.324V9.8a.542.542,0,0,1-.542.542h-2.159a1.3,1.3,0,0,0-1.3,1.3v2.985h15.838V11.637a1.3,1.3,0,0,0-1.3-1.3h-2.159a.542.542,0,0,1-.542-.542Z" transform="translate(-129.516 -7.5)" fill="#c2d0da"/>
            </g>
            <g id="Group_1099667" data-name="Group 1099667" transform="translate(6.849 10.854)">
              <g id="Group_1099666" data-name="Group 1099666">
                <path id="Path_1241761" data-name="Path 1241761" d="M109.694,122.519v-5.806a1.165,1.165,0,0,1,1.165-1.165h5.806a1.165,1.165,0,0,1,1.165,1.165v5.806a1.165,1.165,0,0,1-1.165,1.165h-5.806A1.165,1.165,0,0,1,109.694,122.519Z" transform="translate(-109.694 -115.548)" fill="#66b49d"/>
                <path id="Path_1241762" data-name="Path 1241762" d="M109.694,242.926V237.12a1.165,1.165,0,0,1,1.165-1.165h5.806a1.165,1.165,0,0,1,1.165,1.165v5.806a1.165,1.165,0,0,1-1.165,1.165h-5.806A1.165,1.165,0,0,1,109.694,242.926Z" transform="translate(-109.694 -223.859)" fill="#66b49d"/>
                <path id="Path_1241763" data-name="Path 1241763" d="M109.694,363.331v-5.806a1.165,1.165,0,0,1,1.165-1.165h5.806a1.165,1.165,0,0,1,1.165,1.165v5.806a1.165,1.165,0,0,1-1.165,1.165h-5.806A1.165,1.165,0,0,1,109.694,363.331Z" transform="translate(-109.694 -332.168)" fill="#66b49d"/>
              </g>
            </g>
          </g>
          <g id="Group_1099670" data-name="Group 1099670" transform="translate(19.438 11.706)">
            <g id="Group_1099669" data-name="Group 1099669" transform="translate(1.237)">
              <path id="Path_1241764" data-name="Path 1241764" d="M266.816,177.385l-.74-.975-2.768-1.753-1.064-.168-14.173,22.4a5.834,5.834,0,0,0-.743,1.754,4.565,4.565,0,0,1,4.046,2.562,5.832,5.832,0,0,0,1.268-1.421Z" transform="translate(-247.328 -169.421)" fill="#fc8086"/>
              <path id="Path_1241765" data-name="Path 1241765" d="M416.017,125.095l-1.2-.757a2,2,0,0,0-2.757.62l-1.1,1.733.35.705,3.328,2.108.894.082,1.1-1.734A2,2,0,0,0,416.017,125.095Z" transform="translate(-394.528 -124.027)" fill="#8c9ba6"/>
            </g>
            <path id="Path_1241766" data-name="Path 1241766" d="M0,0H2.848V5.411H0Z" transform="matrix(0.535, -0.845, 0.845, 0.535, 16.155, 5.063)" fill="#c9e2e7"/>
            <path id="Path_1241767" data-name="Path 1241767" d="M240.295,417.457l-4.036,3.252a.766.766,0,0,1-1.225-.776l1.214-5.039A4.566,4.566,0,0,1,240.295,417.457Z" transform="translate(-235.011 -385.675)" fill="#7c8b96"/>
          </g>
        </g>
      </g>
      <g id="Group_1099675" data-name="Group 1099675" transform="translate(34.02 0)">
        <g id="Group_1099674" data-name="Group 1099674" transform="translate(0 0)">
          <g id="Group_1099673" data-name="Group 1099673">
            <path id="Path_1241768" data-name="Path 1241768" d="M131.094,135.485a.753.753,0,0,0-1.054.16l-1.491,2.026-.51-.7a.754.754,0,1,0-1.218.887l.88,1.208a1.051,1.051,0,0,0,.844.431h0a1.051,1.051,0,0,0,.844-.426l1.864-2.532A.754.754,0,0,0,131.094,135.485Z" transform="translate(-117.368 -121.743)"/>
            <path id="Path_1241769" data-name="Path 1241769" d="M131.093,258.512a.753.753,0,0,0-1.054.16l-1.491,2.026-.51-.7a.754.754,0,1,0-1.219.887l.88,1.208a1.051,1.051,0,0,0,.844.431h0a1.051,1.051,0,0,0,.844-.427l1.864-2.532A.754.754,0,0,0,131.093,258.512Z" transform="translate(-117.367 -232.411)"/>
            <path id="Path_1241770" data-name="Path 1241770" d="M131.093,376.3a.753.753,0,0,0-1.054.16l-1.491,2.026-.51-.7a.754.754,0,1,0-1.219.887l.88,1.208a1.051,1.051,0,0,0,.844.431h0a1.051,1.051,0,0,0,.844-.427l1.864-2.532A.754.754,0,0,0,131.093,376.3Z" transform="translate(-117.367 -338.362)"/>
            <path id="Path_1241771" data-name="Path 1241771" d="M221.279,134.374h9.314a.754.754,0,0,0,0-1.507h-9.314a.754.754,0,0,0,0,1.507Z" transform="translate(-201.789 -119.519)"/>
            <path id="Path_1241772" data-name="Path 1241772" d="M221.279,165.715h4.657a.754.754,0,0,0,0-1.507h-4.657a.754.754,0,0,0,0,1.507Z" transform="translate(-201.789 -147.712)"/>
            <path id="Path_1241773" data-name="Path 1241773" d="M221.279,254.779h6.249a.754.754,0,1,0,0-1.507h-6.249a.754.754,0,1,0,0,1.507Z" transform="translate(-201.789 -227.829)"/>
            <path id="Path_1241774" data-name="Path 1241774" d="M225.936,286.121a.754.754,0,0,0,0-1.507h-4.657a.754.754,0,0,0,0,1.507Z" transform="translate(-201.789 -256.022)"/>
            <path id="Path_1241775" data-name="Path 1241775" d="M109.921,108.047h-5.806a1.921,1.921,0,0,0-1.918,1.918v5.806a1.921,1.921,0,0,0,1.918,1.918h5.806a1.921,1.921,0,0,0,1.918-1.918v-5.806A1.921,1.921,0,0,0,109.921,108.047Zm.411,7.724a.412.412,0,0,1-.411.411h-5.806a.412.412,0,0,1-.411-.411v-5.806a.412.412,0,0,1,.411-.411h5.806a.412.412,0,0,1,.411.411Z" transform="translate(-95.348 -97.193)"/>
            <path id="Path_1241776" data-name="Path 1241776" d="M109.921,228.453h-5.806a1.921,1.921,0,0,0-1.918,1.918v5.806a1.921,1.921,0,0,0,1.918,1.918h5.806a1.921,1.921,0,0,0,1.918-1.918v-5.806A1.92,1.92,0,0,0,109.921,228.453Zm.411,7.724a.412.412,0,0,1-.411.411h-5.806a.412.412,0,0,1-.411-.411v-5.806a.412.412,0,0,1,.411-.411h5.806a.412.412,0,0,1,.411.411Z" transform="translate(-95.348 -205.503)"/>
            <path id="Path_1241777" data-name="Path 1241777" d="M109.921,348.857h-5.806a1.921,1.921,0,0,0-1.918,1.918v5.806a1.921,1.921,0,0,0,1.918,1.918h5.806a1.921,1.921,0,0,0,1.918-1.918v-5.806A1.921,1.921,0,0,0,109.921,348.857Zm.411,7.724a.412.412,0,0,1-.411.411h-5.806a.412.412,0,0,1-.411-.411v-5.806a.412.412,0,0,1,.411-.411h5.806a.412.412,0,0,1,.411.411Z" transform="translate(-95.348 -313.811)"/>
            <path id="Path_1241778" data-name="Path 1241778" d="M77.341,12.891l-1.2-.757a2.751,2.751,0,0,0-3.8.853l-1.1,1.733-1.523,2.406-1.722,2.722V8.535a1.414,1.414,0,0,0-1.413-1.413h-5.4V5.615h7.23a1.092,1.092,0,0,1,1.091,1.091v6.527a.754.754,0,0,0,1.507,0V6.706a2.6,2.6,0,0,0-2.6-2.6H61.037a2.057,2.057,0,0,0-1.9-1.271H57.192V2.078A2.08,2.08,0,0,0,55.114,0H49.927a2.08,2.08,0,0,0-2.078,2.078v.759H45.9A2.057,2.057,0,0,0,44,4.108H36.618a2.6,2.6,0,0,0-2.6,2.6V48.837a2.6,2.6,0,0,0,2.6,2.6h31.8a2.6,2.6,0,0,0,2.6-2.6v-16.9a.754.754,0,1,0-1.507,0v16.9a1.092,1.092,0,0,1-1.091,1.091h-31.8a1.092,1.092,0,0,1-1.091-1.091V6.706a1.092,1.092,0,0,1,1.091-1.091h7.23V7.122h-5.4a1.414,1.414,0,0,0-1.413,1.413V47.007a1.414,1.414,0,0,0,1.413,1.413H66.593a1.414,1.414,0,0,0,1.413-1.413V32.785l7.568-11.958h0L77.1,18.421l1.1-1.734a2.755,2.755,0,0,0-.853-3.8Zm-2.941.353a1.234,1.234,0,0,1,.938.163l1.2.758a1.245,1.245,0,0,1,.386,1.716l-.694,1.1-3.3-2.089.694-1.1a1.235,1.235,0,0,1,.779-.549ZM60.127,42.417a5.073,5.073,0,0,1-.477.636,5.3,5.3,0,0,0-.8-.858L72.891,20.021l1.006.637Zm-5.146,4.495-.014-.005h0l1.065-4.422a3.794,3.794,0,0,1,2.488,1.576c-3.99,3.215-3.481,2.8-3.538,2.851Zm17.141-30.75,3.3,2.089L74.7,19.384,71.4,17.3ZM45.355,4.908c0-.009,0-.018,0-.028s0-.006,0-.01a.547.547,0,0,1,.546-.526h2.159a1.3,1.3,0,0,0,1.3-1.3V2.078a.571.571,0,0,1,.571-.571h5.187a.571.571,0,0,1,.571.571v.971a1.3,1.3,0,0,0,1.3,1.3h2.159a.547.547,0,0,1,.546.526s0,.006,0,.01,0,.018,0,.028V7.122H45.355ZM38.542,8.629H66.5v13.6L58.611,34.693a.754.754,0,1,0,1.274.806L70.6,18.569l1.019.645L57.575,41.39a5.292,5.292,0,0,0-1.118-.357,5.1,5.1,0,0,1,.371-.7L58,38.477a.754.754,0,1,0-1.274-.806l-1.171,1.851a6.575,6.575,0,0,0-.839,1.981h0L53.5,46.542a1.564,1.564,0,0,0-.044.371H38.542ZM66.5,46.913H57.382l2.587-2.084A6.573,6.573,0,0,0,61.4,43.224l5.1-8.057Z" transform="translate(-34.02 0)"/>
          </g>
        </g>
      </g>
    </g>
  </g>
</svg>
