<svg xmlns="http://www.w3.org/2000/svg" width="76.246" height="76.246" viewBox="0 0 76.246 76.246">
  <g id="Group_1099780" data-name="Group 1099780" transform="translate(-762 -3829)">
    <g id="Group_1099774" data-name="Group 1099774" transform="translate(319.949 -1970)">
      <g id="Group_1099706" data-name="Group 1099706" transform="translate(-331 4913)">
        <g id="Group_1099486" data-name="Group 1099486" transform="translate(-245.949 -5878)">
          <g id="Group_1098742" data-name="Group 1098742" transform="translate(1019 6764)">
            <rect id="Rectangle_400898" data-name="Rectangle 400898" width="76.246" height="76.246" rx="38.123" transform="translate(0 0)" fill="#d0c110"/>
            <rect id="Rectangle_400907" data-name="Rectangle 400907" width="76.246" height="76.246" rx="38.123" transform="translate(0 0)" fill="none"/>
          </g>
        </g>
      </g>
    </g>
    <g id="_10._Triangle_Ruler" data-name="10. Triangle Ruler" transform="translate(773.626 3841.006)">
      <path id="Path_1242044" data-name="Path 1242044" d="M8,50.392H50.392V8Zm34.187-8.2a9.67,9.67,0,0,1-13.675,0L27.145,40.82,40.82,27.145l1.367,1.367A9.669,9.669,0,0,1,42.187,42.187Z" transform="translate(-7.322 -7.322)" fill="#a8edfd"/>
      <path id="Path_1242045" data-name="Path 1242045" d="M8,482.051H50.392V480H10.051Z" transform="translate(-7.322 -438.981)" fill="#8bd4de"/>
      <path id="Path_1242046" data-name="Path 1242046" d="M379.62,38.968a.684.684,0,0,1-.684-.684V2.328L369.163,12.1a.684.684,0,0,1-.967-.968L379.136.194A.684.684,0,0,1,380.3.678V38.284A.684.684,0,0,1,379.62,38.968Z" transform="translate(-336.549 0)"/>
      <path id="Path_1242047" data-name="Path 1242047" d="M43.07,182.765H.678A.684.684,0,0,1,.194,181.6l29.4-29.4a.684.684,0,1,1,.968.967L2.328,181.4H42.386V180.03a.684.684,0,0,1,1.367,0v2.051A.684.684,0,0,1,43.07,182.765Z" transform="translate(0 -139.011)"/>
      <path id="Path_1242048" data-name="Path 1242048" d="M225.562,240.2l-1.368-1.367a.684.684,0,0,1,0-.967l13.675-13.675a.684.684,0,0,1,.967,0l1.367,1.368A10.354,10.354,0,0,1,225.562,240.2Zm.085-1.851.885.884a8.985,8.985,0,1,0,12.705-12.708l-.884-.884Z" transform="translate(-204.855 -204.855)"/>
      <path id="Path_1242049" data-name="Path 1242049" d="M456,56l1.368,1.367" transform="translate(-417.032 -51.22)" fill="#fff"/>
      <path id="Path_1242050" data-name="Path 1242050" d="M450.047,50.731a.684.684,0,0,1-.484-.2L448.2,49.163a.684.684,0,0,1,.967-.968l1.367,1.368a.684.684,0,0,1-.484,1.167Z" transform="translate(-409.712 -43.899)"/>
      <path id="Path_1242051" data-name="Path 1242051" d="M416,96l2.051,2.051" transform="translate(-380.451 -87.801)" fill="#fff"/>
      <path id="Path_1242052" data-name="Path 1242052" d="M410.731,91.415a.684.684,0,0,1-.484-.2L408.2,89.163a.684.684,0,0,1,.967-.967l2.051,2.051a.684.684,0,0,1-.484,1.168Z" transform="translate(-373.131 -80.481)"/>
      <path id="Path_1242053" data-name="Path 1242053" d="M376,136l1.367,1.367" transform="translate(-343.87 -124.382)" fill="#fff"/>
      <path id="Path_1242054" data-name="Path 1242054" d="M370.047,130.731a.684.684,0,0,1-.484-.2l-1.367-1.368a.684.684,0,0,1,.967-.967l1.367,1.367a.684.684,0,0,1-.484,1.167Z" transform="translate(-336.549 -117.062)"/>
      <path id="Path_1242055" data-name="Path 1242055" d="M336,176l2.051,2.051" transform="translate(-307.289 -160.964)" fill="#fff"/>
      <path id="Path_1242056" data-name="Path 1242056" d="M330.731,171.415a.684.684,0,0,1-.484-.2l-2.051-2.051a.684.684,0,1,1,.967-.967l2.051,2.051a.684.684,0,0,1-.484,1.167Z" transform="translate(-299.968 -153.643)"/>
      <path id="Path_1242057" data-name="Path 1242057" d="M296,216l1.367,1.367" transform="translate(-270.707 -197.545)" fill="#fff"/>
      <path id="Path_1242058" data-name="Path 1242058" d="M290.047,210.731a.684.684,0,0,1-.484-.2l-1.367-1.368a.684.684,0,1,1,.967-.967l1.367,1.367a.684.684,0,0,1-.484,1.168Z" transform="translate(-263.387 -190.224)"/>
      <path id="Path_1242059" data-name="Path 1242059" d="M256,256l2.051,2.051" transform="translate(-234.126 -234.126)" fill="#fff"/>
      <path id="Path_1242060" data-name="Path 1242060" d="M250.731,251.415a.684.684,0,0,1-.484-.2l-2.051-2.051a.684.684,0,0,1,.967-.967l2.051,2.051a.684.684,0,0,1-.484,1.167Z" transform="translate(-226.806 -226.806)"/>
      <path id="Path_1242061" data-name="Path 1242061" d="M216,296l1.367,1.367" transform="translate(-197.545 -270.707)" fill="#fff"/>
      <path id="Path_1242062" data-name="Path 1242062" d="M210.047,290.731a.684.684,0,0,1-.484-.2l-1.367-1.367a.684.684,0,1,1,.967-.967l1.368,1.367a.684.684,0,0,1-.484,1.167Z" transform="translate(-190.224 -263.387)"/>
      <path id="Path_1242063" data-name="Path 1242063" d="M176,336l2.051,2.051" transform="translate(-160.964 -307.289)" fill="#fff"/>
      <path id="Path_1242064" data-name="Path 1242064" d="M170.731,331.415a.684.684,0,0,1-.484-.2l-2.051-2.051a.684.684,0,1,1,.967-.967l2.051,2.051a.684.684,0,0,1-.484,1.168Z" transform="translate(-153.643 -299.968)"/>
      <path id="Path_1242065" data-name="Path 1242065" d="M136,376l1.367,1.367" transform="translate(-124.382 -343.87)" fill="#fff"/>
      <path id="Path_1242066" data-name="Path 1242066" d="M130.047,370.731a.684.684,0,0,1-.484-.2l-1.367-1.368a.684.684,0,0,1,.967-.967l1.368,1.367a.684.684,0,0,1-.484,1.168Z" transform="translate(-117.062 -336.549)"/>
      <path id="Path_1242067" data-name="Path 1242067" d="M96,416l2.051,2.051" transform="translate(-87.801 -380.451)" fill="#fff"/>
      <path id="Path_1242068" data-name="Path 1242068" d="M90.731,411.415a.684.684,0,0,1-.484-.2L88.2,409.163a.684.684,0,0,1,.967-.967l2.051,2.051a.684.684,0,0,1-.484,1.167Z" transform="translate(-80.481 -373.131)"/>
      <path id="Path_1242069" data-name="Path 1242069" d="M56,456l1.367,1.368" transform="translate(-51.22 -417.032)" fill="#fff"/>
      <path id="Path_1242070" data-name="Path 1242070" d="M50.047,450.731a.684.684,0,0,1-.484-.2L48.2,449.163a.684.684,0,0,1,.968-.967l1.367,1.367a.684.684,0,0,1-.484,1.168Z" transform="translate(-43.899 -409.712)"/>
    </g>
  </g>
</svg>
