<svg xmlns="http://www.w3.org/2000/svg" width="76.246" height="76.246" viewBox="0 0 76.246 76.246">
  <g id="Group_1099678" data-name="Group 1099678" transform="translate(6533.27 10722)">
    <g id="Group_1099491" data-name="Group 1099491" transform="translate(-7552.27 -17486)">
      <g id="Group_1098742" data-name="Group 1098742" transform="translate(1019 6764)">
        <rect id="Rectangle_400898" data-name="Rectangle 400898" width="76.246" height="76.246" rx="38.123" transform="translate(0 0)" fill="#d0c110"/>
        <rect id="Rectangle_400907" data-name="Rectangle 400907" width="76.246" height="76.246" rx="38.123" transform="translate(0 0)" fill="none"/>
      </g>
    </g>
    <g id="insumos" transform="translate(-6513.697 -10706)">
      <path id="Path_1241779" data-name="Path 1241779" d="M352,23.011V14.136a4.136,4.136,0,0,1,8.272,0v7.152a1.723,1.723,0,0,1-1.723,1.723Zm0,0" transform="translate(-321.667 -9.138)" fill="#feda9b"/>
      <path id="Path_1241780" data-name="Path 1241780" d="M43.6,10H14.136A4.136,4.136,0,0,0,10,14.136V46.016a1.723,1.723,0,0,0,1.723,1.723H39.468v-33.6A4.136,4.136,0,0,1,43.6,10" transform="translate(-9.138 -9.138)" fill="#fff"/>
      <path id="Path_1241781" data-name="Path 1241781" d="M245.439,212.043,244.171,209a8.723,8.723,0,0,1-.671-3.355v-6.681a1.828,1.828,0,0,1,3.561-.578l1.3,3.9a2.3,2.3,0,0,0,4.488-.728V184.7l2.622,2.617a11.715,11.715,0,0,1,3.438,8.291v9.159a16.974,16.974,0,0,1-1.637,7.272" transform="translate(-222.519 -168.788)" fill="#ffd0bb"/>
      <g id="Group_1099677" data-name="Group 1099677" transform="translate(5.486 5.515)">
        <path id="Path_1241782" data-name="Path 1241782" d="M68.321,69.515H64.53a.862.862,0,0,1-.862-.862V64.862A.862.862,0,0,1,64.53,64h3.791a.862.862,0,0,1,.862.862v3.791A.862.862,0,0,1,68.321,69.515Zm0,0" transform="translate(-63.668 -64)" fill="#36d28f"/>
        <path id="Path_1241783" data-name="Path 1241783" d="M68.321,189.515H64.53a.862.862,0,0,1-.862-.862v-3.791A.862.862,0,0,1,64.53,184h3.791a.862.862,0,0,1,.862.862v3.791A.862.862,0,0,1,68.321,189.515Zm0,0" transform="translate(-63.668 -173.66)" fill="#36d28f"/>
        <path id="Path_1241784" data-name="Path 1241784" d="M68.321,309.514H64.53a.862.862,0,0,1-.862-.862v-3.791A.862.862,0,0,1,64.53,304h3.791a.862.862,0,0,1,.862.862v3.791A.862.862,0,0,1,68.321,309.514Zm0,0" transform="translate(-63.668 -283.321)" fill="#36d28f"/>
      </g>
      <path id="Path_1241785" data-name="Path 1241785" d="M34.465,0H5A5,5,0,0,0,0,5V36.878a2.588,2.588,0,0,0,2.585,2.585H13.9a.862.862,0,1,0,0-1.723H2.585a.862.862,0,0,1-.862-.862V5A3.278,3.278,0,0,1,5,1.723h25.7A4.976,4.976,0,0,0,29.468,5V32.765a1.442,1.442,0,0,1-2.809.456l-1.3-3.9a2.689,2.689,0,0,0-5.241.85v.671H15.653a.862.862,0,0,0,0,1.723h4.466v4.287a9.534,9.534,0,0,0,.737,3.687l1.268,3.042a.862.862,0,1,0,1.591-.663l-1.268-3.042a7.823,7.823,0,0,1-.6-3.024V30.176a.966.966,0,0,1,1.882-.306l1.3,3.9a3.165,3.165,0,0,0,6.167-1V17.993l1.151,1.149a10.78,10.78,0,0,1,3.186,7.681v9.159a16.214,16.214,0,0,1-1.554,6.9.862.862,0,0,0,1.557.738,17.948,17.948,0,0,0,1.72-7.642V26.822a12.492,12.492,0,0,0-3.692-8.9l-2.369-2.364v-.823h5.687a2.588,2.588,0,0,0,2.585-2.585V5A5,5,0,0,0,34.465,0ZM37.74,12.149a.863.863,0,0,1-.862.862H31.191V5A3.274,3.274,0,1,1,37.74,5Zm0,0"/>
      <path id="Path_1241786" data-name="Path 1241786" d="M195.862,438a.862.862,0,1,0,.609.252A.868.868,0,0,0,195.862,438Zm0,0" transform="translate(-178.198 -400.256)"/>
      <path id="Path_1241787" data-name="Path 1241787" d="M60.906,55.723A1.725,1.725,0,0,0,59.182,54H55.391a1.725,1.725,0,0,0-1.723,1.723v3.791a1.725,1.725,0,0,0,1.723,1.723h3.791a1.725,1.725,0,0,0,1.723-1.723Zm-1.723,3.791H55.391V55.723h3.791v3.791Zm0,0" transform="translate(-49.044 -49.347)"/>
      <path id="Path_1241788" data-name="Path 1241788" d="M60.906,175.723A1.725,1.725,0,0,0,59.182,174H55.391a1.725,1.725,0,0,0-1.723,1.723v3.791a1.725,1.725,0,0,0,1.723,1.723h3.791a1.725,1.725,0,0,0,1.723-1.723Zm-1.723,3.791H55.391v-3.791h3.791v3.791Zm0,0" transform="translate(-49.044 -159.007)"/>
      <path id="Path_1241789" data-name="Path 1241789" d="M59.182,294H55.391a1.725,1.725,0,0,0-1.723,1.723v3.791a1.725,1.725,0,0,0,1.723,1.723h3.791a1.725,1.725,0,0,0,1.723-1.723v-3.791A1.725,1.725,0,0,0,59.182,294Zm0,5.514H55.391v-3.791h3.791v3.791Zm0,0" transform="translate(-49.044 -268.668)"/>
      <path id="Path_1241790" data-name="Path 1241790" d="M224.2,119.723a.862.862,0,0,0,0-1.723h-5.94a.862.862,0,1,0,0,1.723Zm0,0" transform="translate(-198.663 -107.833)"/>
      <path id="Path_1241791" data-name="Path 1241791" d="M172.53,119.723a.862.862,0,1,0-.609-.252A.868.868,0,0,0,172.53,119.723Zm0,0" transform="translate(-156.876 -107.833)"/>
      <path id="Path_1241792" data-name="Path 1241792" d="M172.526,239.723h9.88a.862.862,0,0,0,0-1.723h-9.88a.862.862,0,1,0,0,1.723Zm0,0" transform="translate(-156.873 -217.493)"/>
    </g>
  </g>
</svg>
