<svg xmlns="http://www.w3.org/2000/svg" width="76.246" height="76.246" viewBox="0 0 76.246 76.246">
  <g id="Group_1099692" data-name="Group 1099692" transform="translate(702 -1608)">
    <g id="Group_1099631" data-name="Group 1099631" transform="translate(-1721 -5156)">
      <g id="Group_1098742" data-name="Group 1098742" transform="translate(1019 6764)">
        <rect id="Rectangle_400898" data-name="Rectangle 400898" width="76.246" height="76.246" rx="38.123" transform="translate(0 0)" fill="#d0c110"/>
        <rect id="Rectangle_400907" data-name="Rectangle 400907" width="76.246" height="76.246" rx="38.123" transform="translate(0 0)" fill="none"/>
      </g>
    </g>
    <g id="beans_1919436" transform="translate(-687.593 1622.407)">
      <path id="Path_1241858" data-name="Path 1241858" d="M23.581,0A23.581,23.581,0,1,0,47.162,23.581,23.607,23.607,0,0,0,23.581,0Zm0,45.688A22.107,22.107,0,1,1,45.688,23.581,22.132,22.132,0,0,1,23.581,45.688Z"/>
      <path id="Path_1241859" data-name="Path 1241859" d="M24.37,3A21.37,21.37,0,1,0,45.74,24.37,21.394,21.394,0,0,0,24.37,3Zm0,1.474A19.927,19.927,0,0,1,43.135,17.767a2.938,2.938,0,0,0-2.553-1.5H39.108a2.92,2.92,0,0,0-1.9.711,2.911,2.911,0,0,0-.286-.4,2.938,2.938,0,0,0-1.5-5.47H33.95a2.923,2.923,0,0,0-1.9.71,2.937,2.937,0,0,0-.287-.4,2.939,2.939,0,0,0-1.5-5.47H28.791a2.925,2.925,0,0,0-1.9.71,2.923,2.923,0,0,0-5.046,0,2.923,2.923,0,0,0-1.9-.71H18.476a2.939,2.939,0,0,0-1.5,5.47,3,3,0,0,0-.287.4,2.923,2.923,0,0,0-1.9-.71H13.317a2.939,2.939,0,0,0-1.5,5.47,3.03,3.03,0,0,0-.285.4,2.923,2.923,0,0,0-1.9-.71H8.159A2.939,2.939,0,0,0,5.6,17.77,19.928,19.928,0,0,1,24.37,4.474ZM40.582,31H39.108a1.474,1.474,0,1,1,0-2.948h1.474a1.474,1.474,0,1,1,0,2.948Zm-5.158,5.155H33.951a1.474,1.474,0,1,1,0-2.948h.707c.01,0,.018,0,.029,0s.018,0,.029,0h.709a1.474,1.474,0,1,1,0,2.948Zm-5.16,5.158H28.791a1.475,1.475,0,0,1-1.472-1.459v-.029a1.474,1.474,0,0,1,1.472-1.459h.71c.01,0,.018,0,.029,0s.018,0,.029,0h.707a1.473,1.473,0,1,1,0,2.947Zm-10.314,0H18.476a1.474,1.474,0,1,1,0-2.948h.707c.01,0,.018,0,.029,0s.018,0,.029,0h.709a1.475,1.475,0,0,1,1.473,1.466v.015a1.475,1.475,0,0,1-1.473,1.466Zm-5.159-5.158H13.317a1.474,1.474,0,1,1,0-2.948h.707c.01,0,.018,0,.029,0s.018,0,.029,0h.71a1.474,1.474,0,1,1,0,2.948ZM9.633,31H8.159a1.474,1.474,0,0,1,0-2.948H9.633a1.475,1.475,0,0,1,1.472,1.459v.029A1.475,1.475,0,0,1,9.633,31ZM8.159,17.738H9.633A1.475,1.475,0,0,1,11.105,19.2v.029a1.475,1.475,0,0,1-1.472,1.46H8.159a1.474,1.474,0,0,1,0-2.948Zm5.158-5.155H14.79a1.474,1.474,0,1,1,0,2.948h-.709c-.01,0-.018,0-.029,0s-.018,0-.029,0h-.707a1.474,1.474,0,1,1,0-2.948Zm5.16-5.158H19.95a1.475,1.475,0,0,1,1.472,1.459v.029a1.474,1.474,0,0,1-1.472,1.459h-.71c-.01,0-.018,0-.029,0s-.018,0-.029,0h-.707a1.474,1.474,0,1,1,0-2.948Zm10.314,0h1.474a1.474,1.474,0,1,1,0,2.948h-.707c-.01,0-.018,0-.029,0s-.018,0-.029,0h-.709a1.475,1.475,0,0,1-1.473-1.466V8.891a1.475,1.475,0,0,1,1.473-1.466Zm5.159,5.158h1.474a1.474,1.474,0,1,1,0,2.948h-.708c-.01,0-.018,0-.029,0s-.018,0-.029,0H33.95a1.474,1.474,0,1,1,0-2.948Zm7.369,12.525a1.475,1.475,0,0,1-1.466,1.473h-.015a1.475,1.475,0,0,1-1.466-1.473V23.634a1.474,1.474,0,1,1,2.948,0Zm-33.9-1.474a1.474,1.474,0,1,1,2.948,0v1.474A1.475,1.475,0,0,1,8.9,26.581H8.888a1.475,1.475,0,0,1-1.466-1.473Zm28,2.214h-.7c-.012,0-.023,0-.035,0s-.024,0-.035,0h-.7a1.474,1.474,0,1,1,0-2.948h1.474a1.474,1.474,0,1,1,0,2.948ZM30.265,31H28.791a1.475,1.475,0,0,1-1.473-1.466v-.015a1.475,1.475,0,0,1,1.473-1.466h1.474a1.474,1.474,0,1,1,0,2.948ZM18.476,31a1.474,1.474,0,0,1,0-2.948H19.95a1.475,1.475,0,0,1,1.472,1.459v.029A1.475,1.475,0,0,1,19.95,31Zm-4.424-5.158c-.013,0-.024,0-.035,0h-.7a1.474,1.474,0,1,1,0-2.948H14.79a1.474,1.474,0,1,1,0,2.948h-.7C14.076,25.848,14.065,25.844,14.053,25.844Zm4.424-8.106H19.95A1.475,1.475,0,0,1,21.423,19.2v.029a1.475,1.475,0,0,1-1.472,1.46H18.476a1.474,1.474,0,1,1,0-2.948Zm11.788,0a1.474,1.474,0,1,1,0,2.948H28.791a1.475,1.475,0,0,1-1.473-1.466V19.2a1.475,1.475,0,0,1,1.473-1.466Zm-5.923,14A1.474,1.474,0,0,1,22.9,30.265v-.722c0-.005,0-.01,0-.015s0-.01,0-.015v-.722a1.474,1.474,0,0,1,1.438-1.47h.071a1.474,1.474,0,0,1,1.438,1.47v.73s0,.005,0,.007,0,0,0,.007v.73A1.474,1.474,0,0,1,24.4,31.736Zm-6.6-8.1a1.474,1.474,0,1,1,2.948,0v1.474a1.475,1.475,0,0,1-1.466,1.473H19.2a1.475,1.475,0,0,1-1.466-1.473ZM24.4,17a1.474,1.474,0,0,1,1.445,1.471v.73s0,0,0,.007,0,0,0,.007v.73a1.474,1.474,0,0,1-2.948,0v-.722c0-.005,0-.01,0-.015s0-.01,0-.015v-.722A1.474,1.474,0,0,1,24.341,17Zm.708,8.844h-.7c-.012,0-.023,0-.035,0s-.024,0-.035,0h-.7a1.474,1.474,0,0,1,0-2.948h1.474a1.474,1.474,0,0,1,0,2.948ZM27,22.137a2.949,2.949,0,0,0-.4-.287,2.921,2.921,0,0,0,.289-.4,3.007,3.007,0,0,0,.4.287A2.871,2.871,0,0,0,27,22.137Zm-5.157-.688a2.853,2.853,0,0,0,.289.4,3.015,3.015,0,0,0-.4.287,2.916,2.916,0,0,0-.288-.4A2.892,2.892,0,0,0,21.847,21.449Zm-.113,5.161a3.036,3.036,0,0,0,.4.287,3,3,0,0,0-.284.395,2.994,2.994,0,0,0-.4-.287,2.873,2.873,0,0,0,.285-.395Zm5.16.682a3,3,0,0,0-.285-.395,2.969,2.969,0,0,0,.4-.287,2.873,2.873,0,0,0,.285.395A2.834,2.834,0,0,0,26.894,27.291Zm2.627-.71a1.475,1.475,0,0,1-1.466-1.473V23.634a1.474,1.474,0,1,1,2.948,0v1.474a1.475,1.475,0,0,1-1.466,1.473Zm2.532-4.444a2.824,2.824,0,0,0-.289-.4,3.007,3.007,0,0,0,.4-.287,2.872,2.872,0,0,0,.29.4,2.843,2.843,0,0,0-.4.287Zm-5.16-5.162a2.836,2.836,0,0,0-.285-.4,3,3,0,0,0,.4-.287,2.91,2.91,0,0,0,.286.4A2.892,2.892,0,0,0,26.893,16.975Zm-1.786-4.392a1.474,1.474,0,0,1,0,2.948H24.4c-.01,0-.018,0-.029,0s-.018,0-.029,0h-.708a1.474,1.474,0,0,1,0-2.948Zm-3.373,3.71a3,3,0,0,0,.4.287,2.853,2.853,0,0,0-.285.4,2.937,2.937,0,0,0-.4-.287,2.957,2.957,0,0,0,.286-.4Zm-5.157,5.155a2.947,2.947,0,0,0,.4.288,2.974,2.974,0,0,0-.289.4,3.027,3.027,0,0,0-.4-.288A2.85,2.85,0,0,0,16.577,21.447Zm.112,5.163a2.9,2.9,0,0,0,.286.4,2.894,2.894,0,0,0-.4.288,2.91,2.91,0,0,0-.286-.4A3.068,3.068,0,0,0,16.689,26.61Zm5.158,5.156a2.9,2.9,0,0,0,.285.4,2.969,2.969,0,0,0-.4.287,2.886,2.886,0,0,0-.286-.4A2.884,2.884,0,0,0,21.847,31.766Zm1.787,4.392a1.474,1.474,0,1,1,0-2.948h.707c.01,0,.018,0,.029,0s.018,0,.029,0h.709a1.474,1.474,0,1,1,0,2.948Zm3.373-3.71a2.982,2.982,0,0,0-.4-.287,3.073,3.073,0,0,0,.285-.395,3.018,3.018,0,0,0,.4.287A2.846,2.846,0,0,0,27.007,32.448Zm5.156-5.156a2.994,2.994,0,0,0-.4-.287,3.016,3.016,0,0,0,.286-.4,3.036,3.036,0,0,0,.4.287A2.9,2.9,0,0,0,32.163,27.292Zm4-7.343a1.474,1.474,0,0,1-2.948,0V18.475A1.474,1.474,0,0,1,34.658,17h.057a1.474,1.474,0,0,1,1.445,1.471Zm-4-2.973a3.048,3.048,0,0,0-.4-.287,2.975,2.975,0,0,0,.286-.4,3,3,0,0,0,.4.287A2.957,2.957,0,0,0,32.163,16.975ZM31,14.79a1.474,1.474,0,0,1-2.948,0V13.317A1.474,1.474,0,0,1,29.5,11.846h.057A1.474,1.474,0,0,1,31,13.317Zm-4.109-3.655a2.964,2.964,0,0,0,.4.286,2.885,2.885,0,0,0-.287.4,3.036,3.036,0,0,0-.4-.287A2.922,2.922,0,0,0,26.893,11.135Zm-5.046,0a2.877,2.877,0,0,0,.287.4,2.969,2.969,0,0,0-.4.287,2.924,2.924,0,0,0-.286-.4,2.91,2.91,0,0,0,.4-.286Zm-2.606.71a1.474,1.474,0,0,1,1.445,1.471V14.79a1.474,1.474,0,0,1-2.948,0V13.317a1.474,1.474,0,0,1,1.445-1.471Zm-2.551,4.446a2.969,2.969,0,0,0,.287.4,2.947,2.947,0,0,0-.4.288,2.877,2.877,0,0,0-.287-.4A3.031,3.031,0,0,0,16.689,16.292ZM14.082,17a1.474,1.474,0,0,1,1.445,1.471v1.474a1.474,1.474,0,1,1-2.948,0v-.722c0-.005,0-.01,0-.015s0-.01,0-.015v-.722A1.474,1.474,0,0,1,14.024,17ZM11.53,21.449a2.921,2.921,0,0,0,.289.4,2.942,2.942,0,0,0-.4.287,2.916,2.916,0,0,0-.288-.4A3,3,0,0,0,11.53,21.449Zm-.112,5.161a2.98,2.98,0,0,0,.4.287,2.95,2.95,0,0,0-.284.395,3.036,3.036,0,0,0-.4-.287,2.874,2.874,0,0,0,.285-.395Zm1.161,2.934c0-.005,0-.01,0-.015s0-.01,0-.015v-.722a1.474,1.474,0,0,1,1.438-1.47h.071a1.474,1.474,0,0,1,1.438,1.47v1.474a1.474,1.474,0,0,1-1.445,1.471h-.057a1.474,1.474,0,0,1-1.445-1.471Zm4,2.22a2.947,2.947,0,0,0,.4.288,3.023,3.023,0,0,0-.286.4,2.942,2.942,0,0,0-.4-.287,2.917,2.917,0,0,0,.286-.4Zm1.161,2.186a1.474,1.474,0,1,1,2.948,0v1.474a1.474,1.474,0,0,1-1.445,1.471h-.057a1.474,1.474,0,0,1-1.445-1.471ZM21.847,37.6a2.967,2.967,0,0,0-.4-.286,2.99,2.99,0,0,0,.286-.4,3.036,3.036,0,0,0,.4.287A2.927,2.927,0,0,0,21.847,37.6Zm5.047,0a2.877,2.877,0,0,0-.287-.4,2.969,2.969,0,0,0,.4-.287,2.924,2.924,0,0,0,.286.4,2.927,2.927,0,0,0-.4.286Zm2.606-.71a1.474,1.474,0,0,1-1.445-1.471V33.95a1.474,1.474,0,0,1,2.948,0v1.474a1.474,1.474,0,0,1-1.445,1.471Zm2.551-4.446a2.853,2.853,0,0,0-.287-.4,2.929,2.929,0,0,0,.4-.287,2.91,2.91,0,0,0,.286.4A2.988,2.988,0,0,0,32.052,32.448Zm2.606-.712a1.474,1.474,0,0,1-1.445-1.471V28.792a1.474,1.474,0,0,1,1.438-1.47h.071a1.474,1.474,0,0,1,1.438,1.47v1.474a1.474,1.474,0,0,1-1.445,1.471Zm2.553-4.444a2.961,2.961,0,0,0-.285-.4,2.969,2.969,0,0,0,.4-.287,2.89,2.89,0,0,0,.285.395A2.882,2.882,0,0,0,37.211,27.292Zm.11-5.155a2.95,2.95,0,0,0-.4-.287,2.926,2.926,0,0,0,.29-.4,3.007,3.007,0,0,0,.4.287A2.816,2.816,0,0,0,37.32,22.137ZM25.844,8.891s0,0,0,.007,0,0,0,.007v.73a1.474,1.474,0,0,1-2.948,0V8.913c0-.005,0-.01,0-.015s0-.01,0-.015V8.161a1.474,1.474,0,1,1,2.948,0ZM22.9,39.849s0-.005,0-.007,0,0,0-.007v-.73a1.474,1.474,0,0,1,2.948,0v.722c0,.005,0,.01,0,.015s0,.01,0,.015v.722a1.474,1.474,0,0,1-2.948,0ZM40.582,20.686H39.108a1.474,1.474,0,0,1,0-2.948h1.474a1.474,1.474,0,0,1,0,2.948ZM5.242,18.909a2.737,2.737,0,0,0-.031.3,2.94,2.94,0,0,0,1.448,2.524,2.919,2.919,0,0,0-.712,1.9v1.474a2.921,2.921,0,0,0,.711,1.9,2.937,2.937,0,0,0-1.447,2.523,2.756,2.756,0,0,0,.031.3,19.786,19.786,0,0,1,0-10.922ZM24.37,44.266A19.928,19.928,0,0,1,5.6,30.97a2.938,2.938,0,0,0,2.556,1.506H9.633a2.919,2.919,0,0,0,1.9-.71,2.962,2.962,0,0,0,.285.4,2.939,2.939,0,0,0,1.5,5.47h1.474a2.919,2.919,0,0,0,1.9-.71,2.937,2.937,0,0,0,.287.4,2.939,2.939,0,0,0,1.5,5.47H19.95a2.917,2.917,0,0,0,1.9-.71,2.924,2.924,0,0,0,5.047,0,2.919,2.919,0,0,0,1.9.71h1.474a2.939,2.939,0,0,0,1.5-5.47,3,3,0,0,0,.287-.4,2.919,2.919,0,0,0,1.9.71h1.474a2.939,2.939,0,0,0,1.5-5.471,3.029,3.029,0,0,0,.285-.4,2.921,2.921,0,0,0,1.9.711h1.474a2.937,2.937,0,0,0,2.553-1.5A19.928,19.928,0,0,1,24.37,44.266ZM43.5,29.827a2.823,2.823,0,0,0,.03-.3A2.94,2.94,0,0,0,42.082,27a2.917,2.917,0,0,0,.71-1.9V23.634a2.919,2.919,0,0,0-.712-1.9,2.937,2.937,0,0,0,1.449-2.524,2.843,2.843,0,0,0-.03-.3,19.792,19.792,0,0,1,0,10.913Z" transform="translate(-0.789 -0.789)"/>
    </g>
  </g>
</svg>
