<svg xmlns="http://www.w3.org/2000/svg" width="76.246" height="76.246" viewBox="0 0 76.246 76.246">
  <g id="Group_1099700" data-name="Group 1099700" transform="translate(-972.051 -2015)">
    <g id="Group_1099699" data-name="Group 1099699" transform="translate(7831.051 12737)">
      <g id="Group_1099490" data-name="Group 1099490" transform="translate(-7878 -17486)">
        <g id="Group_1098742" data-name="Group 1098742" transform="translate(1019 6764)">
          <rect id="Rectangle_400898" data-name="Rectangle 400898" width="76.246" height="76.246" rx="38.123" transform="translate(0 0)" fill="#d0c110"/>
          <rect id="Rectangle_400907" data-name="Rectangle 400907" width="76.246" height="76.246" rx="38.123" transform="translate(0 0)" fill="none"/>
        </g>
      </g>
    </g>
    <g id="pruebas" transform="translate(986.048 1974.441)">
      <path id="Path_1241889" data-name="Path 1241889" d="M133.017,121.113v-.758l.166-.032a.469.469,0,0,0,.384-.462v-1.642l.135-.039a8.65,8.65,0,0,0,1.733-.718l.124-.068,1.161,1.161a.47.47,0,0,0,.6.054,10.651,10.651,0,0,0,2.674-2.675.47.47,0,0,0-.053-.6l-1.16-1.162.068-.124a8.475,8.475,0,0,0,.718-1.732l.039-.136h1.641a.47.47,0,0,0,.463-.386,10.61,10.61,0,0,0,0-3.786.47.47,0,0,0-.463-.386h-1.642l-.039-.135a8.581,8.581,0,0,0-.717-1.731l-.068-.124,1.16-1.16a.47.47,0,0,0,.054-.6,10.623,10.623,0,0,0-2.675-2.678.47.47,0,0,0-.6.054l-1.161,1.161-.124-.068a8.647,8.647,0,0,0-1.733-.718l-.135-.04V99.939a.47.47,0,0,0-.386-.463l-.163-.031V98.322h32v22.791Zm13.808-10.344a.471.471,0,0,0-.47.47v7.513a.471.471,0,0,0,.47.47h7.513a.471.471,0,0,0,.47-.47V111.24a.471.471,0,0,0-.47-.47Zm16.671,3.868V113.7h-6.864v.941Zm0-2.927v-.941h-6.864v.941Zm-16.671-11.5a.471.471,0,0,0-.47.47V108.2a.471.471,0,0,0,.47.47h7.513a.471.471,0,0,0,.47-.47v-7.515a.471.471,0,0,0-.47-.47ZM163.5,104.08v-.941h-6.864v.941Zm0-2.927v-.941h-6.864v.941Z" transform="translate(-120.504 -35.117)" fill="#e9e9ff"/>
      <path id="Path_1241890" data-name="Path 1241890" d="M271.007,377.421h6.039v1.8h-6.039Z" transform="translate(-245.517 -287.968)" fill="#445ea0"/>
      <path id="Path_1241891" data-name="Path 1241891" d="M107.56,99.386a1.3,1.3,0,0,1-1.3-1.3V96.223l.2.011c.2.011.4.017.589.017s.386-.006.589-.017l.2-.011V97.34a.471.471,0,0,0,.47.47h32.937a.471.471,0,0,0,.47-.47V73.608a.471.471,0,0,0-.47-.47H108.3a.471.471,0,0,0-.47.47v1.483l-.2-.011c-.2-.011-.395-.016-.591-.016s-.393.005-.588.016l-.2.011V72.864a1.3,1.3,0,0,1,1.3-1.3h34.425a1.3,1.3,0,0,1,1.3,1.3V98.084a1.3,1.3,0,0,1-1.3,1.3Z" transform="translate(-96.262 -10.874)" fill="#445ea0"/>
      <path id="Path_1241892" data-name="Path 1241892" d="M211.763,409.723V408.13a1.6,1.6,0,0,1,1.6-1.6h13.993a1.6,1.6,0,0,1,1.6,1.6v1.593Z" transform="translate(-191.845 -314.343)" fill="#293d7c"/>
      <path id="Path_1241893" data-name="Path 1241893" d="M65.263,177.2a5.124,5.124,0,1,1,5.123-5.123A5.13,5.13,0,0,1,65.263,177.2Zm-.318-2.121,1.541-5.761-.909-.243-1.541,5.761Zm-3.934-3.332a.471.471,0,0,0,0,.666l1.9,1.9.665-.666-1.567-1.564,1.567-1.567-.665-.665Zm6.6,2.557,1.9-1.9a.471.471,0,0,0,0-.665l-1.9-1.9-.665.665,1.565,1.565-1.565,1.568Z" transform="translate(-54.479 -97.289)" fill="#e9e9ff"/>
      <path id="Path_1241894" data-name="Path 1241894" d="M21.657,138.094a9.707,9.707,0,0,1-1.173-.071l-.165-.02v-1.611a.468.468,0,0,0-.366-.459,7.693,7.693,0,0,1-2.387-.99.47.47,0,0,0-.583.066l-1.138,1.138-.131-.1a9.692,9.692,0,0,1-1.66-1.659l-.1-.131,1.139-1.141a.468.468,0,0,0,.065-.583,7.648,7.648,0,0,1-.99-2.386.468.468,0,0,0-.459-.366H12.1l-.02-.166a9.955,9.955,0,0,1,0-2.345l.02-.166h1.61a.468.468,0,0,0,.459-.366,7.692,7.692,0,0,1,.99-2.387.468.468,0,0,0-.066-.583l-1.138-1.139.1-.131a9.659,9.659,0,0,1,1.66-1.66l.131-.1,1.139,1.139a.471.471,0,0,0,.583.066,7.689,7.689,0,0,1,2.387-.99.468.468,0,0,0,.366-.459v-1.611l.165-.02a9.714,9.714,0,0,1,2.346,0l.165.02v1.611a.468.468,0,0,0,.366.459,7.7,7.7,0,0,1,2.39.99.471.471,0,0,0,.583-.066l1.138-1.138.131.1a9.694,9.694,0,0,1,1.658,1.66l.1.131-1.138,1.139a.468.468,0,0,0-.065.584,7.628,7.628,0,0,1,.989,2.386.468.468,0,0,0,.459.366h1.611l.02.165a9.675,9.675,0,0,1,0,2.346l-.02.165H29.608a.468.468,0,0,0-.459.367,7.524,7.524,0,0,1-.989,2.384.468.468,0,0,0,.064.584l1.139,1.141-.1.131a9.72,9.72,0,0,1-1.658,1.658l-.131.1-1.138-1.138a.47.47,0,0,0-.583-.066,7.7,7.7,0,0,1-2.39.99.468.468,0,0,0-.366.459V138l-.165.02A9.681,9.681,0,0,1,21.657,138.094Zm0-15.718a6.065,6.065,0,1,0,6.064,6.066,6.073,6.073,0,0,0-6.064-6.066Z" transform="translate(-10.874 -53.658)" fill="#0cb4fb"/>
      <path id="Path_1241895" data-name="Path 1241895" d="M284.84,135v-6.574h6.572V135Zm2.066-1.5a.469.469,0,0,0,.357.186h.018a.471.471,0,0,0,.352-.158l2.975-3.356-.7-.624-2.6,2.928-.911-1.2-.749.569Z" transform="translate(-258.049 -62.39)" fill="#43cb8e"/>
      <path id="Path_1241896" data-name="Path 1241896" d="M284.84,247.25v-6.572h6.572v6.572Zm2.012-1.346,1.274-1.274L289.4,245.9l.665-.665-1.274-1.274,1.274-1.274-.665-.665-1.274,1.274-1.274-1.274-.665.665,1.274,1.274-1.274,1.274Z" transform="translate(-258.049 -164.085)" fill="#ed524e"/>
      <path id="Path_1241897" data-name="Path 1241897" d="M17.035,74.784a6.253,6.253,0,1,0-6.252,6.252A6.26,6.26,0,0,0,17.035,74.784Zm-11.189,0a4.936,4.936,0,1,1,4.937,4.935A4.943,4.943,0,0,1,5.847,74.784Zm37.334-8.56H35.94V64.907H43.18Zm2.543-6.665H11.3A2.434,2.434,0,0,0,8.867,61.99v2.182l-.011,0a.658.658,0,0,0-.541.648v1.5a8.8,8.8,0,0,0-1.769.734L5.486,66a.659.659,0,0,0-.841-.076A10.779,10.779,0,0,0,1.92,68.645.658.658,0,0,0,2,69.486l1.061,1.061a8.793,8.793,0,0,0-.734,1.768H.821a.659.659,0,0,0-.648.541,10.97,10.97,0,0,0,0,3.853.658.658,0,0,0,.648.541h1.5a8.765,8.765,0,0,0,.734,1.769L1.995,80.083a.658.658,0,0,0-.075.841,10.8,10.8,0,0,0,2.725,2.722.658.658,0,0,0,.841-.076l1.061-1.061a8.8,8.8,0,0,0,1.769.734v1.5a.659.659,0,0,0,.541.648l.011,0V87.21A2.434,2.434,0,0,0,11.3,89.641H24.361v1.421H21.514a2.728,2.728,0,0,0-2.725,2.725V95.85a.659.659,0,0,0,.658.659H37.574a.658.658,0,0,0,.658-.659V93.787a2.728,2.728,0,0,0-2.725-2.725h-2.85V89.641H45.723a2.434,2.434,0,0,0,2.431-2.431V61.99a2.434,2.434,0,0,0-2.431-2.431ZM9.12,82.092a7.5,7.5,0,0,1-2.329-.966.658.658,0,0,0-.816.092L4.955,82.239a9.48,9.48,0,0,1-1.628-1.626l1.021-1.023a.659.659,0,0,0,.091-.817,7.464,7.464,0,0,1-.965-2.328.658.658,0,0,0-.642-.512H1.388a9.765,9.765,0,0,1,0-2.3H2.831a.658.658,0,0,0,.642-.512,7.5,7.5,0,0,1,.966-2.329.658.658,0,0,0-.092-.816L3.327,68.955a9.448,9.448,0,0,1,1.628-1.628l1.021,1.021a.659.659,0,0,0,.816.092,7.5,7.5,0,0,1,2.329-.966.659.659,0,0,0,.512-.642V65.387a9.529,9.529,0,0,1,2.3,0v1.444a.658.658,0,0,0,.512.642,7.511,7.511,0,0,1,2.331.966.659.659,0,0,0,.816-.092l1.02-1.02a9.482,9.482,0,0,1,1.626,1.628l-1.021,1.021a.658.658,0,0,0-.091.817,7.44,7.44,0,0,1,.965,2.327.658.658,0,0,0,.642.512h1.444a9.485,9.485,0,0,1,0,2.3H18.734a.659.659,0,0,0-.642.514,7.338,7.338,0,0,1-.964,2.325.658.658,0,0,0,.09.818l1.021,1.023a9.511,9.511,0,0,1-1.626,1.626l-1.02-1.02a.658.658,0,0,0-.816-.092,7.508,7.508,0,0,1-2.331.966.659.659,0,0,0-.512.642v1.444a9.529,9.529,0,0,1-2.3,0V82.733A.658.658,0,0,0,9.12,82.092Zm10.45-2.009L18.51,79.02a8.643,8.643,0,0,0,.734-1.77h1.5a.659.659,0,0,0,.648-.541,10.8,10.8,0,0,0,0-3.853.658.658,0,0,0-.648-.541h-1.5a8.748,8.748,0,0,0-.733-1.769l1.06-1.06a.658.658,0,0,0,.076-.841,10.81,10.81,0,0,0-2.722-2.725.658.658,0,0,0-.841.075l-1.061,1.061a8.814,8.814,0,0,0-1.771-.734v-1.5a.658.658,0,0,0-.541-.648l-.009,0v-.78h31.62V85.807H12.7v-.414h.008a.658.658,0,0,0,.541-.648v-1.5a8.811,8.811,0,0,0,1.771-.734l1.061,1.061a.659.659,0,0,0,.841.075,10.837,10.837,0,0,0,2.721-2.722A.658.658,0,0,0,19.57,80.082Zm15.937,12.3a1.409,1.409,0,0,1,1.408,1.408v1.4H20.107v-1.4a1.409,1.409,0,0,1,1.408-1.408H35.508Zm-9.829-1.317V89.641h5.662v1.421ZM46.838,87.21a1.116,1.116,0,0,1-1.114,1.114H11.3a1.116,1.116,0,0,1-1.114-1.114V85.548c.2.011.4.017.6.017s.4-.006.6-.017v.918a.659.659,0,0,0,.658.659H44.98a.659.659,0,0,0,.659-.659V62.734a.659.659,0,0,0-.659-.659H12.042a.658.658,0,0,0-.658.659v1.284a10.931,10.931,0,0,0-1.2,0V61.99A1.116,1.116,0,0,1,11.3,60.876H45.724a1.116,1.116,0,0,1,1.114,1.114V87.21Zm-34.6-15.318L10.6,78.016l-1.272-.34,1.639-6.124ZM9.364,76.351l-.93.932L6.4,75.253a.659.659,0,0,1,0-.932l2.033-2.033.931.931L7.8,74.786Zm2.84-3.137.931-.931,2.03,2.03a.659.659,0,0,1,0,.931l-2.03,2.033-.932-.931,1.565-1.568Zm14.117.525h7.513a.658.658,0,0,0,.658-.659V65.565a.659.659,0,0,0-.658-.659H26.321a.658.658,0,0,0-.658.659v7.515A.658.658,0,0,0,26.321,73.739Zm.658-7.515h6.2v6.2h-6.2Zm16.2,2.927H35.94V67.834H43.18ZM26.321,84.293h7.513a.658.658,0,0,0,.658-.659V76.122a.659.659,0,0,0-.658-.659H26.321a.658.658,0,0,0-.658.659v7.513A.658.658,0,0,0,26.321,84.293Zm.658-7.513h6.2v6.2h-6.2Zm5.3,1.823-1.274,1.274,1.274,1.274-.931.931L30.077,80.81,28.8,82.084l-.931-.931,1.274-1.274L27.871,78.6l.931-.931,1.274,1.274,1.274-1.274Zm10.9-1.823H35.94V75.464H43.18Zm0,2.927H35.94V78.391H43.18ZM31.839,66.891l.986.874-3.1,3.5a.658.658,0,0,1-.493.222h-.025a.658.658,0,0,1-.5-.26l-1.371-1.807,1.049-.8.886,1.168Z"/>
    </g>
  </g>
</svg>
