<svg xmlns="http://www.w3.org/2000/svg" width="76.246" height="76.246" viewBox="0 0 76.246 76.246">
  <g id="Group_1099712" data-name="Group 1099712" transform="translate(-442.051 -5799)">
    <g id="Group_1099706" data-name="Group 1099706" transform="translate(-331 4913)">
      <g id="Group_1099486" data-name="Group 1099486" transform="translate(-245.949 -5878)">
        <g id="Group_1098742" data-name="Group 1098742" transform="translate(1019 6764)">
          <rect id="Rectangle_400898" data-name="Rectangle 400898" width="76.246" height="76.246" rx="38.123" transform="translate(0 0)" fill="#d0c110"/>
          <rect id="Rectangle_400907" data-name="Rectangle 400907" width="76.246" height="76.246" rx="38.123" transform="translate(0 0)" fill="none"/>
        </g>
      </g>
    </g>
    <g id="ahorrar-dinero" transform="translate(457.486 5812.498)">
      <path id="Path_1241898" data-name="Path 1241898" d="M96.333,351.259l7.183-3.393A3.321,3.321,0,0,1,107.9,349.2l-14.6,9.444a10.032,10.032,0,0,1-6.264.709l-10.07-2.826a3.728,3.728,0,0,0-2.767.3L72.1,357.955l.283-10.27.084,0A9.852,9.852,0,0,1,82.7,346.97l.6.312a7.033,7.033,0,0,0,3.044.786l5.919.163A4.4,4.4,0,0,1,96.333,351.259Zm0,0" transform="translate(-64.397 -310.475)" fill="#f7caa5"/>
      <path id="Path_1241899" data-name="Path 1241899" d="M134.292,125.54a11.052,11.052,0,1,1-11.052-11.052A11.052,11.052,0,0,1,134.292,125.54Zm0,0" transform="translate(-100.385 -102.773)" fill="#fedb41"/>
      <path id="Path_1241900" data-name="Path 1241900" d="M14.881,347.626l-.032,1.156-6.49-.178.392-14.245,6.492.178-.078,2.818Zm0,0" transform="translate(-7.181 -300.147)" fill="#00efd1"/>
      <g id="Group_1099711" data-name="Group 1099711" transform="translate(0.36)">
        <path id="Path_1241901" data-name="Path 1241901" d="M189.6,159.194a.789.789,0,0,0-.279-.01,1.848,1.848,0,0,1-1.647-1.845.819.819,0,1,0-1.637,0,3.481,3.481,0,0,0,2.574,3.373v.818a.819.819,0,0,0,1.637,0v-.769a3.5,3.5,0,0,0-.716-6.918,1.858,1.858,0,1,1,1.858-1.858.819.819,0,0,0,1.637,0,3.5,3.5,0,0,0-2.779-3.421v-.745a.819.819,0,0,0-1.637,0v.8a3.495,3.495,0,0,0,.921,6.866,1.858,1.858,0,0,1,.068,3.714Zm0,0" transform="translate(-167.036 -131.958)" fill="#083863"/>
        <path id="Path_1241902" data-name="Path 1241902" d="M104.188,118.359a11.871,11.871,0,1,0,11.871-11.871A11.871,11.871,0,0,0,104.188,118.359Zm11.871-10.234a10.234,10.234,0,1,1-10.234,10.234A10.234,10.234,0,0,1,116.058,108.125Zm0,0" transform="translate(-93.564 -95.592)" fill="#083863"/>
        <path id="Path_1241903" data-name="Path 1241903" d="M38.76,329.617l-6.411,3.028A5.235,5.235,0,0,0,27.9,329.9l-5.92-.163a6.256,6.256,0,0,1-2.69-.695l-.6-.312a10.622,10.622,0,0,0-9.841.01l.038-1.365a.818.818,0,0,0-.8-.841l-6.492-.178a.818.818,0,0,0-.841.8L.361,341.4a.818.818,0,0,0,.8.841l6.49.178h.023a.819.819,0,0,0,.818-.8l.019-.681,1.687-.9a2.9,2.9,0,0,1,2.159-.236l10.07,2.826.053.013a10.79,10.79,0,0,0,2.214.229,10.913,10.913,0,0,0,4.561-1,.854.854,0,0,0,.1-.056l14.6-9.444a.818.818,0,0,0,.268-1.09A4.135,4.135,0,0,0,38.76,329.617Zm-31.868,10.8-.014.338-4.856-.133.345-12.608,4.859.133Zm21.62-.009a9.274,9.274,0,0,1-5.675.633l-10.043-2.819a4.528,4.528,0,0,0-3.374.369l-.863.462.231-8.383a9,9,0,0,1,9.141-.487l.6.312a7.893,7.893,0,0,0,3.4.877l5.92.164a3.586,3.586,0,0,1,3.413,2.86l-8.818-.243a.819.819,0,0,0-.045,1.637l9.73.268h.023a.819.819,0,0,0,.819-.8,5.254,5.254,0,0,0-.08-1.062l6.577-3.107.019-.009a2.5,2.5,0,0,1,2.828.4Zm0,0" transform="translate(-0.36 -292.963)" fill="#083863"/>
        <path id="Path_1241904" data-name="Path 1241904" d="M213.836,8.6V.819a.819.819,0,0,0-1.637,0V8.6a.819.819,0,0,0,1.637,0Zm0,0" transform="translate(-190.523 0)" fill="#083863"/>
        <path id="Path_1241905" data-name="Path 1241905" d="M273.836,44.5V40.819a.819.819,0,1,0-1.637,0V44.5a.819.819,0,1,0,1.637,0Zm0,0" transform="translate(-244.384 -35.907)" fill="#083863"/>
        <path id="Path_1241906" data-name="Path 1241906" d="M153.836,44.5V40.819a.819.819,0,1,0-1.637,0V44.5a.819.819,0,0,0,1.637,0Zm0,0" transform="translate(-136.663 -35.907)" fill="#083863"/>
      </g>
    </g>
  </g>
</svg>
