<svg xmlns="http://www.w3.org/2000/svg" width="76.246" height="76.246" viewBox="0 0 76.246 76.246">
  <g id="Group_1099746" data-name="Group 1099746" transform="translate(-757.025 -5799)">
    <g id="Group_1099707" data-name="Group 1099707" transform="translate(-331.025 4913)">
      <g id="Group_1099487" data-name="Group 1099487" transform="translate(69.051 -5878)">
        <g id="Group_1098742" data-name="Group 1098742" transform="translate(1019 6764)">
          <rect id="Rectangle_400898" data-name="Rectangle 400898" width="76.246" height="76.246" rx="38.123" transform="translate(0 0)" fill="#d0c110"/>
          <rect id="Rectangle_400907" data-name="Rectangle 400907" width="76.246" height="76.246" rx="38.123" transform="translate(0 0)" fill="none"/>
        </g>
      </g>
    </g>
    <g id="loseta" transform="translate(771.636 5814.607)">
      <g id="Group_1099744" data-name="Group 1099744" transform="translate(0.689 0.689)">
        <path id="Path_1241907" data-name="Path 1241907" d="M50.68,53.146H9.966A2.466,2.466,0,0,1,7.5,50.68V9.966A2.466,2.466,0,0,1,9.966,7.5H50.68a2.466,2.466,0,0,1,2.466,2.466V50.68a2.466,2.466,0,0,1-2.466,2.466Z" transform="translate(-7.5 -7.5)" fill="#f9f7f8"/>
        <path id="Path_1241908" data-name="Path 1241908" d="M14.3,53.147H9.966A2.466,2.466,0,0,1,7.5,50.681V9.967A2.466,2.466,0,0,1,9.966,7.5H14.3a2.466,2.466,0,0,0-2.466,2.466V50.681A2.466,2.466,0,0,0,14.3,53.147Z" transform="translate(-7.5 -7.501)" fill="#dedbee"/>
        <g id="Group_1099713" data-name="Group 1099713" transform="translate(4.207 4.207)">
          <circle id="Ellipse_11563" data-name="Ellipse 11563" cx="1.466" cy="1.466" r="1.466" transform="translate(11.434 11.443)" fill="#fd8087"/>
          <circle id="Ellipse_11564" data-name="Ellipse 11564" cx="1.466" cy="1.466" r="1.466" transform="translate(22.867 22.858)" fill="#fd8087"/>
          <circle id="Ellipse_11565" data-name="Ellipse 11565" cx="1.466" cy="1.466" r="1.466" transform="translate(0 11.443)" fill="#fd8087"/>
          <circle id="Ellipse_11566" data-name="Ellipse 11566" cx="1.466" cy="1.466" r="1.466" transform="translate(0 22.858)" fill="#fd8087"/>
          <circle id="Ellipse_11567" data-name="Ellipse 11567" cx="1.466" cy="1.466" r="1.466" transform="translate(34.273 11.443)" fill="#fd8087"/>
          <circle id="Ellipse_11568" data-name="Ellipse 11568" cx="1.466" cy="1.466" r="1.466" transform="translate(34.273 22.858)" fill="#fd8087"/>
          <circle id="Ellipse_11569" data-name="Ellipse 11569" cx="1.466" cy="1.466" r="1.466" transform="translate(34.301 34.273)" fill="#fd8087"/>
          <circle id="Ellipse_11570" data-name="Ellipse 11570" cx="1.466" cy="1.466" r="1.466" transform="translate(0 0.028)" fill="#fd8087"/>
          <circle id="Ellipse_11571" data-name="Ellipse 11571" cx="1.466" cy="1.466" r="1.466" transform="translate(22.858 11.434)" fill="#fd8087"/>
          <circle id="Ellipse_11572" data-name="Ellipse 11572" cx="1.466" cy="1.466" r="1.466" transform="translate(11.434)" fill="#fd8087"/>
          <circle id="Ellipse_11573" data-name="Ellipse 11573" cx="1.466" cy="1.466" r="1.466" transform="translate(22.858)" fill="#fd8087"/>
          <circle id="Ellipse_11574" data-name="Ellipse 11574" cx="1.466" cy="1.466" r="1.466" transform="translate(11.443 22.867)" fill="#fd8087"/>
          <circle id="Ellipse_11575" data-name="Ellipse 11575" cx="1.466" cy="1.466" r="1.466" transform="translate(0.028 34.301)" fill="#fd8087"/>
          <circle id="Ellipse_11576" data-name="Ellipse 11576" cx="1.466" cy="1.466" r="1.466" transform="translate(34.273)" fill="#fd8087"/>
          <circle id="Ellipse_11577" data-name="Ellipse 11577" cx="1.466" cy="1.466" r="1.466" transform="translate(11.434 34.273)" fill="#fd8087"/>
          <circle id="Ellipse_11578" data-name="Ellipse 11578" cx="1.466" cy="1.466" r="1.466" transform="translate(22.858 34.273)" fill="#fd8087"/>
        </g>
        <g id="Group_1099743" data-name="Group 1099743" transform="translate(0 0)">
          <g id="Group_1099718" data-name="Group 1099718" transform="translate(24.96 0)">
            <g id="Group_1099715" data-name="Group 1099715" transform="translate(11.411 2.137)">
              <g id="Group_1099714" data-name="Group 1099714">
                <path id="Path_1241909" data-name="Path 1241909" d="M483.374,30.763a4.272,4.272,0,0,0,0,7.4" transform="translate(-474.098 -30.763)" fill="#03bed7"/>
                <path id="Path_1241910" data-name="Path 1241910" d="M483.374,152.168a4.272,4.272,0,0,0,0,7.4" transform="translate(-474.098 -141.018)" fill="#03bed7"/>
                <ellipse id="Ellipse_11579" data-name="Ellipse 11579" cx="3.7" cy="2.137" rx="3.7" ry="2.137" transform="translate(0 7.138)" fill="#03bed7"/>
              </g>
              <path id="Path_1241911" data-name="Path 1241911" d="M485.957,115.083a1.875,1.875,0,1,1,0-3.75" transform="translate(-476.682 -103.933)" fill="#fff0ad"/>
            </g>
            <g id="Group_1099717" data-name="Group 1099717">
              <g id="Group_1099716" data-name="Group 1099716">
                <path id="Path_1241912" data-name="Path 1241912" d="M400.668,7.5a4.272,4.272,0,0,0,7.4,0" transform="translate(-389.518 -7.5)" fill="#03bed7"/>
                <path id="Path_1241913" data-name="Path 1241913" d="M279.263,7.5a4.272,4.272,0,0,0,7.4,0" transform="translate(-279.263 -7.5)" fill="#03bed7"/>
                <ellipse id="Ellipse_11580" data-name="Ellipse 11580" cx="2.137" cy="3.7" rx="2.137" ry="3.7" transform="translate(7.138 1.875)" fill="#03bed7"/>
              </g>
              <path id="Path_1241914" data-name="Path 1241914" d="M363.583,7.5a1.875,1.875,0,1,1-3.75,0" transform="translate(-352.433 -7.5)" fill="#fff0ad"/>
            </g>
          </g>
          <g id="Group_1099723" data-name="Group 1099723" transform="translate(24.96 24.96)">
            <g id="Group_1099720" data-name="Group 1099720" transform="translate(11.412)">
              <g id="Group_1099719" data-name="Group 1099719">
                <path id="Path_1241915" data-name="Path 1241915" d="M483.374,279.262a4.272,4.272,0,0,0,0,7.4" transform="translate(-474.098 -279.262)" fill="#03bed7"/>
                <path id="Path_1241916" data-name="Path 1241916" d="M483.374,400.667a4.272,4.272,0,0,0,0,7.4" transform="translate(-474.098 -389.517)" fill="#03bed7"/>
                <ellipse id="Ellipse_11581" data-name="Ellipse 11581" cx="3.7" cy="2.137" rx="3.7" ry="2.137" transform="translate(0 7.139)" fill="#03bed7"/>
              </g>
              <path id="Path_1241917" data-name="Path 1241917" d="M485.957,363.582a1.875,1.875,0,1,1,0-3.75" transform="translate(-476.682 -352.432)" fill="#fff0ad"/>
            </g>
            <g id="Group_1099722" data-name="Group 1099722" transform="translate(0 11.412)">
              <g id="Group_1099721" data-name="Group 1099721">
                <path id="Path_1241918" data-name="Path 1241918" d="M408.067,483.374a4.272,4.272,0,0,0-7.4,0" transform="translate(-389.517 -474.098)" fill="#03bed7"/>
                <path id="Path_1241919" data-name="Path 1241919" d="M286.662,483.374a4.272,4.272,0,0,0-7.4,0" transform="translate(-279.262 -474.098)" fill="#03bed7"/>
                <ellipse id="Ellipse_11582" data-name="Ellipse 11582" cx="2.137" cy="3.7" rx="2.137" ry="3.7" transform="translate(7.139)" fill="#03bed7"/>
              </g>
              <path id="Path_1241920" data-name="Path 1241920" d="M359.832,485.957a1.875,1.875,0,1,1,3.75,0" transform="translate(-352.432 -476.682)" fill="#fff0ad"/>
            </g>
          </g>
          <g id="Group_1099726" data-name="Group 1099726" transform="translate(0 2.136)">
            <g id="Group_1099725" data-name="Group 1099725">
              <path id="Path_1241921" data-name="Path 1241921" d="M35.32,110.626a4.271,4.271,0,0,1-7.4,0,4.281,4.281,0,0,1,2.461-1.954,4.275,4.275,0,0,1,4.938,1.954Z" transform="translate(-26.045 -101.351)" fill="#03bed7"/>
              <g id="Group_1099724" data-name="Group 1099724">
                <path id="Path_1241922" data-name="Path 1241922" d="M30.381,110.48v3.907a4.281,4.281,0,0,1-2.461-1.954A4.281,4.281,0,0,1,30.381,110.48Z" transform="translate(-26.045 -103.158)" fill="#07b2cd"/>
                <path id="Path_1241923" data-name="Path 1241923" d="M7.5,159.567a4.272,4.272,0,0,0,0-7.4" transform="translate(-7.5 -141.017)" fill="#07b2cd"/>
                <path id="Path_1241924" data-name="Path 1241924" d="M7.5,38.162a4.272,4.272,0,0,0,0-7.4" transform="translate(-7.5 -30.762)" fill="#07b2cd"/>
              </g>
              <path id="Path_1241925" data-name="Path 1241925" d="M7.5,111.332a1.875,1.875,0,1,1,0,3.75" transform="translate(-7.5 -103.932)" fill="#ffd15b"/>
            </g>
          </g>
          <g id="Group_1099728" data-name="Group 1099728" transform="translate(2.136)">
            <g id="Group_1099727" data-name="Group 1099727">
              <ellipse id="Ellipse_11583" data-name="Ellipse 11583" cx="2.137" cy="3.7" rx="2.137" ry="3.7" transform="translate(7.139 1.875)" fill="#03bed7"/>
              <path id="Path_1241926" data-name="Path 1241926" d="M38.16,7.5a4.272,4.272,0,0,1-7.387.021c0-.007-.009-.014-.013-.021Z" transform="translate(-30.76 -7.5)" fill="#03bed7"/>
              <path id="Path_1241927" data-name="Path 1241927" d="M35.554,7.5a2.467,2.467,0,0,0-2.4,1.889A4.28,4.28,0,0,1,30.9,7.521a2.258,2.258,0,0,1,.317-.021Z" transform="translate(-30.887 -7.5)" fill="#07b2cd"/>
              <path id="Path_1241928" data-name="Path 1241928" d="M152.167,7.5a4.272,4.272,0,0,0,7.4,0" transform="translate(-141.017 -7.5)" fill="#03bed7"/>
              <path id="Path_1241929" data-name="Path 1241929" d="M115.082,7.5a1.875,1.875,0,1,1-3.75,0" transform="translate(-103.932 -7.5)" fill="#fff0ad"/>
            </g>
          </g>
          <g id="Group_1099731" data-name="Group 1099731" transform="translate(0 24.96)">
            <g id="Group_1099730" data-name="Group 1099730">
              <path id="Path_1241930" data-name="Path 1241930" d="M35.32,359.126a4.271,4.271,0,0,1-7.4,0,4.281,4.281,0,0,1,2.461-1.954,4.275,4.275,0,0,1,4.938,1.954Z" transform="translate(-26.045 -349.851)" fill="#03bed7"/>
              <g id="Group_1099729" data-name="Group 1099729">
                <path id="Path_1241931" data-name="Path 1241931" d="M30.381,358.98v3.907a4.281,4.281,0,0,1-2.461-1.954A4.281,4.281,0,0,1,30.381,358.98Z" transform="translate(-26.045 -351.658)" fill="#07b2cd"/>
                <path id="Path_1241932" data-name="Path 1241932" d="M7.5,408.067a4.272,4.272,0,0,0,0-7.4" transform="translate(-7.5 -389.517)" fill="#07b2cd"/>
                <path id="Path_1241933" data-name="Path 1241933" d="M7.5,286.662a4.272,4.272,0,0,0,0-7.4" transform="translate(-7.5 -279.262)" fill="#07b2cd"/>
              </g>
              <path id="Path_1241934" data-name="Path 1241934" d="M7.5,359.833a1.875,1.875,0,1,1,0,3.75" transform="translate(-7.5 -352.433)" fill="#ffd15b"/>
            </g>
          </g>
          <g id="Group_1099733" data-name="Group 1099733" transform="translate(2.136 36.371)">
            <g id="Group_1099732" data-name="Group 1099732">
              <path id="Path_1241935" data-name="Path 1241935" d="M159.567,483.374a4.272,4.272,0,0,0-7.4,0" transform="translate(-141.017 -474.098)" fill="#03bed7"/>
              <path id="Path_1241936" data-name="Path 1241936" d="M38.16,483.376h-7.4c0-.007.008-.014.013-.021a4.272,4.272,0,0,1,7.387.021Z" transform="translate(-30.76 -474.101)" fill="#03bed7"/>
              <path id="Path_1241937" data-name="Path 1241937" d="M35.554,485.819H31.217a2.256,2.256,0,0,1-.317-.021,4.28,4.28,0,0,1,2.256-1.868A2.467,2.467,0,0,0,35.554,485.819Z" transform="translate(-30.887 -476.544)" fill="#07b2cd"/>
              <ellipse id="Ellipse_11584" data-name="Ellipse 11584" cx="2.137" cy="3.7" rx="2.137" ry="3.7" transform="translate(7.139)" fill="#03bed7"/>
              <path id="Path_1241938" data-name="Path 1241938" d="M111.332,485.957a1.875,1.875,0,0,1,3.751,0" transform="translate(-103.932 -476.682)" fill="#fff0ad"/>
            </g>
          </g>
          <g id="Group_1099742" data-name="Group 1099742" transform="translate(2.136 2.136)">
            <g id="Group_1099735" data-name="Group 1099735" transform="translate(0 11.412)">
              <g id="Group_1099734" data-name="Group 1099734">
                <ellipse id="Ellipse_11585" data-name="Ellipse 11585" cx="2.137" cy="3.7" rx="2.137" ry="3.7" transform="translate(7.139)" fill="#03bed7"/>
                <ellipse id="Ellipse_11586" data-name="Ellipse 11586" cx="2.137" cy="3.7" rx="2.137" ry="3.7" transform="translate(7.139 11.15)" fill="#03bed7"/>
                <ellipse id="Ellipse_11587" data-name="Ellipse 11587" cx="3.7" cy="2.137" rx="3.7" ry="2.137" transform="translate(11.15 7.138)" fill="#03bed7"/>
                <path id="Path_1241939" data-name="Path 1241939" d="M38.16,234.876a4.272,4.272,0,0,1-7.4,0,4.282,4.282,0,0,1,2.2-1.864,4.272,4.272,0,0,1,5.2,1.864Z" transform="translate(-30.76 -225.601)" fill="#03bed7"/>
              </g>
              <path id="Path_1241940" data-name="Path 1241940" d="M32.961,235.7v3.729a4.282,4.282,0,0,1-2.2-1.864,4.282,4.282,0,0,1,2.2-1.864Z" transform="translate(-30.76 -228.289)" fill="#07b2cd"/>
              <circle id="Ellipse_11588" data-name="Ellipse 11588" cx="1.875" cy="1.875" r="1.875" transform="translate(7.4 7.4)" fill="#fff0ad"/>
            </g>
            <g id="Group_1099737" data-name="Group 1099737" transform="translate(22.823 11.412)">
              <g id="Group_1099736" data-name="Group 1099736">
                <ellipse id="Ellipse_11589" data-name="Ellipse 11589" cx="2.137" cy="3.7" rx="2.137" ry="3.7" transform="translate(7.139)" fill="#03bed7"/>
                <ellipse id="Ellipse_11590" data-name="Ellipse 11590" cx="2.137" cy="3.7" rx="2.137" ry="3.7" transform="translate(7.139 11.15)" fill="#03bed7"/>
                <ellipse id="Ellipse_11591" data-name="Ellipse 11591" cx="3.7" cy="2.137" rx="3.7" ry="2.137" transform="translate(11.15 7.138)" fill="#03bed7"/>
                <ellipse id="Ellipse_11592" data-name="Ellipse 11592" cx="3.7" cy="2.137" rx="3.7" ry="2.137" transform="translate(0 7.138)" fill="#03bed7"/>
              </g>
              <circle id="Ellipse_11593" data-name="Ellipse 11593" cx="1.875" cy="1.875" r="1.875" transform="translate(7.4 7.4)" fill="#fff0ad"/>
            </g>
            <g id="Group_1099739" data-name="Group 1099739" transform="translate(11.412)">
              <g id="Group_1099738" data-name="Group 1099738">
                <ellipse id="Ellipse_11594" data-name="Ellipse 11594" cx="3.7" cy="2.137" rx="3.7" ry="2.137" transform="translate(11.15 7.139)" fill="#03bed7"/>
                <ellipse id="Ellipse_11595" data-name="Ellipse 11595" cx="3.7" cy="2.137" rx="3.7" ry="2.137" transform="translate(0 7.139)" fill="#03bed7"/>
                <ellipse id="Ellipse_11596" data-name="Ellipse 11596" cx="2.137" cy="3.7" rx="2.137" ry="3.7" transform="translate(7.139 11.15)" fill="#03bed7"/>
                <ellipse id="Ellipse_11597" data-name="Ellipse 11597" cx="2.137" cy="3.7" rx="2.137" ry="3.7" transform="translate(7.139)" fill="#03bed7"/>
              </g>
              <circle id="Ellipse_11598" data-name="Ellipse 11598" cx="1.875" cy="1.875" r="1.875" transform="translate(7.4 7.4)" fill="#fff0ad"/>
            </g>
            <g id="Group_1099741" data-name="Group 1099741" transform="translate(11.412 22.823)">
              <g id="Group_1099740" data-name="Group 1099740">
                <ellipse id="Ellipse_11599" data-name="Ellipse 11599" cx="3.7" cy="2.137" rx="3.7" ry="2.137" transform="translate(11.15 7.139)" fill="#03bed7"/>
                <ellipse id="Ellipse_11600" data-name="Ellipse 11600" cx="3.7" cy="2.137" rx="3.7" ry="2.137" transform="translate(0 7.139)" fill="#03bed7"/>
                <ellipse id="Ellipse_11601" data-name="Ellipse 11601" cx="2.137" cy="3.7" rx="2.137" ry="3.7" transform="translate(7.139 11.15)" fill="#03bed7"/>
                <ellipse id="Ellipse_11602" data-name="Ellipse 11602" cx="2.137" cy="3.7" rx="2.137" ry="3.7" transform="translate(7.139)" fill="#03bed7"/>
              </g>
              <circle id="Ellipse_11603" data-name="Ellipse 11603" cx="1.875" cy="1.875" r="1.875" transform="translate(7.4 7.4)" fill="#fff0ad"/>
            </g>
          </g>
        </g>
      </g>
      <g id="Group_1099745" data-name="Group 1099745" transform="translate(0)">
        <path id="Path_1241941" data-name="Path 1241941" d="M34.655,159.6a2.587,2.587,0,0,0,.7-.7,4.957,4.957,0,0,0,7.743-1.084.689.689,0,0,0,0-.69,4.957,4.957,0,0,0-7.743-1.084,2.585,2.585,0,0,0-.7-.7,4.957,4.957,0,0,0-1.083-7.743.689.689,0,0,0-.69,0,4.957,4.957,0,0,0-1.083,7.743,2.587,2.587,0,0,0-.7.7,4.957,4.957,0,0,0-7.743,1.083.689.689,0,0,0,0,.69A4.957,4.957,0,0,0,31.1,158.9a2.586,2.586,0,0,0,.7.7,4.956,4.956,0,0,0-1.046,1.615.689.689,0,0,0,1.281.508,3.6,3.6,0,0,1,1.194-1.552,3.582,3.582,0,0,1,0,5.753,3.6,3.6,0,0,1-1.194-1.553.689.689,0,1,0-1.281.508,4.984,4.984,0,0,0,2.129,2.465.689.689,0,0,0,.69,0,4.958,4.958,0,0,0,1.083-7.743Zm-.242-2.129h0a1.186,1.186,0,1,1-1.186-1.187A1.188,1.188,0,0,1,34.413,157.477Zm4.389-1.447a3.6,3.6,0,0,1,2.876,1.448,3.582,3.582,0,0,1-5.753,0A3.6,3.6,0,0,1,38.8,156.028Zm-5.575-7a3.581,3.581,0,0,1,0,5.753,3.581,3.581,0,0,1,0-5.753Zm-5.575,9.9a3.6,3.6,0,0,1-2.876-1.448,3.581,3.581,0,0,1,5.753,0A3.6,3.6,0,0,1,27.651,158.924Z" transform="translate(-21.126 -133.964)"/>
        <path id="Path_1241942" data-name="Path 1241942" d="M283.154,159.6a2.586,2.586,0,0,0,.7-.7,4.957,4.957,0,0,0,7.743-1.083.689.689,0,0,0,0-.69,4.957,4.957,0,0,0-7.743-1.083,2.586,2.586,0,0,0-.7-.7,4.957,4.957,0,0,0-1.084-7.743.689.689,0,0,0-.69,0,4.957,4.957,0,0,0-1.083,7.743,2.586,2.586,0,0,0-.7.7,4.957,4.957,0,0,0-7.743,1.083.689.689,0,0,0,0,.69A4.957,4.957,0,0,0,279.6,158.9a2.587,2.587,0,0,0,.7.7,4.957,4.957,0,0,0,1.083,7.743.689.689,0,0,0,.69,0,4.957,4.957,0,0,0,1.084-7.743Zm-.242-2.128a1.186,1.186,0,1,1-1.186-1.186A1.188,1.188,0,0,1,282.912,157.476Zm4.389-1.448a3.6,3.6,0,0,1,2.876,1.448,3.581,3.581,0,0,1-5.753,0A3.6,3.6,0,0,1,287.3,156.028Zm-5.575-7a3.581,3.581,0,0,1,0,5.753,3.581,3.581,0,0,1,0-5.753Zm-5.575,9.9a3.6,3.6,0,0,1-2.876-1.448,3.581,3.581,0,0,1,5.753,0A3.6,3.6,0,0,1,276.15,158.924Zm5.575,7a3.581,3.581,0,0,1,0-5.753,3.581,3.581,0,0,1,0,5.753Z" transform="translate(-246.802 -133.964)"/>
        <path id="Path_1241943" data-name="Path 1241943" d="M151.9,36.053a4.976,4.976,0,0,0,3.447-1.4,2.585,2.585,0,0,0,.7.7,4.957,4.957,0,0,0,1.083,7.743.689.689,0,0,0,.69,0,4.957,4.957,0,0,0,1.083-7.743,2.584,2.584,0,0,0,.7-.7,4.957,4.957,0,0,0,7.743-1.083.689.689,0,0,0,0-.69,4.985,4.985,0,0,0-2.465-2.129.689.689,0,0,0-.508,1.281,3.6,3.6,0,0,1,1.553,1.194,3.582,3.582,0,0,1-5.753,0,3.6,3.6,0,0,1,1.552-1.194.689.689,0,0,0-.508-1.281,4.957,4.957,0,0,0-1.615,1.046,2.586,2.586,0,0,0-.7-.7,4.957,4.957,0,0,0-1.083-7.743.689.689,0,0,0-.69,0,4.957,4.957,0,0,0-1.083,7.743,2.586,2.586,0,0,0-.7.7,4.957,4.957,0,0,0-7.743,1.083.689.689,0,0,0,0,.69,4.979,4.979,0,0,0,4.3,2.48Zm6.762-2.825a1.188,1.188,0,0,1-1.186,1.186h0a1.186,1.186,0,1,1,1.187-1.186Zm-1.186,8.452a3.582,3.582,0,0,1,0-5.753,3.582,3.582,0,0,1,0,5.753Zm0-16.9a3.581,3.581,0,0,1,0,5.753,3.581,3.581,0,0,1,0-5.753Zm-5.575,7a3.6,3.6,0,0,1,2.876,1.448,3.581,3.581,0,0,1-5.753,0A3.6,3.6,0,0,1,151.9,31.78Z" transform="translate(-133.965 -21.127)"/>
        <path id="Path_1241944" data-name="Path 1241944" d="M163.05,278.9a4.977,4.977,0,0,0-3.447,1.4,2.585,2.585,0,0,0-.7-.7,4.957,4.957,0,0,0-1.083-7.743.689.689,0,0,0-.69,0,4.957,4.957,0,0,0-1.083,7.743,2.585,2.585,0,0,0-.7.7,4.957,4.957,0,0,0-7.743,1.083.689.689,0,0,0,0,.69,4.957,4.957,0,0,0,7.743,1.083,2.586,2.586,0,0,0,.7.7,4.957,4.957,0,0,0,1.083,7.743.689.689,0,0,0,.69,0,4.957,4.957,0,0,0,1.083-7.743,2.585,2.585,0,0,0,.7-.7,4.957,4.957,0,0,0,7.743-1.083.689.689,0,0,0,0-.69A4.979,4.979,0,0,0,163.05,278.9Zm-4.389,2.825a1.186,1.186,0,1,1-1.186-1.186A1.188,1.188,0,0,1,158.662,281.726Zm-1.186-8.452a3.581,3.581,0,0,1,0,5.753,3.581,3.581,0,0,1,0-5.753Zm-5.575,9.9a3.6,3.6,0,0,1-2.876-1.448,3.581,3.581,0,0,1,5.753,0A3.6,3.6,0,0,1,151.9,283.174Zm5.575,7a3.581,3.581,0,0,1,0-5.753,3.581,3.581,0,0,1,0,5.753Zm5.575-7a3.6,3.6,0,0,1-2.876-1.448,3.581,3.581,0,0,1,5.753,0A3.6,3.6,0,0,1,163.05,283.174Z" transform="translate(-133.963 -246.803)"/>
        <path id="Path_1241945" data-name="Path 1241945" d="M170.292,172.548a2.155,2.155,0,1,0,2.155-2.155A2.157,2.157,0,0,0,170.292,172.548Zm2.932,0a.777.777,0,1,1-.777-.777A.778.778,0,0,1,173.224,172.548Z" transform="translate(-154.652 -154.744)"/>
        <path id="Path_1241946" data-name="Path 1241946" d="M299.094,296.838a2.155,2.155,0,1,0-2.155,2.155A2.157,2.157,0,0,0,299.094,296.838Zm-2.932,0a.777.777,0,1,1,.777.777A.778.778,0,0,1,296.162,296.838Z" transform="translate(-267.71 -267.618)"/>
        <path id="Path_1241947" data-name="Path 1241947" d="M47.956,174.7a2.155,2.155,0,1,0-2.155-2.155A2.157,2.157,0,0,0,47.956,174.7Zm0-2.932a.777.777,0,1,1-.777.777A.778.778,0,0,1,47.956,171.771Z" transform="translate(-41.594 -154.744)"/>
        <path id="Path_1241948" data-name="Path 1241948" d="M47.956,294.683a2.155,2.155,0,1,0,2.155,2.155A2.157,2.157,0,0,0,47.956,294.683Zm0,2.932a.777.777,0,1,1,.777-.777A.778.778,0,0,1,47.956,297.615Z" transform="translate(-41.594 -267.618)"/>
        <path id="Path_1241949" data-name="Path 1241949" d="M421.129,174.7a2.155,2.155,0,1,0-2.155-2.155A2.157,2.157,0,0,0,421.129,174.7Zm0-2.932a.777.777,0,1,1-.777.777A.778.778,0,0,1,421.129,171.771Z" transform="translate(-380.494 -154.744)"/>
        <path id="Path_1241950" data-name="Path 1241950" d="M421.129,294.683a2.155,2.155,0,1,0,2.155,2.155A2.157,2.157,0,0,0,421.129,294.683Zm0,2.932a.777.777,0,1,1,.777-.777A.778.778,0,0,1,421.129,297.615Z" transform="translate(-380.494 -267.618)"/>
        <path id="Path_1241951" data-name="Path 1241951" d="M421.43,418.973a2.155,2.155,0,1,0,2.155,2.155A2.157,2.157,0,0,0,421.43,418.973Zm0,2.932a.777.777,0,1,1,.777-.777A.778.778,0,0,1,421.43,421.905Z" transform="translate(-380.767 -380.493)"/>
        <path id="Path_1241952" data-name="Path 1241952" d="M47.956,46.1a2.155,2.155,0,1,0,2.155,2.155A2.157,2.157,0,0,0,47.956,46.1Zm0,2.932a.777.777,0,1,1,.777-.777A.778.778,0,0,1,47.956,49.035Z" transform="translate(-41.594 -41.869)"/>
        <path id="Path_1241953" data-name="Path 1241953" d="M294.684,172.447a2.155,2.155,0,1,0,2.155-2.155A2.157,2.157,0,0,0,294.684,172.447Zm2.932,0a.777.777,0,1,1-.777-.777A.778.778,0,0,1,297.616,172.447Z" transform="translate(-267.619 -154.652)"/>
        <path id="Path_1241954" data-name="Path 1241954" d="M172.447,50.111a2.155,2.155,0,1,0-2.155-2.155A2.157,2.157,0,0,0,172.447,50.111Zm0-2.932a.777.777,0,1,1-.777.777A.778.778,0,0,1,172.447,47.179Z" transform="translate(-154.652 -41.594)"/>
        <path id="Path_1241955" data-name="Path 1241955" d="M296.839,50.111a2.155,2.155,0,1,0-2.155-2.155A2.157,2.157,0,0,0,296.839,50.111Zm0-2.932a.777.777,0,1,1-.777.777A.778.778,0,0,1,296.839,47.179Z" transform="translate(-267.619 -41.594)"/>
        <path id="Path_1241956" data-name="Path 1241956" d="M170.393,296.939a2.155,2.155,0,1,0,2.155-2.155A2.157,2.157,0,0,0,170.393,296.939Zm2.932,0a.777.777,0,1,1-.777-.777A.778.778,0,0,1,173.325,296.939Z" transform="translate(-154.744 -267.71)"/>
        <path id="Path_1241957" data-name="Path 1241957" d="M48.257,419.275a2.155,2.155,0,1,0,2.155,2.155A2.157,2.157,0,0,0,48.257,419.275Zm0,2.932a.777.777,0,1,1,.777-.777A.778.778,0,0,1,48.257,422.207Z" transform="translate(-41.868 -380.767)"/>
        <path id="Path_1241958" data-name="Path 1241958" d="M421.129,50.111a2.155,2.155,0,1,0-2.155-2.155A2.157,2.157,0,0,0,421.129,50.111Zm0-2.932a.777.777,0,1,1-.777.777A.778.778,0,0,1,421.129,47.179Z" transform="translate(-380.494 -41.594)"/>
        <path id="Path_1241959" data-name="Path 1241959" d="M172.447,418.973a2.155,2.155,0,1,0,2.155,2.155A2.157,2.157,0,0,0,172.447,418.973Zm0,2.932a.777.777,0,1,1,.777-.777A.778.778,0,0,1,172.447,421.905Z" transform="translate(-154.652 -380.493)"/>
        <path id="Path_1241960" data-name="Path 1241960" d="M296.839,418.973a2.155,2.155,0,1,0,2.155,2.155A2.157,2.157,0,0,0,296.839,418.973Zm0,2.932a.777.777,0,1,1,.777-.777A.778.778,0,0,1,296.839,421.905Z" transform="translate(-267.619 -380.493)"/>
        <path id="Path_1241961" data-name="Path 1241961" d="M43.869,0H3.155A3.159,3.159,0,0,0,0,3.155V43.869a3.159,3.159,0,0,0,3.155,3.155H43.869a3.159,3.159,0,0,0,3.155-3.155V3.155A3.159,3.159,0,0,0,43.869,0Zm1.28,34.924a1.185,1.185,0,0,1,.5-.964v1.928A1.185,1.185,0,0,1,45.149,34.924Zm0-22.823a1.185,1.185,0,0,1,.5-.964v1.928A1.185,1.185,0,0,1,45.149,12.1Zm.5-3.375a3.569,3.569,0,0,1,0-4.4Zm0,11.15a3.569,3.569,0,0,1,0-4.4Zm0,11.673a3.569,3.569,0,0,1,0-4.4ZM34.924,3.387a3.582,3.582,0,0,1,0,5.753,3.582,3.582,0,0,1,0-5.753Zm0-1.512h0a1.185,1.185,0,0,1-.964-.5h1.928A1.185,1.185,0,0,1,34.924,1.875Zm7.775-.5a3.589,3.589,0,0,1-2.2.759,3.588,3.588,0,0,1-2.2-.759Zm-11.15,0a3.589,3.589,0,0,1-2.2.759,3.588,3.588,0,0,1-2.2-.759ZM12.1,3.387a3.582,3.582,0,0,1,0,5.753,3.582,3.582,0,0,1,0-5.753Zm0-1.512a1.185,1.185,0,0,1-.964-.5h1.928A1.185,1.185,0,0,1,12.1,1.875Zm7.775-.5a3.589,3.589,0,0,1-2.2.759,3.589,3.589,0,0,1-2.2-.759Zm-11.15,0a3.589,3.589,0,0,1-2.2.759,3.588,3.588,0,0,1-2.2-.759ZM1.378,33.959a1.183,1.183,0,0,1,0,1.928Zm0-22.823a1.183,1.183,0,0,1,0,1.928Zm0,27.162a3.589,3.589,0,0,1,.759,2.2,3.588,3.588,0,0,1-.759,2.2Zm0-11.15a3.589,3.589,0,0,1,.759,2.2,3.589,3.589,0,0,1-.759,2.2Zm0-11.673a3.589,3.589,0,0,1,.759,2.2,3.588,3.588,0,0,1-.759,2.2Zm0-11.15a3.589,3.589,0,0,1,.759,2.2,3.588,3.588,0,0,1-.759,2.2ZM12.1,43.636a3.582,3.582,0,0,1,0-5.753,3.582,3.582,0,0,1,0,5.753Zm0,1.512a1.185,1.185,0,0,1,.964.5H11.136A1.185,1.185,0,0,1,12.1,45.149Zm-7.775.5a3.569,3.569,0,0,1,4.4,0Zm11.15,0a3.569,3.569,0,0,1,4.4,0Zm19.448-2.01a3.582,3.582,0,0,1,0-5.753,3.582,3.582,0,0,1,0,5.753Zm0,1.512a1.185,1.185,0,0,1,.964.5H33.959A1.185,1.185,0,0,1,34.924,45.149Zm-7.775.5a3.569,3.569,0,0,1,4.4,0Zm11.15,0a3.569,3.569,0,0,1,4.4,0Zm6.195-.115a4.955,4.955,0,0,0-7.441-.624,2.587,2.587,0,0,0-.7-.7,4.957,4.957,0,0,0-1.083-7.743.689.689,0,0,0-.69,0,4.957,4.957,0,0,0-1.083,7.743,2.586,2.586,0,0,0-.7.7,4.955,4.955,0,0,0-7.524.74H21.752a4.955,4.955,0,0,0-7.524-.74,2.587,2.587,0,0,0-.7-.7,4.957,4.957,0,0,0-1.083-7.743.689.689,0,0,0-.69,0,4.957,4.957,0,0,0-1.083,7.743,2.586,2.586,0,0,0-.7.7,4.955,4.955,0,0,0-7.441.624,1.784,1.784,0,0,1-1.038-1.038A4.98,4.98,0,0,0,3.514,40.5a4.976,4.976,0,0,0-1.4-3.447,2.586,2.586,0,0,0,.7-.7,4.957,4.957,0,0,0,7.743-1.083.689.689,0,0,0,0-.69A4.957,4.957,0,0,0,2.817,33.5a2.586,2.586,0,0,0-.7-.7,4.976,4.976,0,0,0,1.4-3.447,4.98,4.98,0,0,0-2.137-4.077V21.752a4.98,4.98,0,0,0,2.137-4.077,4.976,4.976,0,0,0-1.4-3.447,2.584,2.584,0,0,0,.7-.7,4.957,4.957,0,0,0,7.743-1.083.689.689,0,0,0,0-.69,4.957,4.957,0,0,0-7.743-1.083,2.586,2.586,0,0,0-.7-.7,4.976,4.976,0,0,0,1.4-3.447A4.98,4.98,0,0,0,1.492,2.531,1.783,1.783,0,0,1,2.53,1.493,4.982,4.982,0,0,0,6.525,3.514a4.976,4.976,0,0,0,3.447-1.4,2.586,2.586,0,0,0,.7.7,4.957,4.957,0,0,0,1.083,7.743.689.689,0,0,0,.69,0,4.957,4.957,0,0,0,1.083-7.743,2.585,2.585,0,0,0,.7-.7,4.976,4.976,0,0,0,3.447,1.4,4.98,4.98,0,0,0,4.077-2.137h3.519a4.98,4.98,0,0,0,4.077,2.137,4.977,4.977,0,0,0,3.447-1.4,2.585,2.585,0,0,0,.7.7,4.957,4.957,0,0,0,1.083,7.743.689.689,0,0,0,.69,0,4.957,4.957,0,0,0,1.083-7.743,2.585,2.585,0,0,0,.7-.7,4.976,4.976,0,0,0,3.447,1.4,4.98,4.98,0,0,0,3.994-2.021,1.784,1.784,0,0,1,1.038,1.038,4.955,4.955,0,0,0-.624,7.441,2.587,2.587,0,0,0-.7.7,4.957,4.957,0,0,0-7.743,1.083.689.689,0,0,0,0,.69,4.957,4.957,0,0,0,7.743,1.083,2.586,2.586,0,0,0,.7.7,4.955,4.955,0,0,0,.74,7.524v3.519a4.955,4.955,0,0,0-.74,7.524,2.586,2.586,0,0,0-.7.7,4.957,4.957,0,0,0-7.743,1.083.689.689,0,0,0,0,.69,4.957,4.957,0,0,0,7.743,1.083,2.585,2.585,0,0,0,.7.7,4.958,4.958,0,0,0-1.046,1.615.689.689,0,1,0,1.281.508,3.559,3.559,0,0,1,.5-.878V42.7a3.563,3.563,0,0,1-.5-.879.689.689,0,1,0-1.281.508,4.981,4.981,0,0,0,1.67,2.163,1.785,1.785,0,0,1-1.038,1.038ZM3.388,34.924a3.581,3.581,0,0,1,5.753,0,3.581,3.581,0,0,1-5.753,0Zm0-22.823a3.581,3.581,0,0,1,5.753,0,3.581,3.581,0,0,1-5.753,0Zm40.249,0a3.581,3.581,0,0,1-5.753,0,3.581,3.581,0,0,1,5.753,0Zm0,22.823a3.581,3.581,0,0,1-5.753,0,3.581,3.581,0,0,1,5.753,0Z" transform="translate(0)"/>
      </g>
    </g>
  </g>
</svg>
