<svg xmlns="http://www.w3.org/2000/svg" width="76.246" height="76.246" viewBox="0 0 76.246 76.246">
  <g id="Group_1099748" data-name="Group 1099748" transform="translate(1034.551 5793)">
    <g id="Group_1099709" data-name="Group 1099709" transform="translate(-2122.602 -6679)">
      <g id="Group_1099487" data-name="Group 1099487" transform="translate(69.051 -5878)">
        <g id="Group_1098742" data-name="Group 1098742" transform="translate(1019 6764)">
          <rect id="Rectangle_400898" data-name="Rectangle 400898" width="76.246" height="76.246" rx="38.123" transform="translate(0 0)" fill="#d0c110"/>
          <rect id="Rectangle_400907" data-name="Rectangle 400907" width="76.246" height="76.246" rx="38.123" transform="translate(0 0)" fill="none"/>
        </g>
      </g>
    </g>
    <g id="XMLID_1112_" transform="translate(-1017.681 -5777.156)">
      <g id="Group_1099747" data-name="Group 1099747" transform="translate(0.892 0.861)">
        <path id="XMLID_1773_" d="M34.8,25.924a2.4,2.4,0,0,1-.7-2.6l2.49-7.161A4.619,4.619,0,0,0,30.424,10.4a5.019,5.019,0,0,0-2.986,5.422l1.22,7.511a1.948,1.948,0,0,1-3.746,1l-.786-2.083a3.594,3.594,0,0,0-3.133-2.318,3,3,0,0,0-2.212,5.2l3.369,3.078a1.477,1.477,0,0,1-1.607,2.434l-4.26-1.936a4.446,4.446,0,0,0-5.136,7.03,5.2,5.2,0,0,0,5.431,1.468l4.34-1.378a1.756,1.756,0,0,1,1.323,3.242l-2.649,1.338a4.639,4.639,0,0,0-2.309,5.607,4.423,4.423,0,0,0,8.49-.337l.781-3.158a1.446,1.446,0,0,1,2.829.105l.971,5.726a4.843,4.843,0,0,0,4.132,3.99,4.484,4.484,0,0,0,3.826-7.554l-2.644-2.747a1.53,1.53,0,0,1,1.828-2.409l2.678,1.442a3.919,3.919,0,0,0,3.34.177,2.616,2.616,0,0,0-.4-4.971l-2.15-.494A2.463,2.463,0,0,1,40.925,31L46,29.754a5.283,5.283,0,0,0,4.027-5.132,4.688,4.688,0,0,0-8.216-3.086l-3.631,4.152a2.4,2.4,0,0,1-3.374.235Z" transform="translate(-9.998 -10.026)" fill="#6d92ac"/>
        <circle id="XMLID_1772_" cx="2.956" cy="2.956" r="2.956" transform="translate(1.205 1.693)" fill="#6d92ac"/>
        <circle id="XMLID_1771_" cx="2.956" cy="2.956" r="2.956" transform="translate(36.445 34.752)" fill="#6d92ac"/>
      </g>
      <g id="XMLID_1770_" transform="translate(0.034 -0.003)">
        <path id="XMLID_936_" d="M25.986,44.079a5.425,5.425,0,0,1-.721-.048,5.677,5.677,0,0,1-4.866-4.7L19.427,33.6a.586.586,0,0,0-.32-.428.585.585,0,0,0-.824.385L17.5,36.72a5.284,5.284,0,0,1-10.143.4A5.5,5.5,0,0,1,10.1,30.474l2.649-1.338a.9.9,0,0,0-.675-1.653l-4.34,1.378A6.076,6.076,0,0,1,1.4,27.15a5.307,5.307,0,0,1,6.13-8.391l4.26,1.936a.616.616,0,0,0,.67-1.015L9.094,16.6a3.858,3.858,0,0,1,2.848-6.7,4.462,4.462,0,0,1,3.884,2.873l.786,2.083A1.087,1.087,0,0,0,18.7,14.3L17.482,6.79a5.869,5.869,0,0,1,3.5-6.352A5.48,5.48,0,0,1,27.855,2.7a.861.861,0,0,1-1.485.871,3.759,3.759,0,0,0-4.714-1.554,4.15,4.15,0,0,0-2.474,4.492l1.22,7.511A2.809,2.809,0,0,1,15,15.467l-.786-2.083a2.738,2.738,0,0,0-2.383-1.763,2.136,2.136,0,0,0-1.577,3.71l3.369,3.078a2.337,2.337,0,0,1-2.543,3.854l-4.26-1.936A3.585,3.585,0,0,0,2.679,26,4.35,4.35,0,0,0,7.211,27.22l4.34-1.378a2.617,2.617,0,0,1,1.972,4.831l-2.649,1.338a3.8,3.8,0,0,0-1.881,4.567,3.562,3.562,0,0,0,6.837-.271l.781-3.158a2.307,2.307,0,0,1,4.513.168l.971,5.727a3.964,3.964,0,0,0,3.4,3.281,3.608,3.608,0,0,0,3.631-1.8,3.644,3.644,0,0,0-.54-4.3L25.94,33.474a2.4,2.4,0,0,1,.032-3.349A2.377,2.377,0,0,1,28.8,29.71l2.678,1.442a3.047,3.047,0,0,0,2.606.138,1.755,1.755,0,0,0-.27-3.334l-2.15-.494a3.324,3.324,0,0,1-.046-6.467l5.075-1.242a4.412,4.412,0,0,0,3.37-4.3,3.827,3.827,0,0,0-6.707-2.519L29.721,17.09a3.259,3.259,0,0,1-5.531-3.215l1.217-3.5a.861.861,0,1,1,1.626.565l-1.217,3.5a1.537,1.537,0,0,0,2.609,1.516L32.056,11.8a5.548,5.548,0,0,1,9.725,3.653A6.13,6.13,0,0,1,37.1,21.424l-5.075,1.242a1.6,1.6,0,0,0,.022,3.117l2.15.494a3.477,3.477,0,0,1,.536,6.607,4.763,4.763,0,0,1-4.073-.217l-2.678-1.442a.665.665,0,0,0-.791.116.673.673,0,0,0-.009.938l2.644,2.747a5.376,5.376,0,0,1,.8,6.348,5.319,5.319,0,0,1-4.636,2.7Z" transform="translate(-0.034 0.003)"/>
      </g>
      <g id="XMLID_1769_" transform="translate(1.237 1.693)">
        <path id="XMLID_933_" d="M17.816,27.325a3.817,3.817,0,1,1,3.817-3.817A3.821,3.821,0,0,1,17.816,27.325Zm0-5.912a2.095,2.095,0,1,0,2.095,2.095A2.1,2.1,0,0,0,17.816,21.414Z" transform="translate(-13.999 -19.692)"/>
      </g>
      <g id="XMLID_1768_" transform="translate(36.477 34.752)">
        <path id="XMLID_930_" d="M427.149,411.325a3.817,3.817,0,1,1,3.817-3.817A3.821,3.821,0,0,1,427.149,411.325Zm0-5.912a2.095,2.095,0,1,0,2.095,2.095A2.1,2.1,0,0,0,427.149,405.414Z" transform="translate(-423.332 -403.692)"/>
      </g>
      <g id="XMLID_1171_" transform="translate(26.632 6.135)">
        <path id="XMLID_929_" d="M309.838,73.017a.861.861,0,1,1,.609-.252A.867.867,0,0,1,309.838,73.017Z" transform="translate(-308.977 -71.295)"/>
      </g>
    </g>
  </g>
</svg>
