<svg xmlns="http://www.w3.org/2000/svg" width="76.246" height="76.246" viewBox="0 0 76.246 76.246">
  <g id="Group_1099756" data-name="Group 1099756" transform="translate(-1072.051 -5817)">
    <g id="Group_1099708" data-name="Group 1099708" transform="translate(-16 4931)">
      <g id="Group_1099487" data-name="Group 1099487" transform="translate(69.051 -5878)">
        <g id="Group_1098742" data-name="Group 1098742" transform="translate(1019 6764)">
          <rect id="Rectangle_400898" data-name="Rectangle 400898" width="76.246" height="76.246" rx="38.123" transform="translate(0 0)" fill="#d0c110"/>
          <rect id="Rectangle_400907" data-name="Rectangle 400907" width="76.246" height="76.246" rx="38.123" transform="translate(0 0)" fill="none"/>
        </g>
      </g>
    </g>
    <g id="cuero" transform="translate(1086.049 5831)">
      <path id="Path_1241978" data-name="Path 1241978" d="M35.519,25.5v-.073c0-4.649,4.852-8.215,6.635-9.371a.815.815,0,0,0,.261-1.083L39.94,10.615a.8.8,0,0,0-1.018-.342,9.714,9.714,0,0,1-8.255-.318c-3.737-1.881-3.647-6.163-3.4-8.044a.805.805,0,0,0-.8-.912H17.055a.805.805,0,0,0-.8.912c.244,1.881.334,6.163-3.4,8.044a9.714,9.714,0,0,1-8.255.318.8.8,0,0,0-1.018.342L1.106,14.97a.815.815,0,0,0,.261,1.083C3.149,17.209,8,20.775,8,25.424c0,4.771-4.543,9.55-6.016,10.974a.8.8,0,0,0-.138.985l2.467,4.347A.807.807,0,0,0,5.469,42c1.645-1.14,5.894-3.615,9.818-1.921,3.273,1.417,4.925,5.8,5.74,7.661a.8.8,0,0,0,1.465,0c.643-1.457,1.8-4.486,3.859-6.407Z" transform="translate(-0.185 -0.186)" fill="sienna"/>
      <g id="Group_1099755" data-name="Group 1099755" transform="translate(20.354 0.814)">
        <path id="Path_1241979" data-name="Path 1241979" d="M30.078,1.912c-.244,1.881-.334,6.163,3.4,8.044a9.727,9.727,0,0,0,5.683,1.008,9.995,9.995,0,0,1-3.241-1.008c-3.737-1.881-3.647-6.163-3.4-8.044a.805.805,0,0,0-.8-.912H29.28a.805.805,0,0,1,.8.912Z" transform="translate(-25.796 -1)" fill="#783e22"/>
        <path id="Path_1241980" data-name="Path 1241980" d="M46.876,17.072,44.4,12.717a.8.8,0,0,0-1.018-.342,9.406,9.406,0,0,1-1.358.46l2.408,4.238a.815.815,0,0,1-.261,1.083c-1.783,1.156-6.635,4.722-6.635,9.371V27.6L28.371,43.434A16.072,16.072,0,0,0,25,48.714c.188.428.351.816.488,1.128a.8.8,0,0,0,1.465,0c.643-1.457,1.8-4.486,3.859-6.407L39.98,27.6v-.073c0-4.649,4.852-8.215,6.635-9.371a.815.815,0,0,0,.261-1.083Z" transform="translate(-25.001 -3.102)" fill="#783e22"/>
      </g>
      <circle id="Ellipse_11605" data-name="Ellipse 11605" cx="11.5" cy="11.5" r="11.5" transform="translate(25.002 24.847)" fill="#f5f5f5"/>
      <path id="Path_1241981" data-name="Path 1241981" d="M44.721,31a11.415,11.415,0,0,0-1.221.068,11.4,11.4,0,0,1,0,22.66A11.4,11.4,0,1,0,44.721,31Z" transform="translate(-8.085 -5.762)" fill="#cfd8dc"/>
      <path id="Path_1241982" data-name="Path 1241982" d="M49.31,45.858a2.442,2.442,0,0,1,0,3.452,2.437,2.437,0,0,1-3.452,0l-2.345-2.345L41.168,49.31a2.442,2.442,0,0,1-3.452,0,2.437,2.437,0,0,1,0-3.452l2.345-2.345-2.345-2.345a2.441,2.441,0,0,1,3.452-3.452l2.345,2.345,2.345-2.345a2.441,2.441,0,0,1,3.452,3.452l-2.345,2.345Z" transform="translate(-6.877 -6.878)" fill="#f44335"/>
      <path id="Path_1241983" data-name="Path 1241983" d="M48.682,43.515l2.345-2.345a2.436,2.436,0,0,0-2.947-3.829,2.4,2.4,0,0,1,.5.377,2.442,2.442,0,0,1,0,3.452L46.24,43.515l2.345,2.345a2.442,2.442,0,0,1,0,3.452,2.347,2.347,0,0,1-.5.38,2.437,2.437,0,0,0,2.947-3.832Z" transform="translate(-8.594 -6.879)" fill="#c81e1e"/>
      <path id="Path_1241984" data-name="Path 1241984" d="M36.2,24.446c.531-3.919,4.832-7,6.214-7.9a1.635,1.635,0,0,0,.521-2.165l-2.475-4.356a1.611,1.611,0,0,0-2.047-.688,8.947,8.947,0,0,1-7.568-.3c-3.3-1.662-3.172-5.6-2.963-7.207A1.62,1.62,0,0,0,26.28,0H16.868a1.619,1.619,0,0,0-1.6,1.831c.209,1.614.34,5.549-2.963,7.212a8.934,8.934,0,0,1-7.563.3,1.617,1.617,0,0,0-2.051.686L.211,14.384A1.636,1.636,0,0,0,.738,16.55C2.207,17.5,7,20.946,7,25.238,7,29.7,2.586,34.319,1.242,35.619A1.609,1.609,0,0,0,.953,37.6l2.471,4.354a1.622,1.622,0,0,0,2.324.529c1.535-1.064,5.49-3.372,9.031-1.843,2.72,1.177,4.273,4.8,5.107,6.754l.208.482a1.612,1.612,0,0,0,2.958.007l.223-.517a19.916,19.916,0,0,1,2.69-4.806A12.206,12.206,0,1,0,36.2,24.446ZM21.781,46.723l-.193.5-.2-.474c-.924-2.157-2.643-6.174-5.958-7.608-4.293-1.853-8.846.781-10.589,2L2.366,36.8C4.249,34.977,8.63,30.2,8.63,25.238s-4.9-8.688-7-10.051l2.464-4.352a10.576,10.576,0,0,0,8.942-.339c4.233-2.13,4.1-6.917,3.835-8.868l9.4-.007c-.254,1.959-.389,6.746,3.844,8.876a10.527,10.527,0,0,0,8.932.335l2.479,4.353c-2.017,1.307-6.583,4.772-6.968,9.43a12.164,12.164,0,0,0-9.332,16.335,19.455,19.455,0,0,0-3.445,5.773Zm14.855.5A10.584,10.584,0,1,1,47.22,36.636,10.6,10.6,0,0,1,36.636,47.22Z" transform="translate(0)"/>
      <path id="Path_1241985" data-name="Path 1241985" d="M49.7,36.956a3.257,3.257,0,0,0-4.6,0l-1.769,1.769-1.769-1.769a3.255,3.255,0,0,0-4.6,4.6l1.769,1.769L36.96,45.092a3.255,3.255,0,1,0,4.6,4.608l1.769-1.769L45.091,49.7A3.255,3.255,0,1,0,49.7,45.1L47.93,43.328,49.7,41.559A3.258,3.258,0,0,0,49.7,36.956Zm-1.151,3.452L46.2,42.752a.813.813,0,0,0,0,1.151l2.345,2.345a1.63,1.63,0,0,1,0,2.306,1.66,1.66,0,0,1-2.3,0L43.9,46.2a.814.814,0,0,0-1.151,0l-2.345,2.345a1.627,1.627,0,1,1-2.3-2.3L40.451,43.9a.813.813,0,0,0,0-1.151l-2.345-2.345a1.627,1.627,0,0,1,2.3-2.3l2.345,2.345a.813.813,0,0,0,1.151,0l2.345-2.345a1.627,1.627,0,0,1,2.3,2.3Z" transform="translate(-6.691 -6.692)"/>
    </g>
  </g>
</svg>
