<svg xmlns="http://www.w3.org/2000/svg" width="76.246" height="76.246" viewBox="0 0 76.246 76.246">
  <g id="Group_1099754" data-name="Group 1099754" transform="translate(705 5793)">
    <g id="Group_1099710" data-name="Group 1099710" transform="translate(-1793.051 -6679)">
      <g id="Group_1099487" data-name="Group 1099487" transform="translate(69.051 -5878)">
        <g id="Group_1098742" data-name="Group 1098742" transform="translate(1019 6764)">
          <rect id="Rectangle_400898" data-name="Rectangle 400898" width="76.246" height="76.246" rx="38.123" transform="translate(0 0)" fill="#d0c110"/>
          <rect id="Rectangle_400907" data-name="Rectangle 400907" width="76.246" height="76.246" rx="38.123" transform="translate(0 0)" fill="none"/>
        </g>
      </g>
    </g>
    <g id="billetera_1_" data-name="billetera (1)" transform="translate(-690 -5811.078)">
      <g id="Group_1099751" data-name="Group 1099751" transform="translate(0.704 35.782)">
        <g id="Group_1099750" data-name="Group 1099750">
          <g id="Group_1099749" data-name="Group 1099749">
            <path id="Path_1241962" data-name="Path 1241962" d="M47.323,82.645H10.538A3.038,3.038,0,0,1,7.5,79.608V45.616a3.038,3.038,0,0,1,3.038-3.038H47.323a4.9,4.9,0,0,1,4.9,4.9V77.741A4.9,4.9,0,0,1,47.323,82.645Z" transform="translate(-7.5 -42.578)" fill="#e7a561"/>
            <path id="Path_1241963" data-name="Path 1241963" d="M382.253,42.578h-5.127a4.9,4.9,0,0,1,4.9,4.9V77.741a4.9,4.9,0,0,1-4.9,4.9h5.127a4.9,4.9,0,0,0,4.9-4.9V47.482A4.9,4.9,0,0,0,382.253,42.578Z" transform="translate(-342.43 -42.578)" fill="#e28424"/>
            <path id="Path_1241964" data-name="Path 1241964" d="M332.249,208.29h-10.2a5.514,5.514,0,1,1,0-11.027h10.2a1.927,1.927,0,0,1,1.927,1.927v7.174A1.927,1.927,0,0,1,332.249,208.29Z" transform="translate(-287.523 -182.743)" fill="#e28424"/>
            <path id="Path_1241965" data-name="Path 1241965" d="M434.482,197.263h-5.127a1.927,1.927,0,0,1,1.927,1.927v7.174a1.927,1.927,0,0,1-1.927,1.927h5.127a1.927,1.927,0,0,0,1.927-1.927V199.19A1.927,1.927,0,0,0,434.482,197.263Z" transform="translate(-389.756 -182.743)" fill="#df751c"/>
          </g>
          <circle id="Ellipse_11604" data-name="Ellipse 11604" cx="2.217" cy="2.217" r="2.217" transform="translate(32.325 17.817)" fill="#ffd064"/>
        </g>
      </g>
      <g id="Group_1099753" data-name="Group 1099753" transform="translate(0 35.078)">
        <g id="Group_1099752" data-name="Group 1099752" transform="translate(0 0)">
          <path id="Path_1241966" data-name="Path 1241966" d="M298.334,400.558h3.716a.7.7,0,1,0,0-1.408h-3.716a.7.7,0,1,0,0,1.408Z" transform="translate(-269.692 -364.975)"/>
          <path id="Path_1241967" data-name="Path 1241967" d="M219.154,400.558h3.716a.7.7,0,1,0,0-1.408h-3.716a.7.7,0,1,0,0,1.408Z" transform="translate(-197.944 -364.975)"/>
          <path id="Path_1241968" data-name="Path 1241968" d="M139.974,400.558h3.716a.7.7,0,1,0,0-1.408h-3.716a.7.7,0,1,0,0,1.408Z" transform="translate(-126.197 -364.975)"/>
          <path id="Path_1241969" data-name="Path 1241969" d="M376.81,399.854a.7.7,0,0,0,.7.7h3.716a.7.7,0,1,0,0-1.408h-3.716A.7.7,0,0,0,376.81,399.854Z" transform="translate(-341.439 -364.975)"/>
          <path id="Path_1241970" data-name="Path 1241970" d="M64.51,399.15H60.794a.7.7,0,1,0,0,1.408H64.51a.7.7,0,1,0,0-1.408Z" transform="translate(-54.449 -364.975)"/>
          <path id="Path_1241971" data-name="Path 1241971" d="M139.974,99.259h3.716a.7.7,0,1,0,0-1.408h-3.716a.7.7,0,0,0,0,1.408Z" transform="translate(-126.197 -91.959)"/>
          <path id="Path_1241972" data-name="Path 1241972" d="M64.51,97.851H60.794a.7.7,0,0,0,0,1.408H64.51a.7.7,0,1,0,0-1.408Z" transform="translate(-54.449 -91.959)"/>
          <path id="Path_1241973" data-name="Path 1241973" d="M219.154,99.259h3.716a.7.7,0,0,0,0-1.408h-3.716a.7.7,0,0,0,0,1.408Z" transform="translate(-197.944 -91.959)"/>
          <path id="Path_1241974" data-name="Path 1241974" d="M298.334,99.259h3.716a.7.7,0,0,0,0-1.408h-3.716a.7.7,0,0,0,0,1.408Z" transform="translate(-269.692 -91.959)"/>
          <path id="Path_1241975" data-name="Path 1241975" d="M381.23,99.259a.7.7,0,1,0,0-1.408h-3.716a.7.7,0,1,0,0,1.408Z" transform="translate(-341.439 -91.959)"/>
          <path id="Path_1241976" data-name="Path 1241976" d="M46.135,49.695V40.686a5.615,5.615,0,0,0-5.608-5.608H9.258a.7.7,0,0,0,0,1.408H40.527a4.2,4.2,0,0,1,4.2,4.2v.284h-1.22a.7.7,0,1,0,0,1.408h1.22V49.6h-9.5a6.218,6.218,0,1,0,0,12.435h.591a.7.7,0,0,0,0-1.408h-.591a4.81,4.81,0,1,1,0-9.619h10.2a1.224,1.224,0,0,1,1.223,1.223V59.4a1.224,1.224,0,0,1-1.222,1.223H39.108a.7.7,0,1,0,0,1.408h5.618c0,8.616,0,.413,0,7.22H43.507a.7.7,0,1,0,0,1.408h1.22v.284a4.2,4.2,0,0,1-4.2,4.2H3.742a2.336,2.336,0,0,1-2.334-2.334V70.661h1.22a.7.7,0,1,0,0-1.408H1.408V42.378h1.22a.7.7,0,1,0,0-1.408H1.408V38.82a2.336,2.336,0,0,1,2.334-2.334h2.2a.7.7,0,1,0,0-1.408h-2.2A3.746,3.746,0,0,0,0,38.82V72.811a3.746,3.746,0,0,0,3.742,3.742H40.527a5.615,5.615,0,0,0,5.608-5.608c0-7.326,0-1.16,0-9.008A2.635,2.635,0,0,0,48.061,59.4V52.229a2.635,2.635,0,0,0-1.925-2.534Z" transform="translate(0 -35.078)"/>
          <path id="Path_1241977" data-name="Path 1241977" d="M347.281,224.883A2.921,2.921,0,1,0,350.2,227.8,2.924,2.924,0,0,0,347.281,224.883Zm0,4.434a1.513,1.513,0,1,1,1.513-1.513A1.515,1.515,0,0,1,347.281,229.317Z" transform="translate(-312.035 -207.066)"/>
        </g>
      </g>
    </g>
  </g>
</svg>
