<svg xmlns="http://www.w3.org/2000/svg" width="76.246" height="76.246" viewBox="0 0 76.246 76.246">
  <g id="Group_1099644" data-name="Group 1099644" transform="translate(-773.051 -886)">
    <g id="Group_1099486" data-name="Group 1099486" transform="translate(-245.949 -5878)">
      <g id="Group_1098742" data-name="Group 1098742" transform="translate(1019 6764)">
        <rect id="Rectangle_400898" data-name="Rectangle 400898" width="76.246" height="76.246" rx="38.123" transform="translate(0 0)" fill="#d0c110"/>
        <rect id="Rectangle_400907" data-name="Rectangle 400907" width="76.246" height="76.246" rx="38.123" transform="translate(0 0)" fill="none"/>
      </g>
    </g>
    <g id="ficha1" transform="translate(746.977 897.96)">
      <path id="Path_1241709" data-name="Path 1241709" d="M79.766,8.4l9.577,37.081a2.8,2.8,0,0,1-2.006,3.41L61.473,55.574a2.8,2.8,0,0,1-3.41-2.006L48.487,16.477a2.8,2.8,0,0,1,2.006-3.41L76.356,6.387A2.8,2.8,0,0,1,79.766,8.4Z" transform="translate(-4.798 -4.738)" fill="#e77c6a"/>
      <path id="Path_1241710" data-name="Path 1241710" d="M79.676,8.4l.178.692a5.864,5.864,0,0,1-.959,4.951l-1.087,1.473a5.839,5.839,0,0,1-3.251,2.194L57.38,22.15a5.84,5.84,0,0,1-3.9-.346l-1.67-.761a5.883,5.883,0,0,1-3.242-3.864l-.178-.692a2.8,2.8,0,0,1,2.006-3.41L76.266,6.387A2.8,2.8,0,0,1,79.676,8.4Z" transform="translate(-4.707 -4.738)" fill="#f1b2a3"/>
      <path id="Path_1241711" data-name="Path 1241711" d="M159.7,8.4l9.577,37.081a2.8,2.8,0,0,1-2.006,3.41l-25.864,6.681A2.8,2.8,0,0,1,138,53.568l-.9-3.469a32.306,32.306,0,0,0,20.379-38.494l-1.324-5.179.148-.04A2.79,2.79,0,0,1,159.7,8.4Z" transform="translate(-84.734 -4.738)" opacity="0.1"/>
      <path id="Path_1241712" data-name="Path 1241712" d="M126.251,36.431V75.459a2.429,2.429,0,0,1-2.431,2.431H96.731A2.429,2.429,0,0,1,94.3,75.459V36.431A2.429,2.429,0,0,1,96.731,34H123.82A2.429,2.429,0,0,1,126.251,36.431Z" transform="translate(-46.164 -29.702)" fill="#e8f1f8"/>
      <path id="Path_1241713" data-name="Path 1241713" d="M126.351,36.341V75.369A2.429,2.429,0,0,1,123.92,77.8H96.831A2.429,2.429,0,0,1,94.4,75.369V73.886A29.519,29.519,0,0,0,121,44.514V33.9h2.915A2.444,2.444,0,0,1,126.351,36.341Z" transform="translate(-46.254 -29.612)" opacity="0.1"/>
      <path id="Path_1241714" data-name="Path 1241714" d="M143.492,91.946a4.546,4.546,0,1,1-4.546-4.546A4.547,4.547,0,0,1,143.492,91.946Z" transform="translate(-82.301 -77.825)" fill="#f14f4a"/>
      <path id="Path_1241715" data-name="Path 1241715" d="M143.492,214.546A4.546,4.546,0,1,1,138.946,210,4.547,4.547,0,0,1,143.492,214.546Z" transform="translate(-82.301 -188.308)" fill="#0e9c4a"/>
      <path id="Path_1241716" data-name="Path 1241716" d="M143.492,337.046a4.546,4.546,0,1,1-4.546-4.546A4.547,4.547,0,0,1,143.492,337.046Z" transform="translate(-82.301 -298.702)" fill="#f78721"/>
      <g id="Group_1099643" data-name="Group 1099643" transform="translate(43.074 1.04)">
        <path id="Path_1241717" data-name="Path 1241717" d="M85.059,40.608,80.621,23.431V6.729a2.957,2.957,0,0,0-2.955-2.955H75.542l-.059-.237A3.329,3.329,0,0,0,71.43,1.145L61.251,3.774H50.577a2.959,2.959,0,0,0-2.965,2.955v.563l-2.046.534a3.346,3.346,0,0,0-2.392,4.052l4.437,17.167V45.757a2.957,2.957,0,0,0,2.955,2.955h2.125l.059.237A3.321,3.321,0,0,0,56.8,51.34l10.16-2.619H77.657a2.957,2.957,0,0,0,2.955-2.955v-.573l2.046-.534a3.352,3.352,0,0,0,2.4-4.052ZM74.454,3.774h-9L71.7,2.163A2.273,2.273,0,0,1,74.454,3.774ZM44.193,11.611a2.293,2.293,0,0,1,1.641-2.777l1.779-.455v7.57l-.287-.138a5.7,5.7,0,0,1-3.133-4.2Zm1.057,4.072a6.126,6.126,0,0,0,1.641,1.077l.731.336v7.738Zm11.286,34.63A2.26,2.26,0,0,1,53.779,48.7h8.984Zm23.027-4.556a1.909,1.909,0,0,1-1.907,1.907H50.567a1.915,1.915,0,0,1-1.907-1.907V6.729a1.909,1.909,0,0,1,1.907-1.907c30.884.01,26.7.01,27.089,0a1.909,1.909,0,0,1,1.907,1.907ZM82.4,43.642l-1.789.464V27.631l3.429,13.233A2.293,2.293,0,0,1,82.4,43.642Z" transform="translate(-43.074 -1.04)"/>
        <path id="Path_1241718" data-name="Path 1241718" d="M161.181,119.246a.519.519,0,0,0,0,.741l.761.761a.519.519,0,0,0,.741,0l2.026-2.026a.524.524,0,0,0-.741-.741l-1.66,1.66-.385-.385A.511.511,0,0,0,161.181,119.246Z" transform="translate(-149.368 -106.283)"/>
        <path id="Path_1241719" data-name="Path 1241719" d="M264.413,110.9H252.524a.524.524,0,1,0,0,1.048h11.889a.527.527,0,0,0,.524-.524A.521.521,0,0,0,264.413,110.9Z" transform="translate(-231.352 -100.043)"/>
        <path id="Path_1241720" data-name="Path 1241720" d="M252.524,146.448h7.531a.524.524,0,0,0,0-1.048h-7.531a.524.524,0,1,0,0,1.048Z" transform="translate(-231.352 -131.133)"/>
        <path id="Path_1241721" data-name="Path 1241721" d="M163.958,240.581l-1.65,1.65-.385-.385a.524.524,0,0,0-.741.741l.761.761a.519.519,0,0,0,.741,0l2.026-2.026a.519.519,0,0,0,0-.741A.531.531,0,0,0,163.958,240.581Z" transform="translate(-149.368 -216.767)"/>
        <path id="Path_1241722" data-name="Path 1241722" d="M264.413,233.4H252.524a.524.524,0,1,0,0,1.048h11.889a.527.527,0,0,0,.524-.524A.521.521,0,0,0,264.413,233.4Z" transform="translate(-231.352 -210.436)"/>
        <path id="Path_1241723" data-name="Path 1241723" d="M252.524,269.048h7.531a.524.524,0,1,0,0-1.048h-7.531a.524.524,0,1,0,0,1.048Z" transform="translate(-231.352 -241.617)"/>
        <path id="Path_1241724" data-name="Path 1241724" d="M163.958,363.181l-1.65,1.65-.385-.385a.524.524,0,0,0-.741.741l.761.761a.519.519,0,0,0,.741,0l2.026-2.026a.519.519,0,0,0,0-.741A.531.531,0,0,0,163.958,363.181Z" transform="translate(-149.368 -327.25)"/>
        <path id="Path_1241725" data-name="Path 1241725" d="M264.413,356H252.524a.524.524,0,1,0,0,1.048h11.889a.527.527,0,0,0,.524-.524A.521.521,0,0,0,264.413,356Z" transform="translate(-231.352 -320.92)"/>
        <path id="Path_1241726" data-name="Path 1241726" d="M260.055,390.5h-7.531a.524.524,0,0,0,0,1.048h7.531a.524.524,0,0,0,0-1.048Z" transform="translate(-231.352 -352.01)"/>
        <path id="Path_1241727" data-name="Path 1241727" d="M134.07,92.24A5.07,5.07,0,1,0,129,87.17h0A5.074,5.074,0,0,0,134.07,92.24Zm0-9.092a4.022,4.022,0,1,1-4.012,4.022A4.026,4.026,0,0,1,134.07,83.148Z" transform="translate(-120.508 -74.089)"/>
        <path id="Path_1241728" data-name="Path 1241728" d="M134.17,204.7a5.075,5.075,0,1,0,5.08,5.07A5.074,5.074,0,0,0,134.17,204.7Zm0,9.092a4.022,4.022,0,1,1,4.022-4.022A4.032,4.032,0,0,1,134.17,213.792Z" transform="translate(-120.598 -184.572)"/>
        <path id="Path_1241729" data-name="Path 1241729" d="M134.17,327.2a5.075,5.075,0,1,0,5.08,5.07A5.074,5.074,0,0,0,134.17,327.2Zm0,9.1a4.022,4.022,0,1,1,4.022-4.022A4.032,4.032,0,0,1,134.17,336.3Z" transform="translate(-120.598 -294.966)"/>
      </g>
    </g>
  </g>
</svg>
