<svg xmlns="http://www.w3.org/2000/svg" width="76.246" height="76.246" viewBox="0 0 76.246 76.246">
  <g id="Group_1099771" data-name="Group 1099771" transform="translate(-1236.051 -14093)">
    <g id="Group_1099760" data-name="Group 1099760" transform="translate(463 875)">
      <g id="Group_1099626" data-name="Group 1099626" transform="translate(-245.949 6454)">
        <g id="Group_1098742" data-name="Group 1098742" transform="translate(1019 6764)">
          <rect id="Rectangle_400898" data-name="Rectangle 400898" width="76.246" height="76.246" rx="38.123" transform="translate(0 0)" fill="#6ab4a8"/>
          <rect id="Rectangle_400907" data-name="Rectangle 400907" width="76.246" height="76.246" rx="38.123" transform="translate(0 0)" fill="none"/>
        </g>
      </g>
    </g>
    <g id="cartera" transform="translate(1247.78 14095.838)">
      <path id="Path_1242024" data-name="Path 1242024" d="M62.994,30.76H27.82L53.087,19.386a2.731,2.731,0,0,1,3.429,1.03Z" transform="translate(-20.083 -3.258)" fill="#44c7b6"/>
      <path id="Path_1242025" data-name="Path 1242025" d="M171.952,30.76h-3.422l-6.135-9.8a2.724,2.724,0,0,0-1.385-1.11l1.035-.466a2.731,2.731,0,0,1,3.429,1.03Z" transform="translate(-129.041 -3.258)" fill="#3bb2a0"/>
      <path id="Path_1242026" data-name="Path 1242026" d="M56.833,20.919,34.974,30.76H27.82L53.087,19.386a2.731,2.731,0,0,1,3.429,1.03Z" transform="translate(-20.083 -3.258)" fill="#4bdbc3"/>
      <path id="Path_1242027" data-name="Path 1242027" d="M48.472,107.729H10A2.729,2.729,0,0,1,7.271,105V81.744A2.729,2.729,0,0,1,10,79.015H48.472A2.729,2.729,0,0,1,51.2,81.744V105A2.729,2.729,0,0,1,48.472,107.729Z" transform="translate(-3.272 -52.236)" fill="#ffbb98"/>
      <path id="Path_1242028" data-name="Path 1242028" d="M12.728,107.726H10A2.73,2.73,0,0,1,7.27,105V81.74A2.73,2.73,0,0,1,10,79.011h2.729A2.73,2.73,0,0,0,10,81.74V105A2.73,2.73,0,0,0,12.728,107.726Z" transform="translate(-3.271 -52.233)" fill="#ffcaa6"/>
      <path id="Path_1242029" data-name="Path 1242029" d="M224.188,81.74V105a2.73,2.73,0,0,1-2.729,2.729H218.73A2.73,2.73,0,0,0,221.459,105V81.74a2.73,2.73,0,0,0-2.729-2.729h2.729A2.73,2.73,0,0,1,224.188,81.74Z" transform="translate(-176.259 -52.233)" fill="#ffaa80"/>
      <path id="Path_1242030" data-name="Path 1242030" d="M7.271,112.24H51.2v16.624H7.271Z" transform="translate(-3.272 -79.416)" fill="#b76c6c"/>
      <path id="Path_1242031" data-name="Path 1242031" d="M7.27,112.241H10v16.623H7.27Z" transform="translate(-3.271 -79.417)" fill="#c98585"/>
      <path id="Path_1242032" data-name="Path 1242032" d="M233.73,112.241h2.729v16.623H233.73Z" transform="translate(-188.53 -79.417)" fill="#965959"/>
      <g id="Group_1099770" data-name="Group 1099770" transform="translate(3.271 15.162)">
        <path id="Path_1242033" data-name="Path 1242033" d="M45.2,26.051H42.921l-5.872-9.284a3.472,3.472,0,0,0-4.344-1.3L9.251,26.051H6.728a3.461,3.461,0,0,0-3.457,3.457V52.763A3.461,3.461,0,0,0,6.728,56.22H45.2a3.461,3.461,0,0,0,3.457-3.457V29.508A3.461,3.461,0,0,0,45.2,26.051Zm-11.9-9.26a2.009,2.009,0,0,1,2.515.754l5.38,8.506H12.789ZM6.728,27.507H45.2a2,2,0,0,1,2,2V32.1H4.726V29.508A2,2,0,0,1,6.728,27.507ZM47.2,48.72H4.726V33.551H47.2V48.72Zm-2,6.045H6.728a2,2,0,0,1-2-2V50.175H47.2v2.588A2,2,0,0,1,45.2,54.765Z" transform="translate(-3.271 -15.162)" fill="#5f266d"/>
        <path id="Path_1242034" data-name="Path 1242034" d="M221.728,177.866h.728a.728.728,0,0,0,0-1.455h-.728a.728.728,0,1,0,0,1.455Z" transform="translate(-181.387 -147.074)" fill="#5f266d"/>
        <path id="Path_1242035" data-name="Path 1242035" d="M185.728,177.866h3.821a.728.728,0,0,0,0-1.455h-3.821a.728.728,0,1,0,0,1.455Z" transform="translate(-151.937 -147.074)" fill="#5f266d"/>
      </g>
    </g>
  </g>
</svg>
