<svg xmlns="http://www.w3.org/2000/svg" width="76.246" height="76.246" viewBox="0 0 76.246 76.246">
  <g id="Group_1099772" data-name="Group 1099772" transform="translate(-925.051 -14093)">
    <g id="Group_1099759" data-name="Group 1099759" transform="translate(152 875)">
      <g id="Group_1099626" data-name="Group 1099626" transform="translate(-245.949 6454)">
        <g id="Group_1098742" data-name="Group 1098742" transform="translate(1019 6764)">
          <rect id="Rectangle_400898" data-name="Rectangle 400898" width="76.246" height="76.246" rx="38.123" transform="translate(0 0)" fill="#6ab4a8"/>
          <rect id="Rectangle_400907" data-name="Rectangle 400907" width="76.246" height="76.246" rx="38.123" transform="translate(0 0)" fill="none"/>
        </g>
      </g>
    </g>
    <g id="bolsa-de-la-compra" transform="translate(940.051 14038)">
      <g id="Group_1099768" data-name="Group 1099768" transform="translate(0.684 77.684)">
        <path id="Path_1242005" data-name="Path 1242005" d="M52.693,115.585H9.575a.912.912,0,0,1-.912-.912L8.58,85.581a.912.912,0,0,1,.912-.912l1-.17H52.875a.912.912,0,0,1,.912.912v18.179l-.707,1.786.707,1.786v6.6l-.182.912A.912.912,0,0,1,52.693,115.585Z" transform="translate(-8.482 -84.5)" fill="#ffe07d"/>
        <g id="Group_1099763" data-name="Group 1099763" transform="translate(0 0)">
          <path id="Path_1242006" data-name="Path 1242006" d="M52.805,293.93V297.5H7.51l.993-1.786-1-1.786Z" transform="translate(-7.5 -274.839)" fill="#ffd064"/>
          <path id="Path_1242007" data-name="Path 1242007" d="M52.805,113.761v1.094a.912.912,0,0,1-.912.912H8.412a.912.912,0,0,1-.912-.912V85.412a.912.912,0,0,1,.912-.912H9.505v27.438a1.823,1.823,0,0,0,1.823,1.823Z" transform="translate(-7.5 -84.5)" fill="#ffd064"/>
          <path id="Path_1242008" data-name="Path 1242008" d="M52.805,113.761v1.094a.912.912,0,0,1-.912.912H8.412a.912.912,0,0,1-.912-.912v-7.693l.594-1.41L7.5,103.591V85.412a.912.912,0,0,1,.912-.912H9.505v27.438a1.823,1.823,0,0,0,1.823,1.823Z" transform="translate(-7.5 -84.5)" fill="#ffd064"/>
        </g>
        <path id="Path_1242009" data-name="Path 1242009" d="M9.505,293.93V297.5h-2L7.5,293.93Z" transform="translate(-7.5 -274.839)" fill="#ffc250"/>
        <g id="Group_1099767" data-name="Group 1099767" transform="translate(14.256 11.625)">
          <path id="Path_1242010" data-name="Path 1242010" d="M177.795,212.028h-5.772l-.753.126a1.788,1.788,0,0,0-1.549.895l-3.166,5.607a1.788,1.788,0,0,0,0,1.786l3.213,5.463a1.788,1.788,0,0,0,1.549.895l6.451.129a1.788,1.788,0,0,0,1.549-.895l.438-.574,2.894-5.019a1.787,1.787,0,0,0,.239-.893l-.525-.825-3.469-5.523-.2-.931A1.786,1.786,0,0,0,177.795,212.028Z" transform="translate(-166.094 -212.028)" fill="#6fbbc6"/>
          <g id="Group_1099764" data-name="Group 1099764" transform="translate(0 0.242)">
            <path id="Path_1242011" data-name="Path 1242011" d="M265.707,221.964h-8.265l4.07-7.278a1.773,1.773,0,0,1,.651.653l3.306,5.732A1.791,1.791,0,0,1,265.707,221.964Z" transform="translate(-248.914 -214.686)" fill="#94ccd4"/>
            <path id="Path_1242012" data-name="Path 1242012" d="M172.109,221.963h-8.223c0-.307.237-.514.4-.79l3.161-5.626a2.456,2.456,0,0,1,.638-.862Z" transform="translate(-163.886 -214.685)" fill="#94ccd4"/>
            <path id="Path_1242013" data-name="Path 1242013" d="M220.09,304.677c-.2.073-.612-.123-.829-.123l-6.271.1a2.483,2.483,0,0,1-.821,0l3.973-7.105Z" transform="translate(-207.768 -289.991)" fill="#94ccd4"/>
          </g>
          <path id="Path_1242014" data-name="Path 1242014" d="M217.948,258.269l-1.982-3.355a.268.268,0,0,0-.231-.132h-3.976a.267.267,0,0,0-.231.132l-1.983,3.355a.271.271,0,0,0,0,.273l1.983,3.355a.267.267,0,0,0,.231.132h3.976a.268.268,0,0,0,.231-.132l1.982-3.355A.268.268,0,0,0,217.948,258.269Z" transform="translate(-205.35 -250.885)" fill="#61aab8"/>
          <g id="Group_1099766" data-name="Group 1099766" transform="translate(0 0)">
            <path id="Path_1242015" data-name="Path 1242015" d="M168.86,216.1l-3.341,5.78a.179.179,0,0,0-.024.089l-.737.351-.872-.351a1.788,1.788,0,0,1,.239-.893l3.306-5.732a1.793,1.793,0,0,1,.65-.652l.674.462Z" transform="translate(-163.886 -214.445)" fill="#6fbbc6"/>
            <g id="Group_1099765" data-name="Group 1099765">
              <path id="Path_1242016" data-name="Path 1242016" d="M210.683,213.68l-.779-1.409a1.789,1.789,0,0,1,.9-.242h.836Z" transform="translate(-205.709 -212.029)" fill="#61aab8"/>
              <path id="Path_1242017" data-name="Path 1242017" d="M169.108,300.436l-.194.863-.627.605a1.782,1.782,0,0,1-.856-.754l-3.306-5.733a1.789,1.789,0,0,1-.239-.893h1.609a.174.174,0,0,0,.024.089l3.305,5.733a.178.178,0,0,0,.155.089h.13Z" transform="translate(-163.885 -287.004)" fill="#61aab8"/>
              <path id="Path_1242018" data-name="Path 1242018" d="M292.143,359.378l-.412.714a1.786,1.786,0,0,1-.926.782l-.63-.588-.2-.909Z" transform="translate(-278.482 -345.946)" fill="#61aab8"/>
            </g>
            <path id="Path_1242019" data-name="Path 1242019" d="M220.089,360.874a1.8,1.8,0,0,1-.622.113H212.86a1.783,1.783,0,0,1-.692-.14l.821-1.469h6.271Z" transform="translate(-207.767 -345.946)" fill="#6fbbc6"/>
          </g>
          <path id="Path_1242020" data-name="Path 1242020" d="M254.394,294.523l-.154.275-.152-.275Z" transform="translate(-245.865 -287.003)"/>
        </g>
        <circle id="Ellipse_11606" data-name="Ellipse 11606" cx="1.367" cy="1.367" r="1.367" transform="translate(8.204 2.735)" fill="#ffd064"/>
        <circle id="Ellipse_11607" data-name="Ellipse 11607" cx="1.367" cy="1.367" r="1.367" transform="translate(34.366 2.735)" fill="#ffd064"/>
      </g>
      <g id="Group_1099769" data-name="Group 1099769" transform="translate(0 77)">
        <path id="Path_1242021" data-name="Path 1242021" d="M45.989,88.809a.684.684,0,0,0,.684-.684V78.6a1.6,1.6,0,0,0-1.6-1.6H1.6A1.6,1.6,0,0,0,0,78.6v29.444a1.6,1.6,0,0,0,1.6,1.6H30.811a.684.684,0,0,0,0-1.367H1.6a.228.228,0,0,1-.228-.228V101.03H7.244a.684.684,0,1,0,0-1.367H1.367v-2.2H14.643a2.493,2.493,0,0,0,.254.623l.912,1.581H10.433a.684.684,0,1,0,0,1.367H16.6l1.435,2.488a2.514,2.514,0,0,0,2.172,1.255h6.266a2.513,2.513,0,0,0,2.172-1.255l1.435-2.488h15.23v7.009a.228.228,0,0,1-.228.228H34.006a.684.684,0,0,0,0,1.367H45.077a1.6,1.6,0,0,0,1.6-1.6V91.314a.684.684,0,1,0-1.367,0v4.777H32a2.492,2.492,0,0,0-.222-.514L28.641,90.14a2.513,2.513,0,0,0-2.172-1.255H20.2a2.513,2.513,0,0,0-2.172,1.255L14.9,95.577a2.487,2.487,0,0,0-.222.514H1.367V78.6a.228.228,0,0,1,.228-.228H45.077a.228.228,0,0,1,.228.228v9.53A.684.684,0,0,0,45.989,88.809Zm-29.841,8.7h2.666l1.65,2.792L19.138,102.7Zm8.871-4.865H21.636L20.31,90.253h6.047ZM21.66,94.015h3.353l1.663,2.814-1.663,2.814H21.66L20,96.829Zm-.024,7h3.382l1.339,2.395H20.31Zm5.9,1.694L26.2,100.322l1.66-2.809h2.666Zm17.774-3.042H30.864l.912-1.581a2.49,2.49,0,0,0,.254-.623H45.305Zm-14.78-3.517H27.86L26.2,93.336l1.332-2.382ZM19.138,90.959l1.325,2.394-1.65,2.792H16.147Z" transform="translate(0 -77)"/>
        <path id="Path_1242022" data-name="Path 1242022" d="M92.051,107a2.051,2.051,0,1,0,1.355,3.589A27,27,0,0,0,96.932,112a.716.716,0,0,0,.859-.443.684.684,0,0,0-.443-.859,25.642,25.642,0,0,1-3.276-1.3A2.049,2.049,0,0,0,92.051,107Zm0,2.735a.684.684,0,1,1,.684-.684A.684.684,0,0,1,92.051,109.735Z" transform="translate(-81.796 -104.265)"/>
        <path id="Path_1242023" data-name="Path 1242023" d="M195.69,111.462a.684.684,0,1,0-.255,1.344,26.758,26.758,0,0,0,4.981.466,27.082,27.082,0,0,0,11.76-2.683,2.051,2.051,0,1,0-.667-1.2,25.7,25.7,0,0,1-15.819,2.07Zm17.842-3.1a.684.684,0,1,1-.684.684A.684.684,0,0,1,213.531,108.367Z" transform="translate(-177.114 -104.265)"/>
      </g>
    </g>
  </g>
</svg>
