<svg xmlns="http://www.w3.org/2000/svg" xmlns:xlink="http://www.w3.org/1999/xlink" width="76.246" height="76.246" viewBox="0 0 76.246 76.246">
  <defs>
    <clipPath id="clip-path">
      <path id="path1000" d="M0-682.665H45.557v45.557H0Z" transform="translate(0 682.665)"/>
    </clipPath>
  </defs>
  <g id="Group_1099761" data-name="Group 1099761" transform="translate(-291.051 -14093)">
    <g id="Group_1099757" data-name="Group 1099757" transform="translate(-482 875)">
      <g id="Group_1099626" data-name="Group 1099626" transform="translate(-245.949 6454)">
        <g id="Group_1098742" data-name="Group 1098742" transform="translate(1019 6764)">
          <rect id="Rectangle_400898" data-name="Rectangle 400898" width="76.246" height="76.246" rx="38.123" transform="translate(0 0)" fill="#6ab4a8"/>
          <rect id="Rectangle_400907" data-name="Rectangle 400907" width="76.246" height="76.246" rx="38.123" transform="translate(0 0)" fill="none"/>
        </g>
      </g>
    </g>
    <g id="g990" transform="translate(306.051 14790.665)">
      <g id="g992" transform="translate(0.89 -660.754)">
        <path id="path994" d="M-612.221-159.277l-21.889,11.389L-656-159.277l21.889-11.389Z" transform="translate(655.998 170.666)" fill="#98a1b3"/>
      </g>
      <g id="g996" transform="translate(0 -682.665)">
        <g id="g998" clip-path="url(#clip-path)">
          <g id="g1004" transform="translate(0 27.155)">
            <path id="path1006" d="M-495.2,5.088a.889.889,0,0,1-.411-.1L-517.5-6.4a.89.89,0,0,1-.479-.789.89.89,0,0,1,.479-.789l10.1-5.255a.89.89,0,0,1,1.2.379.89.89,0,0,1-.379,1.2l-8.583,4.466L-495.2,3.2l19.961-10.386-8.583-4.466a.89.89,0,0,1-.379-1.2.89.89,0,0,1,1.2-.379l10.1,5.256a.89.89,0,0,1,.479.789.89.89,0,0,1-.479.789L-494.79,4.988A.889.889,0,0,1-495.2,5.088Z" transform="translate(517.979 13.336)"/>
          </g>
        </g>
      </g>
      <g id="g1008" transform="translate(0.89 -671.264)">
        <path id="path1010" d="M-612.221-159.277l-21.889,11.389L-656-159.277l21.889-11.389Z" transform="translate(655.998 170.666)" fill="#d3d7df"/>
      </g>
      <g id="g1012" transform="translate(5.472 -663.131)">
        <path id="path1014" d="M-12.445-84.3a.89.89,0,0,1-.79-.479.89.89,0,0,1,.379-1.2l10-5.2a.89.89,0,0,1,1.2.379.89.89,0,0,1-.379,1.2l-10,5.2A.886.886,0,0,1-12.445-84.3Z" transform="translate(13.336 91.28)"/>
      </g>
      <g id="g1016" transform="translate(10.944 -660.281)">
        <path id="path1018" d="M-12.445-84.1a.89.89,0,0,1-.79-.479.89.89,0,0,1,.379-1.2l9.97-5.188a.89.89,0,0,1,1.2.379.89.89,0,0,1-.379,1.2l-9.97,5.188A.886.886,0,0,1-12.445-84.1Z" transform="translate(13.336 91.072)"/>
      </g>
      <g id="g1020" transform="translate(16.55 -663.595)">
        <path id="path1022" d="M-12.445-169.391a.89.89,0,0,1-.79-.478.89.89,0,0,1,.377-1.2L8.764-182.356a.89.89,0,0,1,1.2.377.89.89,0,0,1-.377,1.2l-21.622,11.286A.886.886,0,0,1-12.445-169.391Z" transform="translate(13.336 182.457)"/>
      </g>
      <g id="g1024" transform="translate(0 -682.665)">
        <g id="g1026" clip-path="url(#clip-path)">
          <g id="g1032" transform="translate(0 16.644)">
            <path id="path1034" d="M-496.068,4.639a.89.89,0,0,1-.411-.1L-518.368-6.851a.89.89,0,0,1-.479-.789.89.89,0,0,1,.479-.789l10.1-5.255a.89.89,0,0,1,1.2.379.89.89,0,0,1-.379,1.2l-8.583,4.466,19.961,10.386L-476.107-7.64l-8.525-4.436a.89.89,0,0,1-.379-1.2.89.89,0,0,1,1.2-.379l10.042,5.225a.89.89,0,0,1,.479.789.89.89,0,0,1-.479.789L-495.658,4.538A.889.889,0,0,1-496.068,4.639Z" transform="translate(518.847 13.785)"/>
          </g>
        </g>
      </g>
      <g id="g1036" transform="translate(0.89 -681.775)">
        <path id="path1038" d="M-612.221-159.277l-21.889,11.389L-656-159.277l21.889-11.389Z" transform="translate(655.998 170.666)" fill="#ffcb7c"/>
      </g>
      <g id="g1040" transform="translate(0 -682.665)">
        <g id="g1042" clip-path="url(#clip-path)">
          <g id="g1048" transform="translate(0 0)">
            <path id="path1050" d="M-535.772-101.8a.889.889,0,0,1-.411-.1l-21.889-11.389a.89.89,0,0,1-.479-.789.89.89,0,0,1,.479-.789l21.889-11.389a.89.89,0,0,1,.821,0l7.393,3.847a.89.89,0,0,1,.379,1.2.89.89,0,0,1-1.2.379l-6.982-3.633-19.961,10.386,19.961,10.386,19.961-10.386-5.876-3.057a.89.89,0,0,1-.379-1.2.89.89,0,0,1,1.2-.379l7.393,3.847a.89.89,0,0,1,.479.789.89.89,0,0,1-.479.789L-535.361-101.9A.89.89,0,0,1-535.772-101.8Z" transform="translate(558.551 126.357)"/>
          </g>
        </g>
      </g>
      <g id="g1052" transform="translate(33.723 -676.081)">
        <path id="path1054"/>
      </g>
    </g>
  </g>
</svg>
