<svg xmlns="http://www.w3.org/2000/svg" width="76.246" height="76.246" viewBox="0 0 76.246 76.246">
  <g id="Group_1099762" data-name="Group 1099762" transform="translate(-610.051 -14093)">
    <g id="Group_1099758" data-name="Group 1099758" transform="translate(-163 875)">
      <g id="Group_1099626" data-name="Group 1099626" transform="translate(-245.949 6454)">
        <g id="Group_1098742" data-name="Group 1098742" transform="translate(1019 6764)">
          <rect id="Rectangle_400898" data-name="Rectangle 400898" width="76.246" height="76.246" rx="38.123" transform="translate(0 0)" fill="#6ab4a8"/>
          <rect id="Rectangle_400907" data-name="Rectangle 400907" width="76.246" height="76.246" rx="38.123" transform="translate(0 0)" fill="none"/>
        </g>
      </g>
    </g>
    <g id="desgarrador-de-costuras" transform="translate(612.051 14095)">
      <path id="Path_1241986" data-name="Path 1241986" d="M24,24H41.355V62.715H24Z" transform="translate(-7.333 -7.333)" fill="#0093b9"/>
      <path id="Path_1241987" data-name="Path 1241987" d="M144,24h7.342V62.715H144Z" transform="translate(-117.32 -7.333)" fill="#fdc01e"/>
      <path id="Path_1241988" data-name="Path 1241988" d="M280,24h17.355V62.715H280Z" transform="translate(-241.973 -7.333)" fill="#0093b9"/>
      <path id="Path_1241989" data-name="Path 1241989" d="M280,24h7.342V62.715H280Z" transform="translate(-241.973 -7.333)" fill="#fdc01e"/>
      <path id="Path_1241990" data-name="Path 1241990" d="M55.382,16H38.027a.667.667,0,0,0-.667.667v2.67H34.69v-2.67A.667.667,0,0,0,34.022,16H16.667a.667.667,0,0,0-.667.667V55.382a.667.667,0,0,0,.667.667H34.022a.667.667,0,0,0,.667-.667v-2.67h2.67v2.67a.667.667,0,0,0,.667.667H55.382a.667.667,0,0,0,.667-.667V16.667A.667.667,0,0,0,55.382,16ZM37.36,20.672v3.183l-2.67-1.144V20.672Zm0,6.675H34.69V24.164l2.67,1.144Zm1.335-1.467,2.676,1.147a.167.167,0,0,1-.066.32h-2.61ZM37.36,35.357H34.69V32.174l2.67,1.144Zm1.335-1.467,2.676,1.147a.167.167,0,0,1-.066.32h-2.61ZM37.36,43.367H34.69V40.184l2.67,1.144ZM38.695,41.9l2.676,1.147a.167.167,0,0,1-.066.32h-2.61Zm-4,2.8h2.67v3.183l-2.67-1.144Zm-1.335,1.467-2.676-1.147a.167.167,0,0,1,.066-.32h2.61Zm1.335-7.438V36.692h2.67v3.183Zm-1.335-.572-2.676-1.147a.167.167,0,0,1,.066-.32h2.61Zm1.335-7.438V28.682h2.67v3.183Zm-1.335-.572L30.679,29a.167.167,0,0,1,.066-.32h2.61Zm0-8.01-2.676-1.147a.167.167,0,0,1,.066-.32h2.61Zm-16.02-4.8h8.677v37.38H17.335Zm16.02,37.38H27.347V17.335h6.007v2h-2.61a1.5,1.5,0,0,0-.592,2.882l3.2,1.372v3.755h-2.61a1.5,1.5,0,0,0-.592,2.882l3.2,1.372v3.755h-2.61a1.5,1.5,0,0,0-.592,2.882l3.2,1.372v3.755h-2.61a1.5,1.5,0,0,0-.592,2.882l3.2,1.372v3.755h-4v1.335h4Zm1.335-3.337V48.194l2.67,1.144v2.039Zm4-1.467,2.676,1.147a.167.167,0,0,1-.066.32h-2.61Zm0,2.8H41.3A1.5,1.5,0,0,0,41.9,49.83l-3.2-1.372V44.7H41.3A1.5,1.5,0,0,0,41.9,41.82l-3.2-1.372V36.692H41.3A1.5,1.5,0,0,0,41.9,33.81l-3.2-1.372V28.682H41.3A1.5,1.5,0,0,0,41.9,25.8l-3.2-1.372V20.672h4V19.337h-4v-2H44.7v37.38H38.695Zm16.02,2H46.037V17.335h8.677Z"/>
      <path id="Path_1241991" data-name="Path 1241991" d="M392,56h1.335v1.335H392Z" transform="translate(-344.628 -36.663)"/>
      <path id="Path_1241992" data-name="Path 1241992" d="M392,120h1.335v1.335H392Z" transform="translate(-344.628 -95.323)"/>
      <path id="Path_1241993" data-name="Path 1241993" d="M392,184h1.335v1.335H392Z" transform="translate(-344.628 -153.983)"/>
      <path id="Path_1241994" data-name="Path 1241994" d="M392,248h1.335v1.335H392Z" transform="translate(-344.628 -212.643)"/>
      <path id="Path_1241995" data-name="Path 1241995" d="M392,312h1.335v1.335H392Z" transform="translate(-344.628 -271.303)"/>
      <path id="Path_1241996" data-name="Path 1241996" d="M392,376h1.335v1.335H392Z" transform="translate(-344.628 -329.963)"/>
      <path id="Path_1241997" data-name="Path 1241997" d="M392,440h1.335v1.335H392Z" transform="translate(-344.628 -388.623)"/>
      <path id="Path_1241998" data-name="Path 1241998" d="M104,56h1.335v1.335H104Z" transform="translate(-80.658 -36.663)"/>
      <path id="Path_1241999" data-name="Path 1241999" d="M104,120h1.335v1.335H104Z" transform="translate(-80.658 -95.323)"/>
      <path id="Path_1242000" data-name="Path 1242000" d="M104,184h1.335v1.335H104Z" transform="translate(-80.658 -153.983)"/>
      <path id="Path_1242001" data-name="Path 1242001" d="M104,248h1.335v1.335H104Z" transform="translate(-80.658 -212.643)"/>
      <path id="Path_1242002" data-name="Path 1242002" d="M104,312h1.335v1.335H104Z" transform="translate(-80.658 -271.303)"/>
      <path id="Path_1242003" data-name="Path 1242003" d="M104,376h1.335v1.335H104Z" transform="translate(-80.658 -329.963)"/>
      <path id="Path_1242004" data-name="Path 1242004" d="M104,440h1.335v1.335H104Z" transform="translate(-80.658 -388.623)"/>
    </g>
  </g>
</svg>
