<svg xmlns="http://www.w3.org/2000/svg" xmlns:xlink="http://www.w3.org/1999/xlink" width="76.246" height="76.246" viewBox="0 0 76.246 76.246">
  <defs>
    <clipPath id="clip-path">
      <path id="path6546" d="M0-682.665H52.665V-630H0Z" transform="translate(0 682.665)"/>
    </clipPath>
  </defs>
  <g id="Group_1099777" data-name="Group 1099777" transform="translate(-342 -3829)">
    <g id="Group_1099712" data-name="Group 1099712" transform="translate(-100.051 -1970)">
      <g id="Group_1099706" data-name="Group 1099706" transform="translate(-331 4913)">
        <g id="Group_1099486" data-name="Group 1099486" transform="translate(-245.949 -5878)">
          <g id="Group_1098742" data-name="Group 1098742" transform="translate(1019 6764)">
            <rect id="Rectangle_400898" data-name="Rectangle 400898" width="76.246" height="76.246" rx="38.123" transform="translate(0 0)" fill="#d0c110"/>
            <rect id="Rectangle_400907" data-name="Rectangle 400907" width="76.246" height="76.246" rx="38.123" transform="translate(0 0)" fill="none"/>
          </g>
        </g>
      </g>
    </g>
    <g id="g6540" transform="translate(354 4523.665)">
      <g id="g6542" transform="translate(0 -682.665)">
        <g id="g6544" transform="translate(0 0)" clip-path="url(#clip-path)">
          <g id="g6550" transform="translate(12.426 21.78)">
            <path id="path6552" d="M-9.521,0h1.4a.8.8,0,0,1,.8.8V5.6a.8.8,0,0,1-.8.8h-1.4a.8.8,0,0,1-.8-.8V.8a.8.8,0,0,1,.8-.8" transform="translate(10.317)" fill="#796573" fill-rule="evenodd"/>
          </g>
          <g id="g6554" transform="translate(25.404 21.78)">
            <path id="path6556" d="M-9.557,0h1.4a.8.8,0,0,1,.8.8V5.6a.8.8,0,0,1-.8.8h-1.4a.8.8,0,0,1-.8-.8V.8a.8.8,0,0,1,.8-.8" transform="translate(10.356)" fill="#796573" fill-rule="evenodd"/>
          </g>
          <g id="g6558" transform="translate(38.385 21.78)">
            <path id="path6560" d="M-9.558,0h1.4a.8.8,0,0,1,.8.8V5.6a.8.8,0,0,1-.8.8h-1.4a.8.8,0,0,1-.8-.8V.8a.8.8,0,0,1,.8-.8" transform="translate(10.357)" fill="#796573" fill-rule="evenodd"/>
          </g>
          <g id="g6562" transform="translate(11.175 25.456)">
            <path id="path6564" d="M-65.713-9.558V13.333A2.755,2.755,0,0,1-68.46,16.08a2.755,2.755,0,0,1-2.747-2.747V-9.558a.8.8,0,0,1,.8-.8h3.9a.8.8,0,0,1,.8.8" transform="translate(71.206 10.357)" fill="#e3dcef" fill-rule="evenodd"/>
          </g>
          <g id="g6566" transform="translate(24.156 25.456)">
            <path id="path6568" d="M-65.713-9.558V13.333A2.755,2.755,0,0,1-68.46,16.08a2.755,2.755,0,0,1-2.747-2.747V-9.558a.8.8,0,0,1,.8-.8h3.9a.8.8,0,0,1,.8.8" transform="translate(71.206 10.357)" fill="#e3dcef" fill-rule="evenodd"/>
          </g>
          <g id="g6570" transform="translate(37.137 25.456)">
            <path id="path6572" d="M-65.679-9.558V13.333a2.753,2.753,0,0,1-2.744,2.747,2.755,2.755,0,0,1-2.747-2.747V-9.558a.8.8,0,0,1,.8-.8h3.9a.8.8,0,0,1,.8.8" transform="translate(71.169 10.357)" fill="#e3dcef" fill-rule="evenodd"/>
          </g>
          <g id="g6574" transform="translate(37.149 25.456)">
            <path id="path6576" d="M-65.54-9.558V13.333a2.753,2.753,0,0,1-2.744,2.747,2.754,2.754,0,0,1-2.735-2.508c.079.006.157.012.239.012a2.752,2.752,0,0,0,2.744-2.747V-10.357h1.7a.8.8,0,0,1,.8.8" transform="translate(71.018 10.357)" fill="#d6cfe7" fill-rule="evenodd"/>
          </g>
          <g id="g6578" transform="translate(24.168 25.456)">
            <path id="path6580" d="M-65.573-9.558V13.333A2.755,2.755,0,0,1-68.32,16.08a2.756,2.756,0,0,1-2.735-2.508c.079.006.157.012.239.012a2.755,2.755,0,0,0,2.747-2.747V-10.357h1.7a.8.8,0,0,1,.8.8" transform="translate(71.054 10.357)" fill="#d6cfe7" fill-rule="evenodd"/>
          </g>
          <g id="g6582" transform="translate(11.187 25.456)">
            <path id="path6584" d="M-65.574-9.558V13.333a2.755,2.755,0,0,1-2.747,2.747,2.756,2.756,0,0,1-2.735-2.508c.079.006.157.012.239.012a2.755,2.755,0,0,0,2.747-2.747V-10.357h1.7a.8.8,0,0,1,.8.8" transform="translate(71.056 10.357)" fill="#d6cfe7" fill-rule="evenodd"/>
          </g>
          <g id="g6586" transform="translate(10.317 1.401)">
            <path id="path6588" d="M-52.324-1.784c.513,2.475,1.886,10.252-.02,14.739h-1.5c-.429-2.2-1.37-5.514-2.575-7.062A.648.648,0,0,1-56.377,4.8a13.319,13.319,0,0,0,3.729-6.578c.052-.213.286-.2.324-.006" transform="translate(56.698 1.933)" fill="#8cd6ff" fill-rule="evenodd"/>
          </g>
          <g id="g6590" transform="translate(12.75 1.401)">
            <path id="path6592" d="M-23.229-1.784c.513,2.475,1.886,10.252-.02,14.739h-1.5c-.108-.56-.251-1.193-.423-1.849a28.422,28.422,0,0,0,.079-9.065,12.9,12.9,0,0,0,1.54-3.82c.052-.213.286-.2.324-.006" transform="translate(25.171 1.933)" fill="#65c9ff" fill-rule="evenodd"/>
          </g>
          <g id="g6594" transform="translate(24.144 1.135)">
            <path id="path6596" d="M-37.774-3.912A25.875,25.875,0,0,1-35.415,5.8c0,2.341-.849,4.318-2.009,4.922h-1.5c-1.16-.6-2.009-2.58-2.009-4.922a25.877,25.877,0,0,1,2.359-9.712c.254-.42.519-.452.8,0" transform="translate(40.932 4.239)" fill="#8cd6ff" fill-rule="evenodd"/>
          </g>
          <g id="g6598" transform="translate(25.655 1.135)">
            <path id="path6600" d="M-19.707-3.912A25.875,25.875,0,0,1-17.348,5.8c0,2.341-.849,4.318-2.009,4.922h-1.5a2.274,2.274,0,0,1-.5-.361,6.485,6.485,0,0,0,1.51-4.56,26.576,26.576,0,0,0-1.51-7.709,16.37,16.37,0,0,1,.849-2c.254-.42.519-.452.8,0" transform="translate(21.355 4.239)" fill="#65c9ff" fill-rule="evenodd"/>
          </g>
          <g id="g6602" transform="translate(37.049 0.921)">
            <path id="path6604" d="M-24.939-177.841a10.851,10.851,0,0,1-2.085-6.715c0-3.846,1.782-7.085,4.208-8.071.534-.2.77-.023.694.566l-1.318,14.22Z" transform="translate(27.024 192.708)" fill="#8cd6ff" fill-rule="evenodd"/>
          </g>
          <g id="g6606" transform="translate(38.259 0.921)">
            <path id="path6608" d="M-10.464-177.841a7.193,7.193,0,0,1-.875-1.335l1.123-12.112a5.293,5.293,0,0,1,1.875-1.338c.534-.2.77-.023.694.566l-1.318,14.22Z" transform="translate(11.339 192.708)" fill="#65c9ff" fill-rule="evenodd"/>
          </g>
          <g id="g6610" transform="translate(10.404 24.685)">
            <path id="path6612" d="M-77.685-158.218a3.522,3.522,0,0,1-3.518-3.518v-23.691a.771.771,0,0,1,.771-.771h5.493a.771.771,0,0,1,.771.771v10.1a.771.771,0,0,1-.771.771.771.771,0,0,1-.771-.771v-9.326h-3.951v22.919a1.978,1.978,0,0,0,1.975,1.975,1.978,1.978,0,0,0,1.976-1.975v-10.1a.771.771,0,0,1,.771-.771.771.771,0,0,1,.771.771v10.1A3.522,3.522,0,0,1-77.685-158.218Z" transform="translate(81.203 186.198)"/>
          </g>
          <g id="g6614" transform="translate(23.385 24.685)">
            <path id="path6616" d="M-80.432-10h5.493a.771.771,0,0,1,.771.771V14.465a3.522,3.522,0,0,1-3.518,3.518A3.522,3.522,0,0,1-81.2,14.465V-9.225A.771.771,0,0,1-80.432-10Zm4.722,1.542h-3.951V14.465a1.978,1.978,0,0,0,1.976,1.976,1.978,1.978,0,0,0,1.975-1.976Z" transform="translate(81.203 9.997)"/>
          </g>
          <g id="g6618" transform="translate(36.366 24.685)">
            <path id="path6620" d="M-77.648-158.218a3.522,3.522,0,0,1-3.518-3.518v-23.691a.771.771,0,0,1,.771-.771h5.49a.771.771,0,0,1,.771.771v10.1a.771.771,0,0,1-.771.771.771.771,0,0,1-.771-.771v-9.326h-3.948v22.919a1.978,1.978,0,0,0,1.976,1.975,1.976,1.976,0,0,0,1.973-1.975v-10.1a.771.771,0,0,1,.771-.771.771.771,0,0,1,.771.771v10.1A3.52,3.52,0,0,1-77.648-158.218Z" transform="translate(81.166 186.198)"/>
          </g>
          <path id="path6622" d="M154.837-405.127h-2.994a.771.771,0,0,1-.771-.771v-3.677a.771.771,0,0,1,.771-.771h2.994a.771.771,0,0,1,.771.771v3.677A.771.771,0,0,1,154.837-405.127Zm-2.223-1.542h1.452V-408.8h-1.452Z" transform="translate(-139.416 431.355)"/>
          <path id="path6624" d="M323.067-405.127h-3a.771.771,0,0,1-.771-.771v-3.677a.771.771,0,0,1,.771-.771h3a.771.771,0,0,1,.771.771v3.677A.771.771,0,0,1,323.067-405.127Zm-2.226-1.542H322.3V-408.8h-1.455Z" transform="translate(-294.666 431.355)"/>
          <path id="path6626" d="M491.328-405.127h-2.995a.771.771,0,0,1-.771-.771v-3.677a.771.771,0,0,1,.771-.771h2.995a.771.771,0,0,1,.771.771v3.677A.771.771,0,0,1,491.328-405.127ZM489.1-406.67h1.452V-408.8H489.1Z" transform="translate(-449.949 431.355)"/>
          <g id="g6628" transform="translate(13.15 15.518)">
            <path id="path6630" d="M-9.225-2.964A.771.771,0,0,1-10-3.735v-5.49A.771.771,0,0,1-9.225-10a.771.771,0,0,1,.771.771v5.49A.771.771,0,0,1-9.225-2.964Z" transform="translate(9.997 9.997)"/>
          </g>
          <g id="g6632" transform="translate(26.131 15.518)">
            <path id="path6634" d="M-9.225-2.964A.771.771,0,0,1-10-3.735v-5.49A.771.771,0,0,1-9.225-10a.771.771,0,0,1,.771.771v5.49A.771.771,0,0,1-9.225-2.964Z" transform="translate(9.997 9.997)"/>
          </g>
          <g id="g6636" transform="translate(39.112 15.518)">
            <path id="path6638" d="M-9.225-2.964A.771.771,0,0,1-10-3.735v-5.49A.771.771,0,0,1-9.225-10a.771.771,0,0,1,.771.771v5.49A.771.771,0,0,1-9.225-2.964Z" transform="translate(9.997 9.997)"/>
          </g>
          <g id="g6640" transform="translate(9.267 0)">
            <path id="path6642" d="M-62.834-10a.771.771,0,0,1,.746.577c.11.424,2.669,10.447.3,16.013a.771.771,0,0,1-.71.469h-1.869a.771.771,0,0,1-.757-.623c-.742-3.8-1.735-6.476-2.654-7.16a.771.771,0,0,1-.311-.616.771.771,0,0,1,.307-.618A12.443,12.443,0,0,0-63.6-9.347.771.771,0,0,1-62.871-10Zm-.19,15.518c1.177-3.337.624-8.346.07-11.532A14.113,14.113,0,0,1-66.2-1.291c.949,1.225,1.775,3.508,2.462,6.812Z" transform="translate(68.087 9.997)"/>
          </g>
          <g id="g6644" transform="translate(23.373 0)">
            <path id="path6646" d="M-72.533-80.431c-1.979,0-3.53-2.585-3.53-5.885,0-2.951,1.259-8.321,2.883-10.823a.771.771,0,0,1,.647-.351.771.771,0,0,1,.647.352,15.376,15.376,0,0,1,1.562,3.547.771.771,0,0,1-.5.971.771.771,0,0,1-.971-.5,19.42,19.42,0,0,0-.744-1.966,25.611,25.611,0,0,0-1.985,8.768c0,2.486,1.049,4.343,1.987,4.343s1.987-1.857,1.987-4.343a19.522,19.522,0,0,0-.406-3.506.771.771,0,0,1,.609-.9.771.771,0,0,1,.9.609,20.759,20.759,0,0,1,.434,3.8C-69-83.016-70.554-80.431-72.533-80.431Z" transform="translate(76.063 97.491)"/>
          </g>
          <g id="g6648" transform="translate(36.278 0)">
            <path id="path6650" d="M-43.13-194.083a.771.771,0,0,1-.5-.187,10.3,10.3,0,0,1-3.1-7.8c0-4.6,2.353-8.412,5.595-9.057a.771.771,0,0,1,.679.2.771.771,0,0,1,.235.667l-2.14,15.518a.771.771,0,0,1-.491.616A.771.771,0,0,1-43.13-194.083Zm1.2-15.121c-1.92,1.087-3.264,3.908-3.264,7.134a9.877,9.877,0,0,0,1.528,5.45Z" transform="translate(46.735 211.143)"/>
          </g>
        </g>
      </g>
    </g>
  </g>
</svg>
