<svg xmlns="http://www.w3.org/2000/svg" width="76.246" height="76.246" viewBox="0 0 76.246 76.246">
  <g id="Group_1099779" data-name="Group 1099779" transform="translate(-552 -3829)">
    <g id="Group_1099773" data-name="Group 1099773" transform="translate(109.949 -1970)">
      <g id="Group_1099706" data-name="Group 1099706" transform="translate(-331 4913)">
        <g id="Group_1099486" data-name="Group 1099486" transform="translate(-245.949 -5878)">
          <g id="Group_1098742" data-name="Group 1098742" transform="translate(1019 6764)">
            <rect id="Rectangle_400898" data-name="Rectangle 400898" width="76.246" height="76.246" rx="38.123" transform="translate(0 0)" fill="#d0c110"/>
            <rect id="Rectangle_400907" data-name="Rectangle 400907" width="76.246" height="76.246" rx="38.123" transform="translate(0 0)" fill="none"/>
          </g>
        </g>
      </g>
    </g>
    <g id="martillos" transform="translate(566 3823.312)">
      <path id="Path_1242036" data-name="Path 1242036" d="M8.841,280.641a4.042,4.042,0,0,1-.07-5.778L22.1,261.538a.687.687,0,0,1,.971,0l.211.211,1.173,1.173v0l3.145,3.144.211.211a.687.687,0,0,1,0,.971L14.534,280.519A4.086,4.086,0,0,1,8.841,280.641Z" transform="translate(-6.888 -216.567)" fill="#ea3d3d"/>
      <rect id="Rectangle_410887" data-name="Rectangle 410887" width="12.005" height="6.108" transform="translate(29.196 41.011) rotate(135)" fill="#92949b"/>
      <g id="Group_1099778" data-name="Group 1099778" transform="translate(14.761 23.384)">
        <path id="Path_1242037" data-name="Path 1242037" d="M172.422,33.383a10.622,10.622,0,0,0-12.892-1.744c3.948,1.752,8.4,5.807,10.042,8.643l1.542-1.542,3.33-3.335,0,0Z" transform="translate(-159.53 -30.202)" fill="#484b54"/>
        <path id="Path_1242038" data-name="Path 1242038" d="M343.018,155.041l-7.045,7.045.164.246a3.266,3.266,0,0,1,4.118,4.093l.105.048,7.045-7.045-.053-.114a3.268,3.268,0,0,1-4.064-4.135Z" transform="translate(-319.647 -143.49)" fill="#484b54"/>
      </g>
      <path id="Path_1242039" data-name="Path 1242039" d="M8.841,280.641a4.042,4.042,0,0,1-.07-5.778L22.1,261.538a.687.687,0,0,1,.971,0l.211.211,1.173,1.173v0S10.09,275.467,8.841,280.641Z" transform="translate(-6.888 -216.567)" fill="#d33333"/>
      <path id="Path_1242040" data-name="Path 1242040" d="M385.855,197.551l-7.1,7.112a1.95,1.95,0,0,1-.355.508l3.666,3.666,7.993-7.993-3.666-3.666A1.914,1.914,0,0,1,385.855,197.551Z" transform="translate(-343.389 -158.344)" fill="#92949b"/>
      <path id="Path_1242041" data-name="Path 1242041" d="M426.414,211.9l-2.122,2.136a.268.268,0,0,1-.053.206l3.666,3.666,2.395-2.395-3.666-3.666A.271.271,0,0,1,426.414,211.9Z" transform="translate(-384.985 -171.655)" fill="#b5b6ba"/>
      <path id="Path_1242042" data-name="Path 1242042" d="M259.01,69.755,257.47,71.3l-3.33,3.335L252.6,76.176l-1.576,1.576,1.651,1.651h0l4.319,4.319h0l1.562,1.562a1.961,1.961,0,0,1,.491-.348l-.164-.246,7.045-7.045.27.137a1.945,1.945,0,0,1,.351-.491Z" transform="translate(-227.795 -42.711)" fill="#92949b"/>
      <path id="Path_1242043" data-name="Path 1242043" d="M8.143,64.449,21.414,51.178a1.39,1.39,0,0,0,.243-1.634L29.2,42l1.066,1.066a.7.7,0,0,0,.985.008,1.265,1.265,0,0,1,.316-.224,2.314,2.314,0,0,1,2.5.666,2.29,2.29,0,0,1,.67,2.493,1.246,1.246,0,0,1-.227.325.7.7,0,0,0,.008.985l3.666,3.666a.7.7,0,0,0,.993,0L47.169,43a.7.7,0,0,0,0-.993L43.5,38.337a.7.7,0,0,0-.988,0,1.231,1.231,0,0,1-.347.239,2.585,2.585,0,0,1-3.137-3.186,1.243,1.243,0,0,1,.224-.314.7.7,0,0,0-.005-.988l-7.537-7.537a.7.7,0,0,0-.993,0l-1.045,1.046-1.525-1.525a11.338,11.338,0,0,0-13.744-1.853.7.7,0,0,0-.347.605c0,.013,0,.026,0,.04a.7.7,0,0,0,.416.6,25.281,25.281,0,0,1,9.436,7.9L22.73,34.544a.7.7,0,0,0,0,.993l1.155,1.155-7.539,7.539a1.391,1.391,0,0,0-1.634.243l-4.558,4.558a.7.7,0,1,0,.993.993l4.547-4.547L20.41,50.2,7.15,63.456a3.4,3.4,0,0,1-4.713.11,3.34,3.34,0,0,1-.058-4.774l6.8-6.8A.7.7,0,0,0,8.187,51l-6.8,6.8A4.7,4.7,0,0,0,0,61.149c0,.019,0,.039,0,.058a4.7,4.7,0,0,0,1.467,3.375A4.808,4.808,0,0,0,8.143,64.449ZM45.679,42.5l-7,7-2.673-2.674,7-7ZM16.341,24.819a9.973,9.973,0,0,1,10.816,2.242l1.525,1.525-3.759,3.762A27.2,27.2,0,0,0,16.341,24.819Zm7.878,10.221,7-7,6.41,6.41-2.217,2.217a.7.7,0,1,0,.993.993l1.1-1.1A4.3,4.3,0,0,0,40.8,40.048l-4.586,4.586a4.2,4.2,0,0,0-1.154-2.106,4.154,4.154,0,0,0-2.333-1.194l2.062-2.062a.7.7,0,1,0-.993-.993l-3.169,3.169Zm3.985,5.97-7.5,7.5-3.326-3.326,7.5-7.5Z" transform="translate(0)"/>
    </g>
  </g>
</svg>
