<svg xmlns="http://www.w3.org/2000/svg" width="76.246" height="76.246" viewBox="0 0 76.246 76.246">
  <g id="Group_1099782" data-name="Group 1099782" transform="translate(-972 -3829)">
    <g id="Group_1099775" data-name="Group 1099775" transform="translate(529.949 -1970)">
      <g id="Group_1099706" data-name="Group 1099706" transform="translate(-331 4913)">
        <g id="Group_1099486" data-name="Group 1099486" transform="translate(-245.949 -5878)">
          <g id="Group_1098742" data-name="Group 1098742" transform="translate(1019 6764)">
            <rect id="Rectangle_400898" data-name="Rectangle 400898" width="76.246" height="76.246" rx="38.123" transform="translate(0 0)" fill="#d0c110"/>
            <rect id="Rectangle_400907" data-name="Rectangle 400907" width="76.246" height="76.246" rx="38.123" transform="translate(0 0)" fill="none"/>
          </g>
        </g>
      </g>
    </g>
    <g id="Layer_27" data-name="Layer 27" transform="translate(984.818 3844.312)">
      <g id="Group_1099781" data-name="Group 1099781" transform="translate(9.704 1.704)">
        <path id="Path_1242071" data-name="Path 1242071" d="M33.589,31.85V26.221H20.925V22H16V36.072h4.925V31.85Z" transform="translate(-11.779 -7.928)" fill="#f4b2b0"/>
        <path id="Path_1242072" data-name="Path 1242072" d="M43.629,2A5.629,5.629,0,0,0,38,7.629v5.629H49.257V7.629A5.629,5.629,0,0,0,43.629,2Zm0,6.332a1.407,1.407,0,1,1,1.407-1.407A1.407,1.407,0,0,1,43.629,8.332Z" transform="translate(-18.3 -2)" fill="#f4b2b0"/>
        <path id="Path_1242073" data-name="Path 1242073" d="M10,51.629a5.629,5.629,0,1,0,11.257,0V46H10Zm5.629-.7a1.407,1.407,0,1,1-1.407,1.407A1.407,1.407,0,0,1,15.629,50.925Z" transform="translate(-10 -15.043)" fill="#f4b2b0"/>
        <path id="Path_1242074" data-name="Path 1242074" d="M15.629,2A5.629,5.629,0,0,0,10,7.629v5.629H21.257V7.629A5.629,5.629,0,0,0,15.629,2Zm0,6.332a1.407,1.407,0,1,1,1.407-1.407A1.407,1.407,0,0,1,15.629,8.332Z" transform="translate(-10 -2)" fill="#f4b2b0"/>
        <path id="Path_1242075" data-name="Path 1242075" d="M38,46v5.629a5.629,5.629,0,1,0,11.257,0V46Zm5.629,7.739a1.407,1.407,0,1,1,1.407-1.407A1.407,1.407,0,0,1,43.629,53.739Z" transform="translate(-18.3 -15.043)" fill="#f4b2b0"/>
      </g>
      <path id="Path_1242076" data-name="Path 1242076" d="M17.111,10.221A2.111,2.111,0,1,0,15,8.111a2.111,2.111,0,0,0,2.111,2.111Zm0-2.814a.7.7,0,1,1-.7.7A.7.7,0,0,1,17.111,7.407Z" transform="translate(-1.779 -1.482)" fill="#b3404a"/>
      <path id="Path_1242077" data-name="Path 1242077" d="M17.111,52a2.111,2.111,0,1,0,2.111,2.111A2.111,2.111,0,0,0,17.111,52Zm0,2.814a.7.7,0,1,1,.7-.7A.7.7,0,0,1,17.111,54.814Z" transform="translate(-1.779 -15.117)" fill="#b3404a"/>
      <path id="Path_1242078" data-name="Path 1242078" d="M35.032,1A6.339,6.339,0,0,0,28.7,7.332v7.739H21.664V7.332A6.332,6.332,0,1,0,9,7.332V38.29a6.332,6.332,0,1,0,12.664,0V30.55H28.7V38.29a6.332,6.332,0,1,0,12.664,0V7.332A6.339,6.339,0,0,0,35.032,1ZM23.775,24.922V20.7h7.036v4.221Zm-4.221-5.629V16.479h6.332v2.814Zm-.7,1.407h3.518v4.221H18.85a.7.7,0,0,0-.7.7v3.518H14.629V16.479h3.518V20A.7.7,0,0,0,18.85,20.7Zm.7,5.629h6.332v2.814H19.554Zm7.739,0h4.221a.7.7,0,0,0,.7-.7V20a.7.7,0,0,0-.7-.7H27.293V16.479h8.443V29.143H27.293ZM15.332,2.407a4.931,4.931,0,0,1,4.925,4.925v4.925h-9.85V7.332a4.931,4.931,0,0,1,4.925-4.925Zm0,40.808a4.931,4.931,0,0,1-4.925-4.925V33.365h9.85V38.29a4.931,4.931,0,0,1-4.925,4.925Zm4.925-11.257h-9.85V13.664h9.85v1.407H13.925a.7.7,0,0,0-.7.7V29.847a.7.7,0,0,0,.7.7h6.332ZM36.44,30.55a.7.7,0,0,0,.7-.7V15.775a.7.7,0,0,0-.7-.7H30.107V13.664h9.85V31.957h-9.85V30.55ZM35.032,43.215a4.931,4.931,0,0,1-4.925-4.925V33.365h9.85V38.29a4.931,4.931,0,0,1-4.925,4.925Zm4.925-30.957h-9.85V7.332a4.925,4.925,0,0,1,9.85,0Z" transform="translate(0)" fill="#b3404a"/>
      <path id="Path_1242079" data-name="Path 1242079" d="M45.111,6a2.111,2.111,0,1,0,2.111,2.111A2.111,2.111,0,0,0,45.111,6Zm0,2.814a.7.7,0,1,1,.7-.7A.7.7,0,0,1,45.111,8.814Z" transform="translate(-10.078 -1.482)" fill="#b3404a"/>
      <path id="Path_1242080" data-name="Path 1242080" d="M45.111,52a2.111,2.111,0,1,0,2.111,2.111A2.111,2.111,0,0,0,45.111,52Zm0,2.814a.7.7,0,1,1,.7-.7A.7.7,0,0,1,45.111,54.814Z" transform="translate(-10.078 -15.117)" fill="#b3404a"/>
    </g>
  </g>
</svg>
