<svg xmlns="http://www.w3.org/2000/svg" width="76.246" height="76.246" viewBox="0 0 76.246 76.246">
  <g id="Group_1099693" data-name="Group 1099693" transform="translate(370 -1608)">
    <g id="Group_1099632" data-name="Group 1099632" transform="translate(-1389 -5156)">
      <g id="Group_1098742" data-name="Group 1098742" transform="translate(1019 6764)">
        <rect id="Rectangle_400898" data-name="Rectangle 400898" width="76.246" height="76.246" rx="38.123" transform="translate(0 0)" fill="#d0c110"/>
        <rect id="Rectangle_400907" data-name="Rectangle 400907" width="76.246" height="76.246" rx="38.123" transform="translate(0 0)" fill="none"/>
      </g>
    </g>
    <g id="Filled_outline" data-name="Filled outline" transform="translate(-408 1607)">
      <path id="Path_1241860" data-name="Path 1241860" d="M327.311,478.883a2.334,2.334,0,0,0,1.631.664h1.429a1.563,1.563,0,0,1-1.106-.458A1.563,1.563,0,0,0,327.311,478.883Z" transform="translate(-244.8 -417.426)" fill="#48add9"/>
      <path id="Path_1241861" data-name="Path 1241861" d="M331.973,130.019a4.818,4.818,0,0,0,0,3.047l.287.862a4.806,4.806,0,0,1,.247,1.523V146.4a2.346,2.346,0,0,1-2.345,2.345h-1.7a1.556,1.556,0,0,1-.6-.119,1.591,1.591,0,0,1-.438-.276c-.024-.021-.048-.042-.069-.064s-.044-.043-.067-.063c-.039-.034-.079-.066-.121-.1-.021-.017-.044-.031-.066-.047a1.566,1.566,0,0,0-1.955.207,1.564,1.564,0,0,1-1.106.458h-1.7A2.346,2.346,0,0,1,320,146.4V135.451a4.806,4.806,0,0,1,.247-1.523l.287-.862a4.818,4.818,0,0,0,0-3.047l-.287-.862a4.806,4.806,0,0,1-.247-1.523v-3.248a9.382,9.382,0,0,1,1.746-5.45l2.162-3.027V112h4.69v3.909l2.161,3.026a9.374,9.374,0,0,1,1.747,5.451v3.248a4.807,4.807,0,0,1-.247,1.523l-.014.04Z" transform="translate(-238.204 -86.619)" fill="#348fd9"/>
      <path id="Path_1241862" data-name="Path 1241862" d="M368.6,124.386v3.248a4.808,4.808,0,0,1-.247,1.523l-.014.04-.274.822a4.818,4.818,0,0,0,0,3.047l.287.862a4.808,4.808,0,0,1,.247,1.523V146.4a2.346,2.346,0,0,1-2.345,2.345H364.69a1.962,1.962,0,0,1-1.171-.395c-.024-.021-.048-.042-.069-.064s-.044-.043-.067-.063c-.039-.034-.079-.066-.121-.1l-.067-.046h0a2.334,2.334,0,0,0,.713-1.68V135.451a4.806,4.806,0,0,0-.247-1.523l-.287-.862a4.817,4.817,0,0,1,0-3.047l.274-.822.014-.04a4.806,4.806,0,0,0,.247-1.523v-3.248a9.374,9.374,0,0,0-1.747-5.451L360,115.909V112h4.69v3.909l2.161,3.026A9.374,9.374,0,0,1,368.6,124.386Z" transform="translate(-274.295 -86.619)" fill="#3086cd"/>
      <path id="Path_1241863" data-name="Path 1241863" d="M324.69,225.381l-.782,1.563.782,1.563v1.563l-.782,1.563.782,1.563v1.563l-.782,1.563.782,1.563v3.127a1.609,1.609,0,0,1-1.118,1.563h-1.227A2.346,2.346,0,0,1,320,240.233V229.289a4.806,4.806,0,0,1,.247-1.523l.287-.862a4.818,4.818,0,0,0,0-3.047l-.287-.862a4.806,4.806,0,0,1-.247-1.523v-3.248a9.372,9.372,0,0,1,.268-2.224h1.3v3.127l2.263,1.132a1.563,1.563,0,0,1,.864,1.4Z" transform="translate(-238.204 -180.457)" fill="#3086cd"/>
      <path id="Path_1241864" data-name="Path 1241864" d="M84.325,40.416V64.063a5.277,5.277,0,0,1-8.443,4.221,2.867,2.867,0,0,0-3.44,0,5.277,5.277,0,0,1-8.4-3.528A5.4,5.4,0,0,1,64,64.063V40.416a10.162,10.162,0,0,1,7.033-9.666l0-6.75h6.254v6.749A10.153,10.153,0,0,1,84.325,40.416Z" transform="translate(-7.218 -7.218)" fill="#4db7e5"/>
      <path id="Path_1241865" data-name="Path 1241865" d="M84.74,150.54v23.647a5.277,5.277,0,0,1-8.443,4.221,2.867,2.867,0,0,0-3.44,0,5.277,5.277,0,0,1-8.4-3.528c6.693-4.611,13.836-13.166,19.235-28.83A10.109,10.109,0,0,1,84.74,150.54Z" transform="translate(-7.634 -117.342)" fill="#48add9"/>
      <rect id="Rectangle_410870" data-name="Rectangle 410870" width="20.133" height="16.911" transform="translate(56.805 34.717)" fill="#f35244"/>
      <rect id="Rectangle_410871" data-name="Rectangle 410871" width="5.637" height="1.611" transform="translate(64.053 21.832)" fill="#48add9"/>
      <path id="Path_1241866" data-name="Path 1241866" d="M143.307,208v17.2H129.37A59.6,59.6,0,0,0,139.948,208Z" transform="translate(-66.201 -173.239)" fill="#ea4a3b"/>
      <path id="Path_1241867" data-name="Path 1241867" d="M250.162,226.944l.782,1.563v1.563l-.782,1.563.782,1.563v1.563l-.782,1.563.782,1.563v3.127a1.563,1.563,0,0,1-1.563,1.563h-7.817A1.563,1.563,0,0,1,240,241.015v-3.127l.782-1.563L240,234.761V233.2l.782-1.563L240,230.071v-1.563l.782-1.563L240,225.381v-3.724a1.564,1.564,0,0,1,.864-1.4l2.263-1.131V216h4.69v3.127l2.263,1.132a1.563,1.563,0,0,1,.864,1.4v3.724Z" transform="translate(-166.021 -180.457)" fill="#60d1e0"/>
      <path id="Path_1241868" data-name="Path 1241868" d="M294.254,225.381l-.782,1.563.782,1.563v1.563l-.782,1.563.782,1.563v1.563l-.782,1.563.782,1.563v3.127a1.563,1.563,0,0,1-1.563,1.563h-3.127a1.563,1.563,0,0,0,1.563-1.563v-3.127l-.782-1.563.782-1.563V233.2l-.782-1.563.782-1.563v-1.563l-.782-1.563.782-1.563v-3.724a1.564,1.564,0,0,0-.864-1.4L288,219.127V216h3.127v3.127l2.263,1.132a1.563,1.563,0,0,1,.864,1.4Z" transform="translate(-209.33 -180.457)" fill="#5ac6d4"/>
      <ellipse id="Ellipse_11560" data-name="Ellipse 11560" cx="2.416" cy="1.611" rx="2.416" ry="1.611" transform="translate(76.938 33.912)" fill="#3fb7c7"/>
      <path id="Path_1241869" data-name="Path 1241869" d="M336.084,111.262l-2.012-2.821v-3.659a.782.782,0,0,0-.782-.782H328.6a.782.782,0,0,0-.782.782v3.659l-2.011,2.82a10.171,10.171,0,0,0-.608.957l1.365.762a8.613,8.613,0,0,1,.515-.811l2.157-3.025a.782.782,0,0,0,.145-.453v-3.127h3.127v3.127a.782.782,0,0,0,.145.454l2.16,3.029a8.445,8.445,0,0,1,1.057,1.99h-5.707v1.563h6.117a8.733,8.733,0,0,1,.137,1.446v.117h-6.254v1.563h6.254v1.563h-6.254v1.563h5.95l-.188.574a5.554,5.554,0,0,0,0,3.539l.283.863a4.041,4.041,0,0,1,.21,1.278h-6.254V129.8h6.254v1.563h-6.254v1.563h6.254v1.563h-6.254v1.563h6.254v3.127a1.565,1.565,0,0,1-1.563,1.563h-1.7a.784.784,0,0,1-.557-.232,2.384,2.384,0,0,0-3.31,0l1.105,1.105a.784.784,0,0,1,1.1,0,2.337,2.337,0,0,0,1.662.69h1.7a3.13,3.13,0,0,0,3.127-3.127V128.233a5.6,5.6,0,0,0-.289-1.768l-.283-.863a3.993,3.993,0,0,1,0-2.558l.283-.864a7.026,7.026,0,0,0,.216-.864,6.02,6.02,0,0,0,.071-.9v-3.244a10.391,10.391,0,0,0-.288-2.413A10,10,0,0,0,336.084,111.262Z" transform="translate(-242.896 -79.401)"/>
      <path id="Path_1241870" data-name="Path 1241870" d="M56,33.2V56.845A6.065,6.065,0,0,0,62.058,62.9a6,6,0,0,0,3.636-1.213,2.084,2.084,0,0,1,2.5,0A6.023,6.023,0,0,0,71.605,62.9l.058-1.563a4.458,4.458,0,0,1-2.529-.9,3.655,3.655,0,0,0-4.38,0,4.45,4.45,0,0,1-2.7.9,4.5,4.5,0,0,1-4.495-4.495v-4.1H71.634V51.177H57.563V35.543h17.2V33.979h-17.2V33.2a9.359,9.359,0,0,1,6.495-8.926.781.781,0,0,0,.541-.744V21.472h4.69v2.056a.781.781,0,0,0,.541.744,9.345,9.345,0,0,1,6.467,8.2l1.559-.119a10.9,10.9,0,0,0-7-9.382v-1.5h1.563V19.909H70.852V16.782A.782.782,0,0,0,70.071,16H63.817a.782.782,0,0,0-.782.782v3.127H61.472v1.563h1.563v1.5A10.915,10.915,0,0,0,56,33.2Zm8.6-15.634h4.69v2.345H64.6Z" transform="translate(0)"/>
      <path id="Path_1241871" data-name="Path 1241871" d="M123.57,116.84l.866,1.3a6.306,6.306,0,0,1,1.551-.747l-.481-1.488A7.866,7.866,0,0,0,123.57,116.84Z" transform="translate(-60.968 -90.144)"/>
      <path id="Path_1241872" data-name="Path 1241872" d="M90.038,141.318a6.264,6.264,0,0,1,1.7-3.634L90.61,136.6a7.841,7.841,0,0,0-2.126,4.545Z" transform="translate(-29.31 -108.816)"/>
      <rect id="Rectangle_410872" data-name="Rectangle 410872" width="1.611" height="1.611" transform="translate(59.221 37.133)"/>
      <rect id="Rectangle_410873" data-name="Rectangle 410873" width="1.611" height="7.248" transform="translate(59.221 40.354)"/>
      <rect id="Rectangle_410874" data-name="Rectangle 410874" width="1.611" height="2.416" transform="translate(76.132 41.965)"/>
      <path id="Path_1241873" data-name="Path 1241873" d="M238.254,192c-1.753,0-3.127,1.03-3.127,2.345v2.644l-1.827.917A2.335,2.335,0,0,0,232,200v3.721a.782.782,0,0,0,.083.35l.607,1.214-.607,1.214a.782.782,0,0,0-.082.35v1.563a.782.782,0,0,0,.083.35l.607,1.214-.607,1.214a.782.782,0,0,0-.082.35v1.563a.782.782,0,0,0,.083.35l.607,1.214-.607,1.214a.781.781,0,0,0-.082.35v3.127a2.349,2.349,0,0,0,2.345,2.345h7.817a2.484,2.484,0,0,0,.531-.06,2.342,2.342,0,0,0,1.814-2.285v-3.127a.782.782,0,0,0-.083-.35l-.607-1.214.607-1.214a.782.782,0,0,0,.082-.35v-1.563a.782.782,0,0,0-.083-.35l-.607-1.214.607-1.214a.782.782,0,0,0,.082-.35v-1.563a.782.782,0,0,0-.083-.35l-.607-1.214.607-1.214a.782.782,0,0,0,.082-.35V200a2.334,2.334,0,0,0-1.3-2.1l-1.828-.918v-2.644C241.38,193.03,240.007,192,238.254,192Zm0,1.563c.954,0,1.563.463,1.563.782s-.609.782-1.563.782-1.563-.463-1.563-.782S237.3,193.563,238.254,193.563Zm4.255,5.741a.779.779,0,0,1,.435.7v3.536l-.483.966h-6.552v1.563h6.552l.483.966v1.195l-.483.966h-6.552v1.563h6.552l.483.966v1.195l-.483.966h-6.552v1.563h6.552l.483.966v2.942a.79.79,0,0,1-.592.76.915.915,0,0,1-.189.022h-7.817a.784.784,0,0,1-.622-.311.769.769,0,0,1-.16-.471v-2.942l.7-1.4a.782.782,0,0,0,0-.7l-.7-1.4v-1.195l.7-1.4a.782.782,0,0,0,0-.7l-.7-1.4v-1.195l.7-1.4a.783.783,0,0,0,0-.7l-.7-1.4V200a.781.781,0,0,1,.436-.7l2.259-1.133a.781.781,0,0,0,.431-.7v-1.1a4.023,4.023,0,0,0,3.127,0v1.1a.781.781,0,0,0,.431.7Z" transform="translate(-158.802 -158.802)"/>
    </g>
  </g>
</svg>
