<svg xmlns="http://www.w3.org/2000/svg" width="76.246" height="76.246" viewBox="0 0 76.246 76.246">
  <g id="Group_1099691" data-name="Group 1099691" transform="translate(1034 -1608)">
    <g id="Group_1099630" data-name="Group 1099630" transform="translate(-2053 -5156)">
      <g id="Group_1098742" data-name="Group 1098742" transform="translate(1019 6764)">
        <rect id="Rectangle_400898" data-name="Rectangle 400898" width="76.246" height="76.246" rx="38.123" transform="translate(0 0)" fill="#d0c110"/>
        <rect id="Rectangle_400907" data-name="Rectangle 400907" width="76.246" height="76.246" rx="38.123" transform="translate(0 0)" fill="none"/>
      </g>
    </g>
    <g id="fibra" transform="translate(-1019.001 1623)">
      <path id="Path_1241854" data-name="Path 1241854" d="M94.566,172a.895.895,0,1,0,.632.262A.9.9,0,0,0,94.566,172Zm0,0" transform="translate(-85.293 -156.615)"/>
      <path id="Path_1241855" data-name="Path 1241855" d="M5.8,10.59A9.177,9.177,0,0,1,.752,13.174a.895.895,0,1,0,.287,1.766,10.955,10.955,0,0,0,6.022-3.085,5.681,5.681,0,0,1,1.318-.981V12.7a.894.894,0,0,0,1.789,0V.894a.894.894,0,1,0-1.789,0V5.163a10.964,10.964,0,0,0-5.112,2.9A5.659,5.659,0,0,1,.673,9.539a.894.894,0,1,0,.444,1.733A7.447,7.447,0,0,0,4.532,9.325,9.183,9.183,0,0,1,8.379,7.018V8.908A7.471,7.471,0,0,0,5.8,10.59Zm0,0" transform="translate(0)"/>
      <path id="Path_1241856" data-name="Path 1241856" d="M398.894,492a.895.895,0,1,0,.632.262A.9.9,0,0,0,398.894,492Zm0,0" transform="translate(-362.4 -447.989)"/>
      <path id="Path_1241857" data-name="Path 1241857" d="M45.046,39.071A9.176,9.176,0,0,1,40,36.487a7.466,7.466,0,0,0-2.612-1.693V32.906a9.184,9.184,0,0,1,3.877,2.317,7.451,7.451,0,0,0,3.414,1.947.895.895,0,1,0,.444-1.733,5.656,5.656,0,0,1-2.593-1.479,10.962,10.962,0,0,0-5.142-2.9V27.709a10.977,10.977,0,0,0,5.142-2.9,5.657,5.657,0,0,1,2.594-1.479.895.895,0,0,0-.444-1.733,7.447,7.447,0,0,0-3.414,1.947,9.266,9.266,0,0,1-13.088,0,7.478,7.478,0,0,0-2.6-1.687V19.964a9.194,9.194,0,0,1,3.861,2.31,7.474,7.474,0,0,0,10.559,0,9.176,9.176,0,0,1,5.045-2.584.894.894,0,0,0-.288-1.766,10.955,10.955,0,0,0-6.022,3.085,5.655,5.655,0,0,1-1.347,1V10.859a5.661,5.661,0,0,1,1.347,1,10.955,10.955,0,0,0,6.022,3.085.894.894,0,1,0,.287-1.766A9.177,9.177,0,0,1,40,10.59,7.466,7.466,0,0,0,37.389,8.9V7.008a9.184,9.184,0,0,1,3.877,2.317,7.451,7.451,0,0,0,3.414,1.947.895.895,0,0,0,.445-1.733A5.659,5.659,0,0,1,42.531,8.06a10.96,10.96,0,0,0-5.142-2.9V.894a.894.894,0,0,0-1.789,0V22.6a5.721,5.721,0,0,1-1.789-.006V5.929c0-.028,0-.055,0-.083V.894a.894.894,0,0,0-1.789,0v4.27a10.964,10.964,0,0,0-5.109,2.9,5.678,5.678,0,0,1-1.331.991V.894a.894.894,0,1,0-1.789,0V9.649a5.731,5.731,0,0,1-1.789,0V.894a.894.894,0,1,0-1.789,0V9.05a5.676,5.676,0,0,1-1.331-.99,10.959,10.959,0,0,0-5.139-2.9V.894a.894.894,0,1,0-1.789,0V22.6a5.721,5.721,0,0,1-1.789,0V19.857a.894.894,0,1,0-1.789,0v2.132a5.658,5.658,0,0,1-1.318-.981,10.955,10.955,0,0,0-6.022-3.085.895.895,0,1,0-.287,1.766A9.179,9.179,0,0,1,5.8,22.274a7.474,7.474,0,0,0,10.558,0,9.186,9.186,0,0,1,3.861-2.312v1.89a7.471,7.471,0,0,0-2.6,1.687,9.265,9.265,0,0,1-13.088,0,7.451,7.451,0,0,0-3.414-1.947.895.895,0,0,0-.444,1.733A5.658,5.658,0,0,1,3.267,24.8a10.977,10.977,0,0,0,5.112,2.9V31.06a10.965,10.965,0,0,0-5.112,2.9A5.658,5.658,0,0,1,.673,35.436a.895.895,0,1,0,.444,1.733,7.453,7.453,0,0,0,3.414-1.947,9.184,9.184,0,0,1,3.847-2.307v1.891A7.47,7.47,0,0,0,5.8,36.487,9.177,9.177,0,0,1,.752,39.071a.894.894,0,0,0,.143,1.777.927.927,0,0,0,.145-.012,10.955,10.955,0,0,0,6.022-3.085,5.671,5.671,0,0,1,1.318-.981V44.9a.894.894,0,0,0,1.789,0V28q.453.037.908.038T11.957,28V44.9a.894.894,0,0,0,1.789,0V36.758a5.679,5.679,0,0,1,1.344.995,10.957,10.957,0,0,0,5.126,2.9V44.9A.894.894,0,0,0,22,44.9V40.946c.3.023.594.036.894.036s.6-.013.894-.036V44.9a.894.894,0,1,0,1.789,0V40.657a10.96,10.96,0,0,0,5.126-2.9,5.675,5.675,0,0,1,1.314-.979V44.9a.894.894,0,0,0,1.789,0V31.827c0-.028,0-.055,0-.084V28c.3.025.607.038.911.038s.586-.012.878-.035V41.324a.894.894,0,1,0,1.789,0V36.756a5.679,5.679,0,0,1,1.348,1,10.955,10.955,0,0,0,6.022,3.085.924.924,0,0,0,.145.012.895.895,0,0,0,.143-1.777ZM22.9,35.617a5.756,5.756,0,0,1-.894-.07v-20.5q.447.036.894.037t.894-.037v20.5A5.749,5.749,0,0,1,22.9,35.617Zm7.809-14.608a10.981,10.981,0,0,0-5.126-2.9V14.756a10.977,10.977,0,0,0,5.126-2.9,5.675,5.675,0,0,1,1.314-.979V21.987A5.661,5.661,0,0,1,30.708,21.008ZM17.62,9.325A7.414,7.414,0,0,0,22.9,11.509h0a7.416,7.416,0,0,0,5.279-2.183,9.179,9.179,0,0,1,3.844-2.306V8.91a7.471,7.471,0,0,0-2.579,1.68,9.265,9.265,0,0,1-13.088,0A7.466,7.466,0,0,0,13.746,8.9V7.009A9.184,9.184,0,0,1,17.62,9.325ZM15.09,21.009a5.674,5.674,0,0,1-1.344,1V10.86a5.69,5.69,0,0,1,1.344,1,10.974,10.974,0,0,0,5.126,2.9v3.353A10.961,10.961,0,0,0,15.09,21.009ZM18.885,24.8a5.677,5.677,0,0,1,1.331-.988V34.947a5.685,5.685,0,0,1-1.331-.99,10.958,10.958,0,0,0-5.139-2.9V27.707A10.976,10.976,0,0,0,18.885,24.8ZM29.443,36.487a9.265,9.265,0,0,1-13.088,0A7.464,7.464,0,0,0,13.746,34.8V32.907a9.185,9.185,0,0,1,3.874,2.315,7.473,7.473,0,0,0,10.559,0,9.19,9.19,0,0,1,3.844-2.306v1.891A7.475,7.475,0,0,0,29.443,36.487Zm2.579-5.426a10.961,10.961,0,0,0-5.109,2.9,5.687,5.687,0,0,1-1.331.991V23.816a5.688,5.688,0,0,1,1.331.987,10.97,10.97,0,0,0,5.109,2.9Zm0,0" transform="translate(0)"/>
    </g>
  </g>
</svg>
