<svg xmlns="http://www.w3.org/2000/svg" width="76.246" height="76.246" viewBox="0 0 76.246 76.246">
  <g id="Group_1099786" data-name="Group 1099786" transform="translate(1034 -1985)">
    <g id="Group_1099633" data-name="Group 1099633" transform="translate(-2053 -4779)">
      <g id="Group_1098742" data-name="Group 1098742" transform="translate(1019 6764)">
        <rect id="Rectangle_400898" data-name="Rectangle 400898" width="76.246" height="76.246" rx="38.123" transform="translate(0 0)" fill="#d0c110"/>
        <rect id="Rectangle_400907" data-name="Rectangle 400907" width="76.246" height="76.246" rx="38.123" transform="translate(0 0)" fill="none"/>
      </g>
    </g>
    <g id="Page-1" transform="translate(-1020 2001.001)">
      <g id="_043---Memory-Foam-Mattress" data-name="043---Memory-Foam-Mattress" transform="translate(0 -0.001)">
        <path id="Path" d="M36.32,28.828a1.814,1.814,0,0,1-1.947.917c-.537-.1-2.267-1.1-4.893-2.259l-6.891-3.021a1.28,1.28,0,0,0-1.147,2.288l2.813,1.9a2.427,2.427,0,0,1,.9,3.014,2.329,2.329,0,0,1-2.41,1.315,2.384,2.384,0,0,1-1-.382l-6.864-4.63c-1.159-.779-2.143-1.466-2.493-2.9a12.157,12.157,0,0,1-.184-1.834c-.27-3.08-4.191-6.648-9.8-14.9A2.337,2.337,0,0,1,3.218,4.96L8.125,2.287a2.337,2.337,0,0,1,3.2,1c4.825,9.517,7.145,14.031,7.351,14.312.805,1.09,1.658.935,3.944,1.678a33.055,33.055,0,0,1,5.92,2.648c.586.327,7.037,4.019,7.605,4.643a1.932,1.932,0,0,1,.171,2.264Z" transform="translate(-0.442 -1.221)" fill="#ffe0b2" fill-rule="evenodd"/>
        <path id="Path-2" data-name="Path" d="M28.919,34.993l-2.813-1.9c-.935-.629-.861-1.44-.395-1.939l-.8-.349A1.28,1.28,0,0,0,23.769,33.1l2.813,1.9a2.427,2.427,0,0,1,.9,3.014,2.316,2.316,0,0,1-.928,1.009,2.36,2.36,0,0,0,.857.306,2.329,2.329,0,0,0,2.41-1.315A2.427,2.427,0,0,0,28.919,34.993Z" transform="translate(-5.104 -7.563)" fill="#dfc49c" fill-rule="evenodd"/>
        <path id="Path-3" data-name="Path" d="M37.867,26.561c-.568-.623-7.02-4.316-7.605-4.643a33.055,33.055,0,0,0-5.92-2.648c-2.287-.739-3.139-.589-3.944-1.678-.206-.28-2.527-4.795-7.351-14.312a2.337,2.337,0,0,0-3.2-.995l-.056.026a2.313,2.313,0,0,1,.921.965c4.825,9.517,7.145,14.031,7.351,14.312.805,1.09,1.658.935,3.944,1.678a33.055,33.055,0,0,1,5.92,2.648c.586.327,7.037,4.019,7.605,4.643a1.932,1.932,0,0,1,.174,2.267,1.975,1.975,0,0,1-.488.565,4.578,4.578,0,0,0,.88.352,1.814,1.814,0,0,0,1.947-.917,1.932,1.932,0,0,0-.177-2.264Z" transform="translate(-2.164 -1.22)" fill="#dfc49c" fill-rule="evenodd"/>
        <path id="Path-4" data-name="Path" d="M46.177,38.558V51.02a1.558,1.558,0,0,1-1.558,1.558H2.558A1.558,1.558,0,0,1,1,51.02V38.558A1.558,1.558,0,0,1,2.558,37H9.608a4.673,4.673,0,0,1,2.7.857c.955.675,2.872,1.955,7.5,5.075a5.621,5.621,0,0,0,2.321.872,5.434,5.434,0,0,0,2.613-.3,5.208,5.208,0,0,0,1.837-1.146,5.561,5.561,0,0,0,1.2-1.672,2.359,2.359,0,0,1,3.205-1.2l.023.011a10.148,10.148,0,0,0,2.6,1.059,5.033,5.033,0,0,0,.9.078,4.885,4.885,0,0,0,3.9-1.932,4.522,4.522,0,0,1,3.6-1.7h2.607a1.558,1.558,0,0,1,1.558,1.558Z" transform="translate(-0.221 -8.958)" fill="#02a9f4" fill-rule="evenodd"/>
        <path id="Path-5" data-name="Path" d="M56.337,37H54a1.558,1.558,0,0,1,1.558,1.558V51.02A1.558,1.558,0,0,1,54,52.578h2.337a1.558,1.558,0,0,0,1.558-1.558V38.558A1.558,1.558,0,0,0,56.337,37Z" transform="translate(-11.939 -8.959)" fill="#0377bc" fill-rule="evenodd"/>
        <g id="Group_1099694" data-name="Group 1099694">
          <path id="Shape" d="M22.057,24.96l6.89,3.021c1.246.545,2.27,1.051,3.1,1.457a9.391,9.391,0,0,0,1.975.848,2.586,2.586,0,0,0,2.756-1.3A2.7,2.7,0,0,0,36.5,25.81c-.72-.789-7.732-4.759-7.8-4.8A33.7,33.7,0,0,0,22.639,18.3c-.7-.225-1.27-.372-1.73-.49-1.106-.283-1.442-.389-1.816-.893-.264-.405-2.718-5.189-7.294-14.217A3.116,3.116,0,0,0,7.528,1.38l-4.9,2.673a3.116,3.116,0,0,0-1.083,4.49c2.062,3.035,3.914,5.465,5.4,7.412,2.478,3.247,4.115,5.393,4.268,7.124.016.175.025.352.034.529a7.5,7.5,0,0,0,.169,1.422,5.6,5.6,0,0,0,2.814,3.362l6.87,4.634a3.183,3.183,0,0,0,1.331.5,3.107,3.107,0,0,0,3.214-1.753,3.211,3.211,0,0,0-1.168-3.994l-2.813-1.9c-.34-.229-.454-.449-.341-.655a.613.613,0,0,1,.737-.273Zm-1.269,2.22,2.812,1.9a1.644,1.644,0,0,1,.636,2.032,1.565,1.565,0,0,1-1.6.879,1.619,1.619,0,0,1-.669-.256L15.1,27.1c-1.168-.79-1.9-1.33-2.172-2.44a6.329,6.329,0,0,1-.127-1.136c-.01-.195-.021-.389-.038-.583-.192-2.181-1.844-4.345-4.581-7.932C6.7,13.073,4.866,10.666,2.829,7.667a1.558,1.558,0,0,1,.541-2.246L8.276,2.748a1.553,1.553,0,0,1,2.133.667c7.073,13.953,7.3,14.258,7.419,14.421a4.062,4.062,0,0,0,2.694,1.494c.463.119.986.253,1.636.463a32.231,32.231,0,0,1,5.779,2.586c1.415.786,6.891,3.974,7.413,4.482a1.163,1.163,0,0,1,.074,1.355,1.038,1.038,0,0,1-1.131.538,14.234,14.234,0,0,1-1.558-.714c-.839-.414-1.883-.929-3.158-1.488l-6.891-3.021a2.158,2.158,0,0,0-2.726.949,1.989,1.989,0,0,0,.828,2.7Z" transform="translate(-0.221 -0.999)"/>
          <path id="Shape-2" data-name="Shape" d="M44.4,36H41.791a5.32,5.32,0,0,0-4.218,2,4.165,4.165,0,0,1-4.039,1.563,9.855,9.855,0,0,1-2.424-1,3.073,3.073,0,0,0-2.4-.145,3.246,3.246,0,0,0-1.857,1.724,4.776,4.776,0,0,1-1.035,1.439,4.434,4.434,0,0,1-1.562.974,4.634,4.634,0,0,1-2.243.262,4.829,4.829,0,0,1-1.989-.746l-2.889-1.94c-2.584-1.739-3.881-2.613-4.6-3.121A5.428,5.428,0,0,0,9.387,36H2.337A2.337,2.337,0,0,0,0,38.337V50.8a2.337,2.337,0,0,0,2.337,2.337H44.4A2.337,2.337,0,0,0,46.734,50.8V38.337A2.337,2.337,0,0,0,44.4,36Zm.779,14.8a.779.779,0,0,1-.779.779H2.337a.779.779,0,0,1-.779-.779V38.337a.779.779,0,0,1,.779-.779H9.387a3.877,3.877,0,0,1,2.252.717c.734.519,2.035,1.4,4.629,3.141l2.894,1.947a6.4,6.4,0,0,0,2.647.995,6.254,6.254,0,0,0,2.983-.342A6.03,6.03,0,0,0,26.9,42.7a6.333,6.333,0,0,0,1.366-1.908,1.7,1.7,0,0,1,.965-.911,1.525,1.525,0,0,1,1.21.087,10.593,10.593,0,0,0,2.81,1.128,5.794,5.794,0,0,0,1.034.09,5.67,5.67,0,0,0,4.518-2.237,3.757,3.757,0,0,1,2.984-1.393H44.4a.779.779,0,0,1,.779.779Z" transform="translate(0 -8.737)"/>
          <ellipse id="Oval" cx="1" cy="0.5" rx="1" ry="0.5" transform="translate(35 37)"/>
          <ellipse id="Oval-2" data-name="Oval" cx="1" cy="0.5" rx="1" ry="0.5" transform="translate(35 40)"/>
          <circle id="Oval-3" data-name="Oval" cx="0.5" cy="0.5" r="0.5" transform="translate(32 37)"/>
          <circle id="Oval-4" data-name="Oval" cx="0.5" cy="0.5" r="0.5" transform="translate(32 40)"/>
          <circle id="Oval-5" data-name="Oval" cx="0.5" cy="0.5" r="0.5" transform="translate(29 37)"/>
          <circle id="Oval-6" data-name="Oval" cx="0.5" cy="0.5" r="0.5" transform="translate(29 40)"/>
          <circle id="Oval-7" data-name="Oval" cx="0.5" cy="0.5" r="0.5" transform="translate(26 37)"/>
          <circle id="Oval-8" data-name="Oval" cx="0.5" cy="0.5" r="0.5" transform="translate(26 40)"/>
          <circle id="Oval-9" data-name="Oval" cx="0.5" cy="0.5" r="0.5" transform="translate(23 37)"/>
          <circle id="Oval-10" data-name="Oval" cx="0.5" cy="0.5" r="0.5" transform="translate(23 40)"/>
          <ellipse id="Oval-11" data-name="Oval" cx="1" cy="0.5" rx="1" ry="0.5" transform="translate(19 37)"/>
          <ellipse id="Oval-12" data-name="Oval" cx="1" cy="0.5" rx="1" ry="0.5" transform="translate(19 40)"/>
          <ellipse id="Oval-13" data-name="Oval" cx="1" cy="0.5" rx="1" ry="0.5" transform="translate(16 37)"/>
          <ellipse id="Oval-14" data-name="Oval" cx="1" cy="0.5" rx="1" ry="0.5" transform="translate(16 40)"/>
          <ellipse id="Oval-15" data-name="Oval" cx="1" cy="0.5" rx="1" ry="0.5" transform="translate(13 37)"/>
          <ellipse id="Oval-16" data-name="Oval" cx="1" cy="0.5" rx="1" ry="0.5" transform="translate(13 40)"/>
          <ellipse id="Oval-17" data-name="Oval" cx="1" cy="0.5" rx="1" ry="0.5" transform="translate(10 37)"/>
          <ellipse id="Oval-18" data-name="Oval" cx="1" cy="0.5" rx="1" ry="0.5" transform="translate(10 40)"/>
          <ellipse id="Oval-19" data-name="Oval" cx="1" cy="0.5" rx="1" ry="0.5" transform="translate(7 37)"/>
          <ellipse id="Oval-20" data-name="Oval" cx="1" cy="0.5" rx="1" ry="0.5" transform="translate(7 40)"/>
          <circle id="Oval-21" data-name="Oval" cx="0.5" cy="0.5" r="0.5" transform="translate(4 37)"/>
          <circle id="Oval-22" data-name="Oval" cx="0.5" cy="0.5" r="0.5" transform="translate(4 40)"/>
          <ellipse id="Oval-23" data-name="Oval" cx="1" cy="0.5" rx="1" ry="0.5" transform="translate(41 37)"/>
          <ellipse id="Oval-24" data-name="Oval" cx="1" cy="0.5" rx="1" ry="0.5" transform="translate(41 40)"/>
          <ellipse id="Oval-25" data-name="Oval" cx="1" cy="0.5" rx="1" ry="0.5" transform="translate(38 37)"/>
          <circle id="Oval-26" data-name="Oval" cx="1" cy="1" r="1" transform="translate(35 33)"/>
          <ellipse id="Oval-27" data-name="Oval" cx="0.5" cy="1" rx="0.5" ry="1" transform="translate(32 33)"/>
          <ellipse id="Oval-28" data-name="Oval" cx="0.5" cy="1" rx="0.5" ry="1" transform="translate(29 33)"/>
          <circle id="Oval-29" data-name="Oval" cx="1" cy="1" r="1" transform="translate(13 33)"/>
          <circle id="Oval-30" data-name="Oval" cx="1" cy="1" r="1" transform="translate(10 33)"/>
          <circle id="Oval-31" data-name="Oval" cx="1" cy="1" r="1" transform="translate(7 33)"/>
          <ellipse id="Oval-32" data-name="Oval" cx="0.5" cy="1" rx="0.5" ry="1" transform="translate(4 33)"/>
          <circle id="Oval-33" data-name="Oval" cx="1" cy="1" r="1" transform="translate(41 33)"/>
          <circle id="Oval-34" data-name="Oval" cx="1" cy="1" r="1" transform="translate(38 33)"/>
          <circle id="Oval-35" data-name="Oval" cx="1" cy="1" r="1" transform="translate(10 30)"/>
          <circle id="Oval-36" data-name="Oval" cx="1" cy="1" r="1" transform="translate(7 30)"/>
          <ellipse id="Oval-37" data-name="Oval" cx="0.5" cy="1" rx="0.5" ry="1" transform="translate(4 30)"/>
          <circle id="Oval-38" data-name="Oval" cx="1" cy="1" r="1" transform="translate(41 30)"/>
          <ellipse id="Oval-39" data-name="Oval" cx="1" cy="0.5" rx="1" ry="0.5" transform="translate(38 40)"/>
        </g>
      </g>
    </g>
  </g>
</svg>
