<svg xmlns="http://www.w3.org/2000/svg" width="76.246" height="76.246" viewBox="0 0 76.246 76.246">
  <g id="Group_1099690" data-name="Group 1099690" transform="translate(-1088.051 -13218)">
    <g id="Group_1099627" data-name="Group 1099627" transform="translate(69.051 6454)">
      <g id="Group_1098742" data-name="Group 1098742" transform="translate(1019 6764)">
        <rect id="Rectangle_400898" data-name="Rectangle 400898" width="76.246" height="76.246" rx="38.123" transform="translate(0 0)" fill="#d0c110"/>
        <rect id="Rectangle_400907" data-name="Rectangle 400907" width="76.246" height="76.246" rx="38.123" transform="translate(0 0)" fill="none"/>
      </g>
    </g>
    <g id="cuero" transform="translate(1103.55 13231)">
      <path id="Path_1241806" data-name="Path 1241806" d="M11.382,51.324a.944.944,0,0,0,1.123.326,14.379,14.379,0,0,1,15.905,3.471,1.3,1.3,0,0,0,1.894,0A14.382,14.382,0,0,1,45.826,51.5a1.066,1.066,0,0,0,1.248-.381,27.888,27.888,0,0,0,3.3-6.334,1.058,1.058,0,0,0-.273-1.148,14.307,14.307,0,0,1-.656-20.5,1.071,1.071,0,0,0,.216-1.18,26.7,26.7,0,0,0-5.248-7.79,1.075,1.075,0,0,0-1.15-.257,6.915,6.915,0,0,1-9.282-5.19,1.053,1.053,0,0,0-.827-.839A20.156,20.156,0,0,0,25.6,7.8a1.057,1.057,0,0,0-.854.858,6.914,6.914,0,0,1-9.527,5.161,1.076,1.076,0,0,0-1.192.218,26.587,26.587,0,0,0-5.2,7.539,1.059,1.059,0,0,0,.224,1.207,14.264,14.264,0,0,1,4.366,10.288,14.277,14.277,0,0,1-5.042,10.9,1.058,1.058,0,0,0-.3,1.185A27.758,27.758,0,0,0,11.382,51.324Zm0,0" transform="translate(-6.774 -6.757)" fill="#c35d1d"/>
      <path id="Path_1241807" data-name="Path 1241807" d="M229.5,88.52a14.307,14.307,0,0,1-.656-20.5,1.071,1.071,0,0,0,.216-1.18,26.68,26.68,0,0,0-5.248-7.79,1.075,1.075,0,0,0-1.15-.257,6.92,6.92,0,0,1-7.438-1.628,43.821,43.821,0,0,1-8.632,41.688,14.411,14.411,0,0,1,1.213,1.15,1.3,1.3,0,0,0,1.894,0,14.382,14.382,0,0,1,15.521-3.622A1.065,1.065,0,0,0,226.465,96a27.9,27.9,0,0,0,3.3-6.334A1.059,1.059,0,0,0,229.5,88.52Zm0,0" transform="translate(-186.166 -51.641)" fill="#bc5214"/>
      <path id="Path_1241808" data-name="Path 1241808" d="M163.473,36.344a13.581,13.581,0,0,1-.623-19.458,1.79,1.79,0,0,0,.356-1.98,27.3,27.3,0,0,0-5.391-8,1.794,1.794,0,0,0-1.929-.426,6.191,6.191,0,0,1-8.308-4.644,1.791,1.791,0,0,0-1.4-1.42,21,21,0,0,0-7.837-.089,1.785,1.785,0,0,0-1.44,1.449,6.16,6.16,0,0,1-3.523,4.56.725.725,0,0,0,.6,1.319,7.61,7.61,0,0,0,4.35-5.634.33.33,0,0,1,.267-.267,19.53,19.53,0,0,1,7.292.083.328.328,0,0,1,.257.258,7.619,7.619,0,0,0,7.508,6.246,7.606,7.606,0,0,0,2.748-.51.352.352,0,0,1,.371.088,25.852,25.852,0,0,1,5.1,7.578.346.346,0,0,1-.076.382,15.031,15.031,0,0,0,.689,21.535.335.335,0,0,1,.082.361,27.151,27.151,0,0,1-3.218,6.17.34.34,0,0,1-.4.118,15.042,15.042,0,0,0-2.8-.751.725.725,0,1,0-.239,1.43,13.572,13.572,0,0,1,2.524.678,1.791,1.791,0,0,0,2.1-.643,28.629,28.629,0,0,0,3.39-6.5A1.775,1.775,0,0,0,163.473,36.344Zm0,0" transform="translate(-119.653 0)"/>
      <path id="Path_1241809" data-name="Path 1241809" d="M33.389,101.439A14.991,14.991,0,0,0,23,106.19a.579.579,0,0,1-.837,0,15.142,15.142,0,0,0-11-4.763,14.99,14.99,0,0,0-5.7,1.117.22.22,0,0,1-.259-.077,27.026,27.026,0,0,1-3.224-6.009.332.332,0,0,1,.089-.372,15.019,15.019,0,0,0,5.3-11.454,14.908,14.908,0,0,0-4.587-10.81.333.333,0,0,1-.069-.38,25.75,25.75,0,0,1,5.06-7.333.351.351,0,0,1,.392-.063,7.579,7.579,0,0,0,3.007.615.725.725,0,1,0,0-1.45,6.133,6.133,0,0,1-2.435-.5,1.793,1.793,0,0,0-1.993.374,27.2,27.2,0,0,0-5.346,7.744,1.784,1.784,0,0,0,.377,2.034A13.471,13.471,0,0,1,5.91,84.632a13.572,13.572,0,0,1-4.786,10.35,1.782,1.782,0,0,0-.5,2,28.454,28.454,0,0,0,3.4,6.331,1.663,1.663,0,0,0,1.987.575,13.655,13.655,0,0,1,15.1,3.3,2.027,2.027,0,0,0,2.951,0,13.553,13.553,0,0,1,9.388-4.294.725.725,0,0,0-.058-1.449Zm0,0" transform="translate(0 -58.321)"/>
      <path id="Path_1241810" data-name="Path 1241810" d="M79.884,99.931c-.206-.037-.412-.08-.614-.13a.725.725,0,0,0-.35,1.407c.233.058.472.109.71.151a.725.725,0,0,0,.253-1.428Zm0,0" transform="translate(-70.342 -90.133)"/>
      <path id="Path_1241811" data-name="Path 1241811" d="M66.112,418.588a.725.725,0,0,0,.153-.016c.211-.045.425-.087.637-.123a.725.725,0,1,0-.248-1.429c-.23.04-.463.085-.692.134a.725.725,0,0,0,.151,1.434Zm0,0" transform="translate(-58.614 -376.694)"/>
      <path id="Path_1241812" data-name="Path 1241812" d="M88.713,263.33h.015a.725.725,0,0,0,.725-.711q0-.179,0-.358t0-.348a.725.725,0,0,0-.725-.711h-.014a.725.725,0,0,0-.711.739q0,.16,0,.321t0,.329A.725.725,0,0,0,88.713,263.33Zm0,0" transform="translate(-79.043 -235.951)"/>
      <path id="Path_1241813" data-name="Path 1241813" d="M77.275,199.875c-.077-.221-.16-.444-.246-.661a.725.725,0,1,0-1.349.532c.079.2.155.4.226.607a.725.725,0,0,0,1.369-.478Zm0,0" transform="translate(-67.866 -179.54)"/>
      <path id="Path_1241814" data-name="Path 1241814" d="M86.05,230.008a.725.725,0,1,0-1.423.281c.042.211.08.426.113.639a.725.725,0,1,0,1.432-.225C86.137,230.471,86.1,230.237,86.05,230.008Zm0,0" transform="translate(-75.982 -207.244)"/>
      <path id="Path_1241815" data-name="Path 1241815" d="M240.787,33.146a.726.726,0,0,0-.594-.487q-.144-.019-.289-.035a.725.725,0,0,0-.342,1.4.725.725,0,0,0,1.35-.529C240.867,33.377,240.826,33.261,240.787,33.146Zm0,0" transform="translate(-215.53 -29.466)"/>
      <path id="Path_1241816" data-name="Path 1241816" d="M256.377,59.163a.725.725,0,1,0-1.188.831c.138.2.285.393.436.58a.725.725,0,1,0,1.129-.91C256.623,59.5,256.5,59.334,256.377,59.163Zm0,0" transform="translate(-229.948 -53.164)"/>
      <path id="Path_1241817" data-name="Path 1241817" d="M97.834,415.812h.025c.189-.006.381-.01.57-.01h.083a.725.725,0,0,0,0-1.45h-.082c-.208,0-.417,0-.622.011a.725.725,0,0,0,.024,1.45Zm0,0" transform="translate(-87.269 -374.294)"/>
      <path id="Path_1241818" data-name="Path 1241818" d="M76.9,325.685c.086-.218.169-.441.246-.66a.725.725,0,1,0-1.369-.48c-.071.2-.147.406-.226.607a.725.725,0,1,0,1.349.533Zm0,0" transform="translate(-67.745 -292.731)"/>
      <path id="Path_1241819" data-name="Path 1241819" d="M85.977,294.617c.046-.229.088-.462.125-.694a.725.725,0,0,0-1.432-.229c-.034.213-.073.428-.115.638a.725.725,0,0,0,.569.853.742.742,0,0,0,.143.014A.726.726,0,0,0,85.977,294.617Zm0,0" transform="translate(-75.915 -264.75)"/>
      <path id="Path_1241820" data-name="Path 1241820" d="M256.759,432.031c-.211.1-.423.207-.63.315a.725.725,0,1,0,.674,1.284c.19-.1.386-.2.58-.29a.725.725,0,0,0-.624-1.309Zm0,0" transform="translate(-230.565 -390.201)"/>
      <path id="Path_1241821" data-name="Path 1241821" d="M142.258,92.938c-.189.09-.383.173-.576.25a.725.725,0,0,0,.531,1.35c.224-.088.448-.185.666-.289a.725.725,0,0,0-.621-1.311Zm0,0" transform="translate(-127.117 -83.889)"/>
      <path id="Path_1241822" data-name="Path 1241822" d="M169.441,76.808a.723.723,0,0,0,.459-.164c.187-.153.37-.314.546-.478a.725.725,0,0,0-.993-1.057c-.151.142-.31.281-.472.414a.725.725,0,0,0,.46,1.286Zm0,0" transform="translate(-151.953 -67.669)"/>
      <path id="Path_1241823" data-name="Path 1241823" d="M61.715,171.873a.725.725,0,0,0,1.261-.716c-.116-.2-.237-.407-.361-.606a.725.725,0,0,0-1.231.766C61.5,171.5,61.609,171.686,61.715,171.873Zm0,0" transform="translate(-54.898 -153.753)"/>
      <path id="Path_1241824" data-name="Path 1241824" d="M110.119,102.736a.725.725,0,0,0,.723.678l.048,0c.241-.015.483-.04.722-.071a.725.725,0,1,0-.191-1.437c-.207.027-.417.048-.625.062A.726.726,0,0,0,110.119,102.736Zm0,0" transform="translate(-99.019 -92.046)"/>
      <path id="Path_1241825" data-name="Path 1241825" d="M160.148,424.093a.725.725,0,0,0,.459.917c.2.068.408.14.611.217a.725.725,0,1,0,.511-1.357c-.221-.083-.444-.162-.665-.236A.725.725,0,0,0,160.148,424.093Zm0,0" transform="translate(-144.18 -382.645)"/>
      <path id="Path_1241826" data-name="Path 1241826" d="M129.027,416.84a.725.725,0,0,0,.614.822c.211.03.427.066.639.105a.725.725,0,1,0,.264-1.426c-.231-.043-.466-.082-.7-.115A.726.726,0,0,0,129.027,416.84Zm0,0" transform="translate(-116.094 -375.981)"/>
      <path id="Path_1241827" data-name="Path 1241827" d="M44.98,144.418a.725.725,0,0,0-.983.291l-.123.229a.725.725,0,0,0,.1.818q.134.153.264.309a.925.925,0,0,0,.747-1.646Zm0,0" transform="translate(-39.104 -130.376)"/>
      <path id="Path_1241828" data-name="Path 1241828" d="M43.589,379.605a.725.725,0,0,0-1.021.094c-.137.164-.279.329-.424.491a.725.725,0,1,0,1.078.97c.157-.175.313-.354.462-.533A.725.725,0,0,0,43.589,379.605Zm0,0" transform="translate(-37.449 -342.756)"/>
      <path id="Path_1241829" data-name="Path 1241829" d="M58.354,119.146a.725.725,0,0,0,1.008-.191c.124-.182.251-.363.377-.536a.725.725,0,1,0-1.173-.852c-.134.185-.27.378-.4.571A.725.725,0,0,0,58.354,119.146Zm0,0" transform="translate(-51.974 -105.931)"/>
      <path id="Path_1241830" data-name="Path 1241830" d="M43.48,405.807a.725.725,0,0,0-.306.979c.108.206.219.412.332.613a.725.725,0,0,0,1.266-.708c-.106-.189-.211-.384-.313-.578A.725.725,0,0,0,43.48,405.807Zm0,0" transform="translate(-38.473 -366.501)"/>
      <path id="Path_1241831" data-name="Path 1241831" d="M61.489,355.076a.726.726,0,0,0,1-.234c.123-.2.245-.4.36-.607a.725.725,0,0,0-1.262-.715c-.105.187-.217.374-.33.557A.725.725,0,0,0,61.489,355.076Zm0,0" transform="translate(-54.783 -319.011)"/>
      <path id="Path_1241832" data-name="Path 1241832" d="M356.694,246.144c-.025.232-.045.468-.061.7a.725.725,0,0,0,.675.772l.049,0a.726.726,0,0,0,.723-.676c.014-.215.033-.433.056-.646a.725.725,0,0,0-1.442-.153Zm0,0" transform="translate(-321.702 -221.762)"/>
      <path id="Path_1241833" data-name="Path 1241833" d="M361.793,214.665c-.066.224-.128.454-.185.681a.725.725,0,0,0,.528.88.745.745,0,0,0,.176.022.726.726,0,0,0,.7-.549c.052-.209.109-.42.169-.626a.725.725,0,0,0-1.392-.407Zm0,0" transform="translate(-326.179 -193.441)"/>
      <path id="Path_1241834" data-name="Path 1241834" d="M386.619,130.428a.725.725,0,0,0-1.226.775c.116.184.232.372.343.56a.725.725,0,1,0,1.247-.74C386.866,130.823,386.743,130.623,386.619,130.428Zm0,0" transform="translate(-347.583 -117.513)"/>
      <path id="Path_1241835" data-name="Path 1241835" d="M367.721,104.515a.725.725,0,1,0-1.111.932c.138.165.278.336.413.508a.725.725,0,0,0,1.139-.9C368.017,104.873,367.869,104.691,367.721,104.515Zm0,0" transform="translate(-330.563 -94.176)"/>
      <path id="Path_1241836" data-name="Path 1241836" d="M388.55,159.223a.725.725,0,0,0,.6-.313c.122-.176.249-.353.378-.526a.725.725,0,1,0-1.16-.87c-.141.188-.279.381-.412.573a.725.725,0,0,0,.6,1.137Zm0,0" transform="translate(-349.88 -142.023)"/>
      <path id="Path_1241837" data-name="Path 1241837" d="M337.9,102.734c-.206.008-.419.009-.628,0a.725.725,0,0,0-.042,1.45q.157,0,.316,0c.137,0,.275,0,.409-.008a.725.725,0,0,0-.055-1.449Zm0,0" transform="translate(-303.542 -92.801)"/>
      <path id="Path_1241838" data-name="Path 1241838" d="M350.493,415.4a.725.725,0,0,0-.66-.785c-.232-.02-.468-.036-.7-.047a.725.725,0,1,0-.069,1.448c.216.011.434.025.647.044l.063,0A.726.726,0,0,0,350.493,415.4Zm0,0" transform="translate(-314.24 -374.488)"/>
      <path id="Path_1241839" data-name="Path 1241839" d="M278.829,82.329c-.174-.114-.347-.236-.512-.362a.725.725,0,1,0-.877,1.155c.191.146.391.287.593.419a.725.725,0,0,0,.8-1.212Zm0,0" transform="translate(-249.908 -73.909)"/>
      <path id="Path_1241840" data-name="Path 1241840" d="M286.418,420.83c-.225.062-.453.129-.676.2a.725.725,0,1,0,.438,1.383c.205-.065.414-.127.622-.184a.725.725,0,1,0-.385-1.4Zm0,0" transform="translate(-257.209 -380.123)"/>
      <path id="Path_1241841" data-name="Path 1241841" d="M317.768,415.09c-.233.021-.469.047-.7.077a.725.725,0,0,0,.188,1.438c.213-.028.43-.052.645-.071a.725.725,0,1,0-.131-1.444Zm0,0" transform="translate(-285.393 -374.958)"/>
      <path id="Path_1241842" data-name="Path 1241842" d="M306.763,97.167c-.2-.055-.4-.119-.6-.188a.725.725,0,0,0-.482,1.368c.228.08.461.154.693.218a.725.725,0,0,0,.387-1.4Zm0,0" transform="translate(-275.242 -87.566)"/>
      <path id="Path_1241843" data-name="Path 1241843" d="M373.429,184.479a.725.725,0,0,0-.973.324c-.1.21-.207.424-.3.637a.725.725,0,1,0,1.321.6c.088-.2.182-.392.279-.585A.725.725,0,0,0,373.429,184.479Zm0,0" transform="translate(-335.664 -166.575)"/>
      <path id="Path_1241844" data-name="Path 1241844" d="M399.681,394.731a.725.725,0,0,0,.653-.408c.1-.206.2-.418.3-.63a.725.725,0,1,0-1.32-.6c-.091.2-.185.4-.28.595a.726.726,0,0,0,.651,1.043Zm0,0" transform="translate(-359.935 -354.707)"/>
      <path id="Path_1241845" data-name="Path 1241845" d="M189.806,437.686c.188.1.378.21.564.321a.725.725,0,0,0,.741-1.247c-.2-.12-.408-.237-.613-.348a.725.725,0,1,0-.692,1.275Zm0,0" transform="translate(-170.662 -394.142)"/>
      <path id="Path_1241846" data-name="Path 1241846" d="M191.357,49.84a.725.725,0,0,0-.985.284c-.1.182-.209.364-.321.538a.725.725,0,0,0,1.219.785c.13-.2.255-.412.372-.623A.725.725,0,0,0,191.357,49.84Zm0,0" transform="translate(-171.121 -44.939)"/>
      <path id="Path_1241847" data-name="Path 1241847" d="M381.6,419.1c-.227-.062-.457-.119-.684-.171a.725.725,0,0,0-.325,1.413c.209.048.421.1.629.157a.725.725,0,0,0,.38-1.4Zm0,0" transform="translate(-342.839 -378.414)"/>
      <path id="Path_1241848" data-name="Path 1241848" d="M208.526,31.588c-.235.007-.472.019-.7.035a.725.725,0,0,0,.049,1.448l.051,0c.214-.015.432-.026.648-.032a.725.725,0,1,0-.043-1.449Zm0,0" transform="translate(-186.669 -28.534)"/>
      <path id="Path_1241849" data-name="Path 1241849" d="M217.572,448.756a.723.723,0,0,0-.213.267l-.128-.1a.725.725,0,1,0-.906,1.132c.168.135.336.274.5.415a.725.725,0,0,0,1.187-.413h.007a.723.723,0,0,0,.444-.152c.17-.132.345-.262.52-.388a.725.725,0,1,0-.845-1.179C217.947,448.471,217.757,448.613,217.572,448.756Zm0,0" transform="translate(-194.714 -404.87)"/>
      <path id="Path_1241850" data-name="Path 1241850" d="M389.564,367.229a.725.725,0,0,0-1.193.825c.133.191.271.384.412.572a.725.725,0,1,0,1.159-.871C389.813,367.582,389.685,367.406,389.564,367.229Zm0,0" transform="translate(-350.257 -331.445)"/>
      <path id="Path_1241851" data-name="Path 1241851" d="M357.554,279.569a.725.725,0,0,0,.64-.8c-.024-.214-.043-.431-.059-.646a.725.725,0,0,0-1.446.1c.017.234.038.47.064.7a.725.725,0,0,0,.72.645A.735.735,0,0,0,357.554,279.569Zm0,0" transform="translate(-321.752 -250.627)"/>
      <path id="Path_1241852" data-name="Path 1241852" d="M362.029,310.576a.725.725,0,1,0,1.39-.414c-.061-.206-.119-.417-.173-.625a.725.725,0,0,0-1.4.36C361.9,310.123,361.962,310.352,362.029,310.576Zm0,0" transform="translate(-326.388 -279.12)"/>
      <path id="Path_1241853" data-name="Path 1241853" d="M373.837,339.552a.725.725,0,0,0-1.319.6c.1.212.2.426.3.635a.725.725,0,0,0,1.3-.652C374.021,339.944,373.926,339.747,373.837,339.552Zm0,0" transform="translate(-335.994 -306.343)"/>
    </g>
  </g>
</svg>
