<svg xmlns="http://www.w3.org/2000/svg" xmlns:xlink="http://www.w3.org/1999/xlink" width="76.246" height="76.246" viewBox="0 0 76.246 76.246">
  <defs>
    <clipPath id="clip-path">
      <path id="path3528" d="M0-682.665H54.74v54.74H0Z" transform="translate(0 682.665)"/>
    </clipPath>
  </defs>
  <g id="Group_1099783" data-name="Group 1099783" transform="translate(-1182 -3829)">
    <g id="Group_1099776" data-name="Group 1099776" transform="translate(739.949 -1970)">
      <g id="Group_1099706" data-name="Group 1099706" transform="translate(-331 4913)">
        <g id="Group_1099486" data-name="Group 1099486" transform="translate(-245.949 -5878)">
          <g id="Group_1098742" data-name="Group 1098742" transform="translate(1019 6764)">
            <rect id="Rectangle_400898" data-name="Rectangle 400898" width="76.246" height="76.246" rx="38.123" transform="translate(0 0)" fill="#d0c110"/>
            <rect id="Rectangle_400907" data-name="Rectangle 400907" width="76.246" height="76.246" rx="38.123" transform="translate(0 0)" fill="none"/>
          </g>
        </g>
      </g>
    </g>
    <g id="g3522" transform="translate(1190.63 4524.665)">
      <g id="g3524" transform="translate(0 -682.665)">
        <g id="g3526" clip-path="url(#clip-path)">
          <g id="g3532" transform="translate(33.7 4.576)">
            <path id="path3534" d="M-69.361-166.273v-4.517a3.879,3.879,0,0,1,1.144-2.761L-61-180.768l-4.455.026a9.886,9.886,0,0,0-7.037,2.915,9.886,9.886,0,0,0-2.915,7.037v1.65Z" transform="translate(75.408 180.768)" fill="#91e1f7"/>
          </g>
          <g id="g3536" transform="translate(33.7 4.576)">
            <path id="path3538" d="M-69.361-166.273v-4.517a3.879,3.879,0,0,1,1.144-2.761L-61-180.768l-4.455.026a9.886,9.886,0,0,0-7.037,2.915,9.886,9.886,0,0,0-2.915,7.037v1.65Z" transform="translate(75.408 180.768)" fill="#91e1f7"/>
          </g>
          <g id="g3540" transform="translate(37.506 11.827)">
            <path id="path3542" d="M0-49.6l4.363,1.169a3.879,3.879,0,0,0,2.963-.39l8.838-5.1-1.179,4.3a9.886,9.886,0,0,1-4.637,6.043,9.886,9.886,0,0,1-7.551.994L1.2-43.014Z" transform="translate(0 53.92)" fill="#91e1f7"/>
          </g>
          <g id="g3544" transform="translate(37.506 11.827)">
            <path id="path3546" d="M0-49.6l4.363,1.169a3.879,3.879,0,0,0,2.963-.39l8.838-5.1-1.179,4.3a9.886,9.886,0,0,1-4.637,6.043,9.886,9.886,0,0,1-7.551.994l-.571-.153Z" transform="translate(0 53.92)" fill="#91e1f7"/>
          </g>
          <g id="g3548" transform="translate(1.069 14.978)">
            <path id="path3550" d="M-400.018-80.439l-1.01-.27a20.211,20.211,0,0,0-15.438,2.032l-9.426,5.442a6.511,6.511,0,0,0-3.054,3.98,3.024,3.024,0,0,1-3.7,2.138,3.014,3.014,0,0,1-1.836-1.409,3.014,3.014,0,0,1-.3-2.294,12.519,12.519,0,0,1,5.871-7.651l9.426-5.442a26.264,26.264,0,0,1,9.751-3.31,26.26,26.26,0,0,1,10.276.673l1.01.27Z" transform="translate(434.89 87.451)" fill="#91e1f7"/>
          </g>
          <g id="g3552" transform="translate(12.387 19.07)">
            <path id="path3554" d="M-244.482,0V1.045a20.212,20.212,0,0,1-5.959,14.386l-7.7,7.7a6.511,6.511,0,0,1-4.635,1.92,3.024,3.024,0,0,0-3.023,3.023,3.014,3.014,0,0,0,.886,2.138,3.014,3.014,0,0,0,2.138.886,12.519,12.519,0,0,0,8.91-3.691l7.7-7.7a26.263,26.263,0,0,0,5.721-8.562,26.262,26.262,0,0,0,2.009-10.1V0Z" transform="translate(265.795)" fill="#91e1f7"/>
          </g>
          <g id="g3556" transform="translate(33.7 16.047)">
            <path id="path3558" d="M-59.2-59.2a3.023,3.023,0,0,0,0-4.275,3.023,3.023,0,0,0-4.275,0,3.023,3.023,0,0,0,0,4.275,3.023,3.023,0,0,0,4.275,0" transform="translate(64.363 64.363)" fill="#fff"/>
          </g>
          <g id="g3560" transform="translate(32.631 3.506)">
            <path id="path3562" d="M-81.625-177.468a1.069,1.069,0,0,1-1.069-1.069v-4.517a4.941,4.941,0,0,1,1.457-3.517l5.376-5.376-1.852.011a8.828,8.828,0,0,0-6.287,2.6,8.824,8.824,0,0,0-2.6,6.281v.425a1.069,1.069,0,0,1-1.069,1.069,1.069,1.069,0,0,1-1.069-1.069v-.425a10.948,10.948,0,0,1,3.228-7.793,10.948,10.948,0,0,1,7.792-3.228h0l4.449-.026a1.069,1.069,0,0,1,.993.657,1.069,1.069,0,0,1-.231,1.168l-7.217,7.217a2.817,2.817,0,0,0-.83,2.005v4.517A1.069,1.069,0,0,1-81.625-177.468Z" transform="translate(88.741 194.101)"/>
          </g>
          <g id="g3564" transform="translate(-0.001 13.909)">
            <path id="path3566" d="M-184.5-131.659a4.084,4.084,0,0,1-1.058-.14,4.066,4.066,0,0,1-2.485-1.907,4.066,4.066,0,0,1-.409-3.105,13.581,13.581,0,0,1,6.369-8.3l9.426-5.442A27.328,27.328,0,0,1-162.51-154a27.324,27.324,0,0,1,10.692.7l1.01.27a1.069,1.069,0,0,1,.756,1.309,1.069,1.069,0,0,1-1.309.756l-1.01-.27a25.2,25.2,0,0,0-9.859-.646,25.2,25.2,0,0,0-9.356,3.176l-9.426,5.442a11.457,11.457,0,0,0-5.373,7,1.942,1.942,0,0,0,.2,1.483,1.942,1.942,0,0,0,1.187.911,1.957,1.957,0,0,0,2.393-1.382,7.573,7.573,0,0,1,3.552-4.629l5.054-2.918a1.069,1.069,0,0,1,1.46.391,1.069,1.069,0,0,1-.391,1.46l-5.054,2.918a5.448,5.448,0,0,0-2.556,3.331A4.1,4.1,0,0,1-184.5-131.659Z" transform="translate(188.592 154.235)"/>
          </g>
          <g id="g3568" transform="translate(22.615 19.953)">
            <path id="path3570" d="M-135.4-15.035a1.07,1.07,0,0,1-1.021-.753,1.069,1.069,0,0,1,.705-1.337,21.351,21.351,0,0,1,10.4-.545,1.069,1.069,0,0,1,.843,1.255,1.069,1.069,0,0,1-1.255.843,19.206,19.206,0,0,0-9.351.489A1.069,1.069,0,0,1-135.4-15.035Z" transform="translate(136.466 18.07)"/>
          </g>
          <g id="g3572" transform="translate(11.318 18.001)">
            <path id="path3574" d="M-275.036,19.9a4.066,4.066,0,0,1-2.894-1.2,4.066,4.066,0,0,1-1.2-2.894,4.1,4.1,0,0,1,4.092-4.093h0a5.448,5.448,0,0,0,3.878-1.606l7.7-7.7a19.15,19.15,0,0,0,5.646-13.63v-1.045a1.069,1.069,0,0,1,1.069-1.069,1.069,1.069,0,0,1,1.069,1.069v1.045A21.274,21.274,0,0,1-261.95,3.923l-7.7,7.7a7.573,7.573,0,0,1-5.39,2.233h0a1.957,1.957,0,0,0-1.954,1.954,1.941,1.941,0,0,0,.572,1.382,1.941,1.941,0,0,0,1.382.572,11.457,11.457,0,0,0,8.154-3.378l7.7-7.7A25.2,25.2,0,0,0-253.7-1.528a25.2,25.2,0,0,0,1.928-9.691v-1.045a1.069,1.069,0,0,1,1.069-1.069,1.069,1.069,0,0,1,1.069,1.069v1.045A27.327,27.327,0,0,1-251.721-.71,27.326,27.326,0,0,1-257.674,8.2l-7.7,7.7A13.581,13.581,0,0,1-275.036,19.9Z" transform="translate(279.129 13.333)"/>
          </g>
          <g id="g3576" transform="translate(32.633 14.978)">
            <path id="path3578" d="M-73.582-69.511a4.066,4.066,0,0,1-2.894-1.2,4.1,4.1,0,0,1,0-5.787,4.066,4.066,0,0,1,2.894-1.2,4.066,4.066,0,0,1,2.894,1.2,4.1,4.1,0,0,1,0,5.787A4.066,4.066,0,0,1-73.582-69.511Zm0-6.046a1.941,1.941,0,0,0-1.382.572,1.956,1.956,0,0,0,0,2.764,1.941,1.941,0,0,0,1.382.572,1.941,1.941,0,0,0,1.382-.572,1.956,1.956,0,0,0,0-2.764A1.941,1.941,0,0,0-73.582-75.558Z" transform="translate(77.672 77.696)"/>
          </g>
          <g id="g3580" transform="translate(36.437 10.757)">
            <path id="path3582" d="M-6.875-53.438a11.081,11.081,0,0,1-2.87-.38l-.571-.153a1.069,1.069,0,0,1-.756-1.309,1.069,1.069,0,0,1,1.309-.756l.571.153a8.824,8.824,0,0,0,6.74-.887,8.824,8.824,0,0,0,4.138-5.393l.492-1.793-6.584,3.8a4.941,4.941,0,0,1-3.774.5l-4.363-1.169a1.069,1.069,0,0,1-.756-1.309,1.069,1.069,0,0,1,1.309-.756l4.363,1.169a2.817,2.817,0,0,0,2.152-.283l8.838-5.1a1.069,1.069,0,0,1,1.188.08A1.069,1.069,0,0,1,4.929-65.9L3.75-61.6a10.945,10.945,0,0,1-5.133,6.686A10.957,10.957,0,0,1-6.875-53.438Z" transform="translate(13.337 67.253)"/>
          </g>
          <g id="g3584" transform="translate(19.288 23.871)">
            <path id="path3586" transform="translate(0 0)"/>
          </g>
        </g>
      </g>
    </g>
  </g>
</svg>
