<svg xmlns="http://www.w3.org/2000/svg" width="76.246" height="76.246" viewBox="0 0 76.246 76.246">
  <g id="Group_1099689" data-name="Group 1099689" transform="translate(-773.051 -13218)">
    <g id="Group_1099626" data-name="Group 1099626" transform="translate(-245.949 6454)">
      <g id="Group_1098742" data-name="Group 1098742" transform="translate(1019 6764)">
        <rect id="Rectangle_400898" data-name="Rectangle 400898" width="76.246" height="76.246" rx="38.123" transform="translate(0 0)" fill="#d0c110"/>
        <rect id="Rectangle_400907" data-name="Rectangle 400907" width="76.246" height="76.246" rx="38.123" transform="translate(0 0)" fill="none"/>
      </g>
    </g>
    <g id="Page-1" transform="translate(786.05 13236)">
      <g id="_040---Egg-Container" data-name="040---Egg-Container" transform="translate(0.001)">
        <g id="Icons_copy" transform="translate(0.833 0.834)">
          <path id="Path" d="M48.383,29.668a1.673,1.673,0,0,1-1.668,1.668H1.668A1.673,1.673,0,0,1,0,29.668a1.631,1.631,0,0,1,.492-1.176A1.631,1.631,0,0,1,1.668,28H46.715A1.673,1.673,0,0,1,48.383,29.668Z" transform="translate(0 -4.643)" fill="#ff9801" fill-rule="evenodd"/>
          <path id="Path-2" data-name="Path" d="M55.5,28H53a1.668,1.668,0,0,1,0,3.337h2.5A1.668,1.668,0,1,0,55.5,28Z" transform="translate(-8.788 -4.643)" fill="#f57c00" fill-rule="evenodd"/>
          <path id="Path-3" data-name="Path" d="M47.046,32,44.051,42.469a1.662,1.662,0,0,1-1.6,1.21H34.959a1.662,1.662,0,0,1-1.6-1.21l-.943-3.3a.834.834,0,0,0-1.6,0l-.943,3.3a1.662,1.662,0,0,1-1.6,1.21H20.778a1.662,1.662,0,0,1-1.6-1.21l-.943-3.3a.834.834,0,0,0-1.6,0l-.943,3.3a1.662,1.662,0,0,1-1.6,1.21H6.6a1.662,1.662,0,0,1-1.6-1.21L2,32Z" transform="translate(-0.332 -5.306)" fill="#ffe0b2" fill-rule="evenodd"/>
          <g id="Group_1099688" data-name="Group 1099688" transform="translate(11.253 26.694)">
            <path id="Path-4" data-name="Path" d="M34.636,40.481a.834.834,0,0,0-1.6,0l-.943,3.3a1.662,1.662,0,0,1-1.6,1.21h2.5a1.662,1.662,0,0,0,1.6-1.21l.492-1.721Z" transform="translate(-16.309 -33.307)" fill="#dfc49c" fill-rule="evenodd"/>
            <path id="Path-5" data-name="Path" d="M17.636,40.481a.834.834,0,0,0-1.6,0l-.943,3.3a1.662,1.662,0,0,1-1.6,1.21h2.5a1.662,1.662,0,0,0,1.6-1.21l.492-1.721Z" transform="translate(-13.49 -33.307)" fill="#dfc49c" fill-rule="evenodd"/>
            <path id="Path-6" data-name="Path" d="M52.086,32,49.092,42.469a1.662,1.662,0,0,1-1.6,1.21h2.5a1.662,1.662,0,0,0,1.6-1.21L54.589,32Z" transform="translate(-19.128 -32)" fill="#dfc49c" fill-rule="evenodd"/>
          </g>
          <path id="Path-7" data-name="Path" d="M46.378,7.508v15.85H43.041V8.342a5.005,5.005,0,0,0-5.005-5.005H11.342A5.005,5.005,0,0,0,6.337,8.342V23.357H3V7.508A7.508,7.508,0,0,1,10.508,0H38.87A7.508,7.508,0,0,1,46.378,7.508Z" transform="translate(-0.497)" fill="#ffe0b2" fill-rule="evenodd"/>
          <path id="Path-8" data-name="Path" d="M45.5,0H43a7.508,7.508,0,0,1,7.508,7.508v15.85h2.5V7.508A7.508,7.508,0,0,0,45.5,0Z" transform="translate(-7.13)" fill="#dfc49c" fill-rule="evenodd"/>
          <path id="Path-9" data-name="Path" d="M43.7,9.005V24.021H7V9.005A5.005,5.005,0,0,1,12.005,4h3.337v.834a2.51,2.51,0,0,0,2.5,2.5h1.668a2.51,2.51,0,0,0,2.5-2.5V4h6.674v.834a2.51,2.51,0,0,0,2.5,2.5H32.86a2.51,2.51,0,0,0,2.5-2.5V4H38.7A5.005,5.005,0,0,1,43.7,9.005Z" transform="translate(-1.161 -0.663)" fill="#dfc49c" fill-rule="evenodd"/>
          <path id="Path-10" data-name="Path" d="M17.33,27.171l.868-2.586a2.311,2.311,0,0,1,4.388,0l.868,2.586" transform="translate(-2.873 -3.814)" fill="sienna" fill-rule="evenodd"/>
          <path id="Path-11" data-name="Path" d="M33.33,27.171l.868-2.586a2.311,2.311,0,0,1,4.388,0l.868,2.586" transform="translate(-5.526 -3.814)" fill="sienna" fill-rule="evenodd"/>
        </g>
        <g id="Icons">
          <path id="Path-12" data-name="Path" d="M12.208,43.208H9.723a.834.834,0,0,1-.8-.6l-.663-2.315a.835.835,0,0,1,1.6-.459l.489,1.71h1.857a.834.834,0,1,1,0,1.668Z" transform="translate(-1.365 -6.504)" fill="#fff" fill-rule="evenodd"/>
          <path id="Shape" d="M47.549,23.357V8.342A8.351,8.351,0,0,0,39.207,0H10.845A8.351,8.351,0,0,0,2.5,8.342V23.357a2.5,2.5,0,0,0-.657,4.907l2.849,9.958a2.5,2.5,0,0,0,2.4,1.819H14.59a2.5,2.5,0,0,0,2.4-1.814l.941-3.293.94,3.288a2.5,2.5,0,0,0,2.4,1.819h7.491a2.5,2.5,0,0,0,2.4-1.814l.941-3.293.94,3.288a2.5,2.5,0,0,0,2.4,1.819h7.491a2.5,2.5,0,0,0,2.4-1.814l2.85-9.963a2.5,2.5,0,0,0-.657-4.907ZM4.171,8.342a6.681,6.681,0,0,1,6.674-6.674H39.207a6.681,6.681,0,0,1,6.674,6.674V23.357H44.212V9.176a5.846,5.846,0,0,0-5.839-5.839H11.679A5.846,5.846,0,0,0,5.839,9.176V23.357H4.171Zm31.19,15.015-.677-2.015a3.145,3.145,0,0,0-5.969,0l-.677,2.015H22.014l-.677-2.015a3.145,3.145,0,0,0-5.969,0l-.677,2.015H7.508V9.176a4.176,4.176,0,0,1,4.171-4.171h2.5a3.337,3.337,0,0,0,3.337,3.337h1.668a3.337,3.337,0,0,0,3.337-3.337h5.005a3.337,3.337,0,0,0,3.337,3.337h1.668A3.337,3.337,0,0,0,35.87,5.005h2.5a4.176,4.176,0,0,1,4.171,4.171V23.357Zm-1.759,0H29.8l.5-1.488a1.477,1.477,0,0,1,2.806,0Zm-13.347,0h-3.8l.5-1.488a1.477,1.477,0,0,1,2.806,0Zm.6-18.352a1.668,1.668,0,0,1-1.668,1.668H17.518A1.668,1.668,0,0,1,15.85,5.005Zm13.347,0a1.668,1.668,0,0,1-1.668,1.668H30.865A1.668,1.668,0,0,1,29.2,5.005Zm9.549,32.768a.828.828,0,0,1-.8.6H35.462a.828.828,0,0,1-.8-.6l-.942-3.293a1.668,1.668,0,0,0-3.209,0l-.942,3.3a.828.828,0,0,1-.8.6H21.28a.828.828,0,0,1-.8-.6l-.942-3.293a1.668,1.668,0,0,0-3.209,0l-.942,3.3a.828.828,0,0,1-.8.6H7.1a.828.828,0,0,1-.8-.6L3.609,28.362H46.443Zm3.8-11.079H2.5a.834.834,0,1,1,0-1.668H47.549a.834.834,0,1,1,0,1.668Z" transform="translate(-0.001)"/>
        </g>
      </g>
    </g>
  </g>
</svg>
